NDIME= 3
NELEM= 960
13 0 11 99 1 12 100 0
12 11 22 110 99 12 23 111 100 1
12 22 33 121 110 23 34 122 111 2
12 33 44 132 121 34 45 133 122 3
12 44 55 143 132 45 56 144 133 4
12 55 66 154 143 56 67 155 144 5
12 66 77 165 154 67 78 166 155 6
12 77 88 176 165 78 89 177 166 7
13 0 99 187 1 100 188 8
12 99 110 198 187 100 111 199 188 9
12 110 121 209 198 111 122 210 199 10
12 121 132 220 209 122 133 221 210 11
12 132 143 231 220 133 144 232 221 12
12 143 154 242 231 144 155 243 232 13
12 154 165 253 242 155 166 254 243 14
12 165 176 264 253 166 177 265 254 15
13 0 187 275 1 188 276 16
12 187 198 286 275 188 199 287 276 17
12 198 209 297 286 199 210 298 287 18
12 209 220 308 297 210 221 309 298 19
12 220 231 319 308 221 232 320 309 20
12 231 242 330 319 232 243 331 320 21
12 242 253 341 330 243 254 342 331 22
12 253 264 352 341 254 265 353 342 23
13 0 275 363 1 276 364 24
12 275 286 374 363 276 287 375 364 25
12 286 297 385 374 287 298 386 375 26
12 297 308 396 385 298 309 397 386 27
12 308 319 407 396 309 320 408 397 28
12 319 330 418 407 320 331 419 408 29
12 330 341 429 418 331 342 430 419 30
12 341 352 440 429 342 353 441 430 31
13 0 363 451 1 364 452 32
12 363 374 462 451 364 375 463 452 33
12 374 385 473 462 375 386 474 463 34
12 385 396 484 473 386 397 485 474 35
12 396 407 495 484 397 408 496 485 36
12 407 418 506 495 408 419 507 496 37
12 418 429 517 506 419 430 518 507 38
12 429 440 528 517 430 441 529 518 39
13 0 451 539 1 452 540 40
12 451 462 550 539 452 463 551 540 41
12 462 473 561 550 463 474 562 551 42
12 473 484 572 561 474 485 573 562 43
12 484 495 583 572 485 496 584 573 44
12 495 506 594 583 496 507 595 584 45
12 506 517 605 594 507 518 606 595 46
12 517 528 616 605 518 529 617 606 47
13 0 539 627 1 540 628 48
12 539 550 638 627 540 551 639 628 49
12 550 561 649 638 551 562 650 639 50
12 561 572 660 649 562 573 661 650 51
12 572 583 671 660 573 584 672 661 52
12 583 594 682 671 584 595 683 672 53
12 594 605 693 682 595 606 694 683 54
12 605 616 704 693 606 617 705 694 55
13 0 627 715 1 628 716 56
12 627 638 726 715 628 639 727 716 57
12 638 649 737 726 639 650 738 727 58
12 649 660 748 737 650 661 749 738 59
12 660 671 759 748 661 672 760 749 60
12 671 682 770 759 672 683 771 760 61
12 682 693 781 770 683 694 782 771 62
12 693 704 792 781 694 705 793 782 63
13 0 715 803 1 716 804 64
12 715 726 814 803 716 727 815 804 65
12 726 737 825 814 727 738 826 815 66
12 737 748 836 825 738 749 837 826 67
12 748 759 847 836 749 760 848 837 68
12 759 770 858 847 760 771 859 848 69
12 770 781 869 858 771 782 870 859 70
12 781 792 880 869 782 793 881 870 71
13 0 803 891 1 804 892 72
12 803 814 902 891 804 815 903 892 73
12 814 825 913 902 815 826 914 903 74
12 825 836 924 913 826 837 925 914 75
12 836 847 935 924 837 848 936 925 76
12 847 858 946 935 848 859 947 936 77
12 858 869 957 946 859 870 958 947 78
12 869 880 968 957 870 881 969 958 79
13 0 891 979 1 892 980 80
12 891 902 990 979 892 903 991 980 81
12 902 913 1001 990 903 914 1002 991 82
12 913 924 1012 1001 914 925 1013 1002 83
12 924 935 1023 1012 925 936 1024 1013 84
12 935 946 1034 1023 936 947 1035 1024 85
12 946 957 1045 1034 947 958 1046 1035 86
12 957 968 1056 1045 958 969 1057 1046 87
13 0 979 11 1 980 12 88
12 979 990 22 11 980 991 23 12 89
12 990 1001 33 22 991 1002 34 23 90
12 1001 1012 44 33 1002 1013 45 34 91
12 1012 1023 55 44 1013 1024 56 45 92
12 1023 1034 66 55 1024 1035 67 56 93
12 1034 1045 77 66 1035 1046 78 67 94
12 1045 1056 88 77 1046 1057 89 78 95
13 1 12 100 2 13 101 96
12 12 23 111 100 13 24 112 101 97
12 23 34 122 111 24 35 123 112 98
12 34 45 133 122 35 46 134 123 99
12 45 56 144 133 46 57 145 134 100
12 56 67 155 144 57 68 156 145 101
12 67 78 166 155 68 79 167 156 102
12 78 89 177 166 79 90 178 167 103
13 1 100 188 2 101 189 104
12 100 111 199 188 101 112 200 189 105
12 111 122 210 199 112 123 211 200 106
12 122 133 221 210 123 134 222 211 107
12 133 144 232 221 134 145 233 222 108
12 144 155 243 232 145 156 244 233 109
12 155 166 254 243 156 167 255 244 110
12 166 177 265 254 167 178 266 255 111
13 1 188 276 2 189 277 112
12 188 199 287 276 189 200 288 277 113
12 199 210 298 287 200 211 299 288 114
12 210 221 309 298 211 222 310 299 115
12 221 232 320 309 222 233 321 310 116
12 232 243 331 320 233 244 332 321 117
12 243 254 342 331 244 255 343 332 118
12 254 265 353 342 255 266 354 343 119
13 1 276 364 2 277 365 120
12 276 287 375 364 277 288 376 365 121
12 287 298 386 375 288 299 387 376 122
12 298 309 397 386 299 310 398 387 123
12 309 320 408 397 310 321 409 398 124
12 320 331 419 408 321 332 420 409 125
12 331 342 430 419 332 343 431 420 126
12 342 353 441 430 343 354 442 431 127
13 1 364 452 2 365 453 128
12 364 375 463 452 365 376 464 453 129
12 375 386 474 463 376 387 475 464 130
12 386 397 485 474 387 398 486 475 131
12 397 408 496 485 398 409 497 486 132
12 408 419 507 496 409 420 508 497 133
12 419 430 518 507 420 431 519 508 134
12 430 441 529 518 431 442 530 519 135
13 1 452 540 2 453 541 136
12 452 463 551 540 453 464 552 541 137
12 463 474 562 551 464 475 563 552 138
12 474 485 573 562 475 486 574 563 139
12 485 496 584 573 486 497 585 574 140
12 496 507 595 584 497 508 596 585 141
12 507 518 606 595 508 519 607 596 142
12 518 529 617 606 519 530 618 607 143
13 1 540 628 2 541 629 144
12 540 551 639 628 541 552 640 629 145
12 551 562 650 639 552 563 651 640 146
12 562 573 661 650 563 574 662 651 147
12 573 584 672 661 574 585 673 662 148
12 584 595 683 672 585 596 684 673 149
12 595 606 694 683 596 607 695 684 150
12 606 617 705 694 607 618 706 695 151
13 1 628 716 2 629 717 152
12 628 639 727 716 629 640 728 717 153
12 639 650 738 727 640 651 739 728 154
12 650 661 749 738 651 662 750 739 155
12 661 672 760 749 662 673 761 750 156
12 672 683 771 760 673 684 772 761 157
12 683 694 782 771 684 695 783 772 158
12 694 705 793 782 695 706 794 783 159
13 1 716 804 2 717 805 160
12 716 727 815 804 717 728 816 805 161
12 727 738 826 815 728 739 827 816 162
12 738 749 837 826 739 750 838 827 163
12 749 760 848 837 750 761 849 838 164
12 760 771 859 848 761 772 860 849 165
12 771 782 870 859 772 783 871 860 166
12 782 793 881 870 783 794 882 871 167
13 1 804 892 2 805 893 168
12 804 815 903 892 805 816 904 893 169
12 815 826 914 903 816 827 915 904 170
12 826 837 925 914 827 838 926 915 171
12 837 848 936 925 838 849 937 926 172
12 848 859 947 936 849 860 948 937 173
12 859 870 958 947 860 871 959 948 174
12 870 881 969 958 871 882 970 959 175
13 1 892 980 2 893 981 176
12 892 903 991 980 893 904 992 981 177
12 903 914 1002 991 904 915 1003 992 178
12 914 925 1013 1002 915 926 1014 1003 179
12 925 936 1024 1013 926 937 1025 1014 180
12 936 947 1035 1024 937 948 1036 1025 181
12 947 958 1046 1035 948 959 1047 1036 182
12 958 969 1057 1046 959 970 1058 1047 183
13 1 980 12 2 981 13 184
12 980 991 23 12 981 992 24 13 185
12 991 1002 34 23 992 1003 35 24 186
12 1002 1013 45 34 1003 1014 46 35 187
12 1013 1024 56 45 1014 1025 57 46 188
12 1024 1035 67 56 1025 1036 68 57 189
12 1035 1046 78 67 1036 1047 79 68 190
12 1046 1057 89 78 1047 1058 90 79 191
13 2 13 101 3 14 102 192
12 13 24 112 101 14 25 113 102 193
12 24 35 123 112 25 36 124 113 194
12 35 46 134 123 36 47 135 124 195
12 46 57 145 134 47 58 146 135 196
12 57 68 156 145 58 69 157 146 197
12 68 79 167 156 69 80 168 157 198
12 79 90 178 167 80 91 179 168 199
13 2 101 189 3 102 190 200
12 101 112 200 189 102 113 201 190 201
12 112 123 211 200 113 124 212 201 202
12 123 134 222 211 124 135 223 212 203
12 134 145 233 222 135 146 234 223 204
12 145 156 244 233 146 157 245 234 205
12 156 167 255 244 157 168 256 245 206
12 167 178 266 255 168 179 267 256 207
13 2 189 277 3 190 278 208
12 189 200 288 277 190 201 289 278 209
12 200 211 299 288 201 212 300 289 210
12 211 222 310 299 212 223 311 300 211
12 222 233 321 310 223 234 322 311 212
12 233 244 332 321 234 245 333 322 213
12 244 255 343 332 245 256 344 333 214
12 255 266 354 343 256 267 355 344 215
13 2 277 365 3 278 366 216
12 277 288 376 365 278 289 377 366 217
12 288 299 387 376 289 300 388 377 218
12 299 310 398 387 300 311 399 388 219
12 310 321 409 398 311 322 410 399 220
12 321 332 420 409 322 333 421 410 221
12 332 343 431 420 333 344 432 421 222
12 343 354 442 431 344 355 443 432 223
13 2 365 453 3 366 454 224
12 365 376 464 453 366 377 465 454 225
12 376 387 475 464 377 388 476 465 226
12 387 398 486 475 388 399 487 476 227
12 398 409 497 486 399 410 498 487 228
12 409 420 508 497 410 421 509 498 229
12 420 431 519 508 421 432 520 509 230
12 431 442 530 519 432 443 531 520 231
13 2 453 541 3 454 542 232
12 453 464 552 541 454 465 553 542 233
12 464 475 563 552 465 476 564 553 234
12 475 486 574 563 476 487 575 564 235
12 486 497 585 574 487 498 586 575 236
12 497 508 596 585 498 509 597 586 237
12 508 519 607 596 509 520 608 597 238
12 519 530 618 607 520 531 619 608 239
13 2 541 629 3 542 630 240
12 541 552 640 629 542 553 641 630 241
12 552 563 651 640 553 564 652 641 242
12 563 574 662 651 564 575 663 652 243
12 574 585 673 662 575 586 674 663 244
12 585 596 684 673 586 597 685 674 245
12 596 607 695 684 597 608 696 685 246
12 607 618 706 695 608 619 707 696 247
13 2 629 717 3 630 718 248
12 629 640 728 717 630 641 729 718 249
12 640 651 739 728 641 652 740 729 250
12 651 662 750 739 652 663 751 740 251
12 662 673 761 750 663 674 762 751 252
12 673 684 772 761 674 685 773 762 253
12 684 695 783 772 685 696 784 773 254
12 695 706 794 783 696 707 795 784 255
13 2 717 805 3 718 806 256
12 717 728 816 805 718 729 817 806 257
12 728 739 827 816 729 740 828 817 258
12 739 750 838 827 740 751 839 828 259
12 750 761 849 838 751 762 850 839 260
12 761 772 860 849 762 773 861 850 261
12 772 783 871 860 773 784 872 861 262
12 783 794 882 871 784 795 883 872 263
13 2 805 893 3 806 894 264
12 805 816 904 893 806 817 905 894 265
12 816 827 915 904 817 828 916 905 266
12 827 838 926 915 828 839 927 916 267
12 838 849 937 926 839 850 938 927 268
12 849 860 948 937 850 861 949 938 269
12 860 871 959 948 861 872 960 949 270
12 871 882 970 959 872 883 971 960 271
13 2 893 981 3 894 982 272
12 893 904 992 981 894 905 993 982 273
12 904 915 1003 992 905 916 1004 993 274
12 915 926 1014 1003 916 927 1015 1004 275
12 926 937 1025 1014 927 938 1026 1015 276
12 937 948 1036 1025 938 949 1037 1026 277
12 948 959 1047 1036 949 960 1048 1037 278
12 959 970 1058 1047 960 971 1059 1048 279
13 2 981 13 3 982 14 280
12 981 992 24 13 982 993 25 14 281
12 992 1003 35 24 993 1004 36 25 282
12 1003 1014 46 35 1004 1015 47 36 283
12 1014 1025 57 46 1015 1026 58 47 284
12 1025 1036 68 57 1026 1037 69 58 285
12 1036 1047 79 68 1037 1048 80 69 286
12 1047 1058 90 79 1048 1059 91 80 287
13 3 14 102 4 15 103 288
12 14 25 113 102 15 26 114 103 289
12 25 36 124 113 26 37 125 114 290
12 36 47 135 124 37 48 136 125 291
12 47 58 146 135 48 59 147 136 292
12 58 69 157 146 59 70 158 147 293
12 69 80 168 157 70 81 169 158 294
12 80 91 179 168 81 92 180 169 295
13 3 102 190 4 103 191 296
12 102 113 201 190 103 114 202 191 297
12 113 124 212 201 114 125 213 202 298
12 124 135 223 212 125 136 224 213 299
12 135 146 234 223 136 147 235 224 300
12 146 157 245 234 147 158 246 235 301
12 157 168 256 245 158 169 257 246 302
12 168 179 267 256 169 180 268 257 303
13 3 190 278 4 191 279 304
12 190 201 289 278 191 202 290 279 305
12 201 212 300 289 202 213 301 290 306
12 212 223 311 300 213 224 312 301 307
12 223 234 322 311 224 235 323 312 308
12 234 245 333 322 235 246 334 323 309
12 245 256 344 333 246 257 345 334 310
12 256 267 355 344 257 268 356 345 311
13 3 278 366 4 279 367 312
12 278 289 377 366 279 290 378 367 313
12 289 300 388 377 290 301 389 378 314
12 300 311 399 388 301 312 400 389 315
12 311 322 410 399 312 323 411 400 316
12 322 333 421 410 323 334 422 411 317
12 333 344 432 421 334 345 433 422 318
12 344 355 443 432 345 356 444 433 319
13 3 366 454 4 367 455 320
12 366 377 465 454 367 378 466 455 321
12 377 388 476 465 378 389 477 466 322
12 388 399 487 476 389 400 488 477 323
12 399 410 498 487 400 411 499 488 324
12 410 421 509 498 411 422 510 499 325
12 421 432 520 509 422 433 521 510 326
12 432 443 531 520 433 444 532 521 327
13 3 454 542 4 455 543 328
12 454 465 553 542 455 466 554 543 329
12 465 476 564 553 466 477 565 554 330
12 476 487 575 564 477 488 576 565 331
12 487 498 586 575 488 499 587 576 332
12 498 509 597 586 499 510 598 587 333
12 509 520 608 597 510 521 609 598 334
12 520 531 619 608 521 532 620 609 335
13 3 542 630 4 543 631 336
12 542 553 641 630 543 554 642 631 337
12 553 564 652 641 554 565 653 642 338
12 564 575 663 652 565 576 664 653 339
12 575 586 674 663 576 587 675 664 340
12 586 597 685 674 587 598 686 675 341
12 597 608 696 685 598 609 697 686 342
12 608 619 707 696 609 620 708 697 343
13 3 630 718 4 631 719 344
12 630 641 729 718 631 642 730 719 345
12 641 652 740 729 642 653 741 730 346
12 652 663 751 740 653 664 752 741 347
12 663 674 762 751 664 675 763 752 348
12 674 685 773 762 675 686 774 763 349
12 685 696 784 773 686 697 785 774 350
12 696 707 795 784 697 708 796 785 351
13 3 718 806 4 719 807 352
12 718 729 817 806 719 730 818 807 353
12 729 740 828 817 730 741 829 818 354
12 740 751 839 828 741 752 840 829 355
12 751 762 850 839 752 763 851 840 356
12 762 773 861 850 763 774 862 851 357
12 773 784 872 861 774 785 873 862 358
12 784 795 883 872 785 796 884 873 359
13 3 806 894 4 807 895 360
12 806 817 905 894 807 818 906 895 361
12 817 828 916 905 818 829 917 906 362
12 828 839 927 916 829 840 928 917 363
12 839 850 938 927 840 851 939 928 364
12 850 861 949 938 851 862 950 939 365
12 861 872 960 949 862 873 961 950 366
12 872 883 971 960 873 884 972 961 367
13 3 894 982 4 895 983 368
12 894 905 993 982 895 906 994 983 369
12 905 916 1004 993 906 917 1005 994 370
12 916 927 1015 1004 917 928 1016 1005 371
12 927 938 1026 1015 928 939 1027 1016 372
12 938 949 1037 1026 939 950 1038 1027 373
12 949 960 1048 1037 950 961 1049 1038 374
12 960 971 1059 1048 961 972 1060 1049 375
13 3 982 14 4 983 15 376
12 982 993 25 14 983 994 26 15 377
12 993 1004 36 25 994 1005 37 26 378
12 1004 1015 47 36 1005 1016 48 37 379
12 1015 1026 58 47 1016 1027 59 48 380
12 1026 1037 69 58 1027 1038 70 59 381
12 1037 1048 80 69 1038 1049 81 70 382
12 1048 1059 91 80 1049 1060 92 81 383
13 4 15 103 5 16 104 384
12 15 26 114 103 16 27 115 104 385
12 26 37 125 114 27 38 126 115 386
12 37 48 136 125 38 49 137 126 387
12 48 59 147 136 49 60 148 137 388
12 59 70 158 147 60 71 159 148 389
12 70 81 169 158 71 82 170 159 390
12 81 92 180 169 82 93 181 170 391
13 4 103 191 5 104 192 392
12 103 114 202 191 104 115 203 192 393
12 114 125 213 202 115 126 214 203 394
12 125 136 224 213 126 137 225 214 395
12 136 147 235 224 137 148 236 225 396
12 147 158 246 235 148 159 247 236 397
12 158 169 257 246 159 170 258 247 398
12 169 180 268 257 170 181 269 258 399
13 4 191 279 5 192 280 400
12 191 202 290 279 192 203 291 280 401
12 202 213 301 290 203 214 302 291 402
12 213 224 312 301 214 225 313 302 403
12 224 235 323 312 225 236 324 313 404
12 235 246 334 323 236 247 335 324 405
12 246 257 345 334 247 258 346 335 406
12 257 268 356 345 258 269 357 346 407
13 4 279 367 5 280 368 408
12 279 290 378 367 280 291 379 368 409
12 290 301 389 378 291 302 390 379 410
12 301 312 400 389 302 313 401 390 411
12 312 323 411 400 313 324 412 401 412
12 323 334 422 411 324 335 423 412 413
12 334 345 433 422 335 346 434 423 414
12 345 356 444 433 346 357 445 434 415
13 4 367 455 5 368 456 416
12 367 378 466 455 368 379 467 456 417
12 378 389 477 466 379 390 478 467 418
12 389 400 488 477 390 401 489 478 419
12 400 411 499 488 401 412 500 489 420
12 411 422 510 499 412 423 511 500 421
12 422 433 521 510 423 434 522 511 422
12 433 444 532 521 434 445 533 522 423
13 4 455 543 5 456 544 424
12 455 466 554 543 456 467 555 544 425
12 466 477 565 554 467 478 566 555 426
12 477 488 576 565 478 489 577 566 427
12 488 499 587 576 489 500 588 577 428
12 499 510 598 587 500 511 599 588 429
12 510 521 609 598 511 522 610 599 430
12 521 532 620 609 522 533 621 610 431
13 4 543 631 5 544 632 432
12 543 554 642 631 544 555 643 632 433
12 554 565 653 642 555 566 654 643 434
12 565 576 664 653 566 577 665 654 435
12 576 587 675 664 577 588 676 665 436
12 587 598 686 675 588 599 687 676 437
12 598 609 697 686 599 610 698 687 438
12 609 620 708 697 610 621 709 698 439
13 4 631 719 5 632 720 440
12 631 642 730 719 632 643 731 720 441
12 642 653 741 730 643 654 742 731 442
12 653 664 752 741 654 665 753 742 443
12 664 675 763 752 665 676 764 753 444
12 675 686 774 763 676 687 775 764 445
12 686 697 785 774 687 698 786 775 446
12 697 708 796 785 698 709 797 786 447
13 4 719 807 5 720 808 448
12 719 730 818 807 720 731 819 808 449
12 730 741 829 818 731 742 830 819 450
12 741 752 840 829 742 753 841 830 451
12 752 763 851 840 753 764 852 841 452
12 763 774 862 851 764 775 863 852 453
12 774 785 873 862 775 786 874 863 454
12 785 796 884 873 786 797 885 874 455
13 4 807 895 5 808 896 456
12 807 818 906 895 808 819 907 896 457
12 818 829 917 906 819 830 918 907 458
12 829 840 928 917 830 841 929 918 459
12 840 851 939 928 841 852 940 929 460
12 851 862 950 939 852 863 951 940 461
12 862 873 961 950 863 874 962 951 462
12 873 884 972 961 874 885 973 962 463
13 4 895 983 5 896 984 464
12 895 906 994 983 896 907 995 984 465
12 906 917 1005 994 907 918 1006 995 466
12 917 928 1016 1005 918 929 1017 1006 467
12 928 939 1027 1016 929 940 1028 1017 468
12 939 950 1038 1027 940 951 1039 1028 469
12 950 961 1049 1038 951 962 1050 1039 470
12 961 972 1060 1049 962 973 1061 1050 471
13 4 983 15 5 984 16 472
12 983 994 26 15 984 995 27 16 473
12 994 1005 37 26 995 1006 38 27 474
12 1005 1016 48 37 1006 1017 49 38 475
12 1016 1027 59 48 1017 1028 60 49 476
12 1027 1038 70 59 1028 1039 71 60 477
12 1038 1049 81 70 1039 1050 82 71 478
12 1049 1060 92 81 1050 1061 93 82 479
13 5 16 104 6 17 105 480
12 16 27 115 104 17 28 116 105 481
12 27 38 126 115 28 39 127 116 482
12 38 49 137 126 39 50 138 127 483
12 49 60 148 137 50 61 149 138 484
12 60 71 159 148 61 72 160 149 485
12 71 82 170 159 72 83 171 160 486
12 82 93 181 170 83 94 182 171 487
13 5 104 192 6 105 193 488
12 104 115 203 192 105 116 204 193 489
12 115 126 214 203 116 127 215 204 490
12 126 137 225 214 127 138 226 215 491
12 137 148 236 225 138 149 237 226 492
12 148 159 247 236 149 160 248 237 493
12 159 170 258 247 160 171 259 248 494
12 170 181 269 258 171 182 270 259 495
13 5 192 280 6 193 281 496
12 192 203 291 280 193 204 292 281 497
12 203 214 302 291 204 215 303 292 498
12 214 225 313 302 215 226 314 303 499
12 225 236 324 313 226 237 325 314 500
12 236 247 335 324 237 248 336 325 501
12 247 258 346 335 248 259 347 336 502
12 258 269 357 346 259 270 358 347 503
13 5 280 368 6 281 369 504
12 280 291 379 368 281 292 380 369 505
12 291 302 390 379 292 303 391 380 506
12 302 313 401 390 303 314 402 391 507
12 313 324 412 401 314 325 413 402 508
12 324 335 423 412 325 336 424 413 509
12 335 346 434 423 336 347 435 424 510
12 346 357 445 434 347 358 446 435 511
13 5 368 456 6 369 457 512
12 368 379 467 456 369 380 468 457 513
12 379 390 478 467 380 391 479 468 514
12 390 401 489 478 391 402 490 479 515
12 401 412 500 489 402 413 501 490 516
12 412 423 511 500 413 424 512 501 517
12 423 434 522 511 424 435 523 512 518
12 434 445 533 522 435 446 534 523 519
13 5 456 544 6 457 545 520
12 456 467 555 544 457 468 556 545 521
12 467 478 566 555 468 479 567 556 522
12 478 489 577 566 479 490 578 567 523
12 489 500 588 577 490 501 589 578 524
12 500 511 599 588 501 512 600 589 525
12 511 522 610 599 512 523 611 600 526
12 522 533 621 610 523 534 622 611 527
13 5 544 632 6 545 633 528
12 544 555 643 632 545 556 644 633 529
12 555 566 654 643 556 567 655 644 530
12 566 577 665 654 567 578 666 655 531
12 577 588 676 665 578 589 677 666 532
12 588 599 687 676 589 600 688 677 533
12 599 610 698 687 600 611 699 688 534
12 610 621 709 698 611 622 710 699 535
13 5 632 720 6 633 721 536
12 632 643 731 720 633 644 732 721 537
12 643 654 742 731 644 655 743 732 538
12 654 665 753 742 655 666 754 743 539
12 665 676 764 753 666 677 765 754 540
12 676 687 775 764 677 688 776 765 541
12 687 698 786 775 688 699 787 776 542
12 698 709 797 786 699 710 798 787 543
13 5 720 808 6 721 809 544
12 720 731 819 808 721 732 820 809 545
12 731 742 830 819 732 743 831 820 546
12 742 753 841 830 743 754 842 831 547
12 753 764 852 841 754 765 853 842 548
12 764 775 863 852 765 776 864 853 549
12 775 786 874 863 776 787 875 864 550
12 786 797 885 874 787 798 886 875 551
13 5 808 896 6 809 897 552
12 808 819 907 896 809 820 908 897 553
12 819 830 918 907 820 831 919 908 554
12 830 841 929 918 831 842 930 919 555
12 841 852 940 929 842 853 941 930 556
12 852 863 951 940 853 864 952 941 557
12 863 874 962 951 864 875 963 952 558
12 874 885 973 962 875 886 974 963 559
13 5 896 984 6 897 985 560
12 896 907 995 984 897 908 996 985 561
12 907 918 1006 995 908 919 1007 996 562
12 918 929 1017 1006 919 930 1018 1007 563
12 929 940 1028 1017 930 941 1029 1018 564
12 940 951 1039 1028 941 952 1040 1029 565
12 951 962 1050 1039 952 963 1051 1040 566
12 962 973 1061 1050 963 974 1062 1051 567
13 5 984 16 6 985 17 568
12 984 995 27 16 985 996 28 17 569
12 995 1006 38 27 996 1007 39 28 570
12 1006 1017 49 38 1007 1018 50 39 571
12 1017 1028 60 49 1018 1029 61 50 572
12 1028 1039 71 60 1029 1040 72 61 573
12 1039 1050 82 71 1040 1051 83 72 574
12 1050 1061 93 82 1051 1062 94 83 575
13 6 17 105 7 18 106 576
12 17 28 116 105 18 29 117 106 577
12 28 39 127 116 29 40 128 117 578
12 39 50 138 127 40 51 139 128 579
12 50 61 149 138 51 62 150 139 580
12 61 72 160 149 62 73 161 150 581
12 72 83 171 160 73 84 172 161 582
12 83 94 182 171 84 95 183 172 583
13 6 105 193 7 106 194 584
12 105 116 204 193 106 117 205 194 585
12 116 127 215 204 117 128 216 205 586
12 127 138 226 215 128 139 227 216 587
12 138 149 237 226 139 150 238 227 588
12 149 160 248 237 150 161 249 238 589
12 160 171 259 248 161 172 260 249 590
12 171 182 270 259 172 183 271 260 591
13 6 193 281 7 194 282 592
12 193 204 292 281 194 205 293 282 593
12 204 215 303 292 205 216 304 293 594
12 215 226 314 303 216 227 315 304 595
12 226 237 325 314 227 238 326 315 596
12 237 248 336 325 238 249 337 326 597
12 248 259 347 336 249 260 348 337 598
12 259 270 358 347 260 271 359 348 599
13 6 281 369 7 282 370 600
12 281 292 380 369 282 293 381 370 601
12 292 303 391 380 293 304 392 381 602
12 303 314 402 391 304 315 403 392 603
12 314 325 413 402 315 326 414 403 604
12 325 336 424 413 326 337 425 414 605
12 336 347 435 424 337 348 436 425 606
12 347 358 446 435 348 359 447 436 607
13 6 369 457 7 370 458 608
12 369 380 468 457 370 381 469 458 609
12 380 391 479 468 381 392 480 469 610
12 391 402 490 479 392 403 491 480 611
12 402 413 501 490 403 414 502 491 612
12 413 424 512 501 414 425 513 502 613
12 424 435 523 512 425 436 524 513 614
12 435 446 534 523 436 447 535 524 615
13 6 457 545 7 458 546 616
12 457 468 556 545 458 469 557 546 617
12 468 479 567 556 469 480 568 557 618
12 479 490 578 567 480 491 579 568 619
12 490 501 589 578 491 502 590 579 620
12 501 512 600 589 502 513 601 590 621
12 512 523 611 600 513 524 612 601 622
12 523 534 622 611 524 535 623 612 623
13 6 545 633 7 546 634 624
12 545 556 644 633 546 557 645 634 625
12 556 567 655 644 557 568 656 645 626
12 567 578 666 655 568 579 667 656 627
12 578 589 677 666 579 590 678 667 628
12 589 600 688 677 590 601 689 678 629
12 600 611 699 688 601 612 700 689 630
12 611 622 710 699 612 623 711 700 631
13 6 633 721 7 634 722 632
12 633 644 732 721 634 645 733 722 633
12 644 655 743 732 645 656 744 733 634
12 655 666 754 743 656 667 755 744 635
12 666 677 765 754 667 678 766 755 636
12 677 688 776 765 678 689 777 766 637
12 688 699 787 776 689 700 788 777 638
12 699 710 798 787 700 711 799 788 639
13 6 721 809 7 722 810 640
12 721 732 820 809 722 733 821 810 641
12 732 743 831 820 733 744 832 821 642
12 743 754 842 831 744 755 843 832 643
12 754 765 853 842 755 766 854 843 644
12 765 776 864 853 766 777 865 854 645
12 776 787 875 864 777 788 876 865 646
12 787 798 886 875 788 799 887 876 647
13 6 809 897 7 810 898 648
12 809 820 908 897 810 821 909 898 649
12 820 831 919 908 821 832 920 909 650
12 831 842 930 919 832 843 931 920 651
12 842 853 941 930 843 854 942 931 652
12 853 864 952 941 854 865 953 942 653
12 864 875 963 952 865 876 964 953 654
12 875 886 974 963 876 887 975 964 655
13 6 897 985 7 898 986 656
12 897 908 996 985 898 909 997 986 657
12 908 919 1007 996 909 920 1008 997 658
12 919 930 1018 1007 920 931 1019 1008 659
12 930 941 1029 1018 931 942 1030 1019 660
12 941 952 1040 1029 942 953 1041 1030 661
12 952 963 1051 1040 953 964 1052 1041 662
12 963 974 1062 1051 964 975 1063 1052 663
13 6 985 17 7 986 18 664
12 985 996 28 17 986 997 29 18 665
12 996 1007 39 28 997 1008 40 29 666
12 1007 1018 50 39 1008 1019 51 40 667
12 1018 1029 61 50 1019 1030 62 51 668
12 1029 1040 72 61 1030 1041 73 62 669
12 1040 1051 83 72 1041 1052 84 73 670
12 1051 1062 94 83 1052 1063 95 84 671
13 7 18 106 8 19 107 672
12 18 29 117 106 19 30 118 107 673
12 29 40 128 117 30 41 129 118 674
12 40 51 139 128 41 52 140 129 675
12 51 62 150 139 52 63 151 140 676
12 62 73 161 150 63 74 162 151 677
12 73 84 172 161 74 85 173 162 678
12 84 95 183 172 85 96 184 173 679
13 7 106 194 8 107 195 680
12 106 117 205 194 107 118 206 195 681
12 117 128 216 205 118 129 217 206 682
12 128 139 227 216 129 140 228 217 683
12 139 150 238 227 140 151 239 228 684
12 150 161 249 238 151 162 250 239 685
12 161 172 260 249 162 173 261 250 686
12 172 183 271 260 173 184 272 261 687
13 7 194 282 8 195 283 688
12 194 205 293 282 195 206 294 283 689
12 205 216 304 293 206 217 305 294 690
12 216 227 315 304 217 228 316 305 691
12 227 238 326 315 228 239 327 316 692
12 238 249 337 326 239 250 338 327 693
12 249 260 348 337 250 261 349 338 694
12 260 271 359 348 261 272 360 349 695
13 7 282 370 8 283 371 696
12 282 293 381 370 283 294 382 371 697
12 293 304 392 381 294 305 393 382 698
12 304 315 403 392 305 316 404 393 699
12 315 326 414 403 316 327 415 404 700
12 326 337 425 414 327 338 426 415 701
12 337 348 436 425 338 349 437 426 702
12 348 359 447 436 349 360 448 437 703
13 7 370 458 8 371 459 704
12 370 381 469 458 371 382 470 459 705
12 381 392 480 469 382 393 481 470 706
12 392 403 491 480 393 404 492 481 707
12 403 414 502 491 404 415 503 492 708
12 414 425 513 502 415 426 514 503 709
12 425 436 524 513 426 437 525 514 710
12 436 447 535 524 437 448 536 525 711
13 7 458 546 8 459 547 712
12 458 469 557 546 459 470 558 547 713
12 469 480 568 557 470 481 569 558 714
12 480 491 579 568 481 492 580 569 715
12 491 502 590 579 492 503 591 580 716
12 502 513 601 590 503 514 602 591 717
12 513 524 612 601 514 525 613 602 718
12 524 535 623 612 525 536 624 613 719
13 7 546 634 8 547 635 720
12 546 557 645 634 547 558 646 635 721
12 557 568 656 645 558 569 657 646 722
12 568 579 667 656 569 580 668 657 723
12 579 590 678 667 580 591 679 668 724
12 590 601 689 678 591 602 690 679 725
12 601 612 700 689 602 613 701 690 726
12 612 623 711 700 613 624 712 701 727
13 7 634 722 8 635 723 728
12 634 645 733 722 635 646 734 723 729
12 645 656 744 733 646 657 745 734 730
12 656 667 755 744 657 668 756 745 731
12 667 678 766 755 668 679 767 756 732
12 678 689 777 766 679 690 778 767 733
12 689 700 788 777 690 701 789 778 734
12 700 711 799 788 701 712 800 789 735
13 7 722 810 8 723 811 736
12 722 733 821 810 723 734 822 811 737
12 733 744 832 821 734 745 833 822 738
12 744 755 843 832 745 756 844 833 739
12 755 766 854 843 756 767 855 844 740
12 766 777 865 854 767 778 866 855 741
12 777 788 876 865 778 789 877 866 742
12 788 799 887 876 789 800 888 877 743
13 7 810 898 8 811 899 744
12 810 821 909 898 811 822 910 899 745
12 821 832 920 909 822 833 921 910 746
12 832 843 931 920 833 844 932 921 747
12 843 854 942 931 844 855 943 932 748
12 854 865 953 942 855 866 954 943 749
12 865 876 964 953 866 877 965 954 750
12 876 887 975 964 877 888 976 965 751
13 7 898 986 8 899 987 752
12 898 909 997 986 899 910 998 987 753
12 909 920 1008 997 910 921 1009 998 754
12 920 931 1019 1008 921 932 1020 1009 755
12 931 942 1030 1019 932 943 1031 1020 756
12 942 953 1041 1030 943 954 1042 1031 757
12 953 964 1052 1041 954 965 1053 1042 758
12 964 975 1063 1052 965 976 1064 1053 759
13 7 986 18 8 987 19 760
12 986 997 29 18 987 998 30 19 761
12 997 1008 40 29 998 1009 41 30 762
12 1008 1019 51 40 1009 1020 52 41 763
12 1019 1030 62 51 1020 1031 63 52 764
12 1030 1041 73 62 1031 1042 74 63 765
12 1041 1052 84 73 1042 1053 85 74 766
12 1052 1063 95 84 1053 1064 96 85 767
13 8 19 107 9 20 108 768
12 19 30 118 107 20 31 119 108 769
12 30 41 129 118 31 42 130 119 770
12 41 52 140 129 42 53 141 130 771
12 52 63 151 140 53 64 152 141 772
12 63 74 162 151 64 75 163 152 773
12 74 85 173 162 75 86 174 163 774
12 85 96 184 173 86 97 185 174 775
13 8 107 195 9 108 196 776
12 107 118 206 195 108 119 207 196 777
12 118 129 217 206 119 130 218 207 778
12 129 140 228 217 130 141 229 218 779
12 140 151 239 228 141 152 240 229 780
12 151 162 250 239 152 163 251 240 781
12 162 173 261 250 163 174 262 251 782
12 173 184 272 261 174 185 273 262 783
13 8 195 283 9 196 284 784
12 195 206 294 283 196 207 295 284 785
12 206 217 305 294 207 218 306 295 786
12 217 228 316 305 218 229 317 306 787
12 228 239 327 316 229 240 328 317 788
12 239 250 338 327 240 251 339 328 789
12 250 261 349 338 251 262 350 339 790
12 261 272 360 349 262 273 361 350 791
13 8 283 371 9 284 372 792
12 283 294 382 371 284 295 383 372 793
12 294 305 393 382 295 306 394 383 794
12 305 316 404 393 306 317 405 394 795
12 316 327 415 404 317 328 416 405 796
12 327 338 426 415 328 339 427 416 797
12 338 349 437 426 339 350 438 427 798
12 349 360 448 437 350 361 449 438 799
13 8 371 459 9 372 460 800
12 371 382 470 459 372 383 471 460 801
12 382 393 481 470 383 394 482 471 802
12 393 404 492 481 394 405 493 482 803
12 404 415 503 492 405 416 504 493 804
12 415 426 514 503 416 427 515 504 805
12 426 437 525 514 427 438 526 515 806
12 437 448 536 525 438 449 537 526 807
13 8 459 547 9 460 548 808
12 459 470 558 547 460 471 559 548 809
12 470 481 569 558 471 482 570 559 810
12 481 492 580 569 482 493 581 570 811
12 492 503 591 580 493 504 592 581 812
12 503 514 602 591 504 515 603 592 813
12 514 525 613 602 515 526 614 603 814
12 525 536 624 613 526 537 625 614 815
13 8 547 635 9 548 636 816
12 547 558 646 635 548 559 647 636 817
12 558 569 657 646 559 570 658 647 818
12 569 580 668 657 570 581 669 658 819
12 580 591 679 668 581 592 680 669 820
12 591 602 690 679 592 603 691 680 821
12 602 613 701 690 603 614 702 691 822
12 613 624 712 701 614 625 713 702 823
13 8 635 723 9 636 724 824
12 635 646 734 723 636 647 735 724 825
12 646 657 745 734 647 658 746 735 826
12 657 668 756 745 658 669 757 746 827
12 668 679 767 756 669 680 768 757 828
12 679 690 778 767 680 691 779 768 829
12 690 701 789 778 691 702 790 779 830
12 701 712 800 789 702 713 801 790 831
13 8 723 811 9 724 812 832
12 723 734 822 811 724 735 823 812 833
12 734 745 833 822 735 746 834 823 834
12 745 756 844 833 746 757 845 834 835
12 756 767 855 844 757 768 856 845 836
12 767 778 866 855 768 779 867 856 837
12 778 789 877 866 779 790 878 867 838
12 789 800 888 877 790 801 889 878 839
13 8 811 899 9 812 900 840
12 811 822 910 899 812 823 911 900 841
12 822 833 921 910 823 834 922 911 842
12 833 844 932 921 834 845 933 922 843
12 844 855 943 932 845 856 944 933 844
12 855 866 954 943 856 867 955 944 845
12 866 877 965 954 867 878 966 955 846
12 877 888 976 965 878 889 977 966 847
13 8 899 987 9 900 988 848
12 899 910 998 987 900 911 999 988 849
12 910 921 1009 998 911 922 1010 999 850
12 921 932 1020 1009 922 933 1021 1010 851
12 932 943 1031 1020 933 944 1032 1021 852
12 943 954 1042 1031 944 955 1043 1032 853
12 954 965 1053 1042 955 966 1054 1043 854
12 965 976 1064 1053 966 977 1065 1054 855
13 8 987 19 9 988 20 856
12 987 998 30 19 988 999 31 20 857
12 998 1009 41 30 999 1010 42 31 858
12 1009 1020 52 41 1010 1021 53 42 859
12 1020 1031 63 52 1021 1032 64 53 860
12 1031 1042 74 63 1032 1043 75 64 861
12 1042 1053 85 74 1043 1054 86 75 862
12 1053 1064 96 85 1054 1065 97 86 863
13 9 20 108 10 21 109 864
12 20 31 119 108 21 32 120 109 865
12 31 42 130 119 32 43 131 120 866
12 42 53 141 130 43 54 142 131 867
12 53 64 152 141 54 65 153 142 868
12 64 75 163 152 65 76 164 153 869
12 75 86 174 163 76 87 175 164 870
12 86 97 185 174 87 98 186 175 871
13 9 108 196 10 109 197 872
12 108 119 207 196 109 120 208 197 873
12 119 130 218 207 120 131 219 208 874
12 130 141 229 218 131 142 230 219 875
12 141 152 240 229 142 153 241 230 876
12 152 163 251 240 153 164 252 241 877
12 163 174 262 251 164 175 263 252 878
12 174 185 273 262 175 186 274 263 879
13 9 196 284 10 197 285 880
12 196 207 295 284 197 208 296 285 881
12 207 218 306 295 208 219 307 296 882
12 218 229 317 306 219 230 318 307 883
12 229 240 328 317 230 241 329 318 884
12 240 251 339 328 241 252 340 329 885
12 251 262 350 339 252 263 351 340 886
12 262 273 361 350 263 274 362 351 887
13 9 284 372 10 285 373 888
12 284 295 383 372 285 296 384 373 889
12 295 306 394 383 296 307 395 384 890
12 306 317 405 394 307 318 406 395 891
12 317 328 416 405 318 329 417 406 892
12 328 339 427 416 329 340 428 417 893
12 339 350 438 427 340 351 439 428 894
12 350 361 449 438 351 362 450 439 895
13 9 372 460 10 373 461 896
12 372 383 471 460 373 384 472 461 897
12 383 394 482 471 384 395 483 472 898
12 394 405 493 482 395 406 494 483 899
12 405 416 504 493 406 417 505 494 900
12 416 427 515 504 417 428 516 505 901
12 427 438 526 515 428 439 527 516 902
12 438 449 537 526 439 450 538 527 903
13 9 460 548 10 461 549 904
12 460 471 559 548 461 472 560 549 905
12 471 482 570 559 472 483 571 560 906
12 482 493 581 570 483 494 582 571 907
12 493 504 592 581 494 505 593 582 908
12 504 515 603 592 505 516 604 593 909
12 515 526 614 603 516 527 615 604 910
12 526 537 625 614 527 538 626 615 911
13 9 548 636 10 549 637 912
12 548 559 647 636 549 560 648 637 913
12 559 570 658 647 560 571 659 648 914
12 570 581 669 658 571 582 670 659 915
12 581 592 680 669 582 593 681 670 916
12 592 603 691 680 593 604 692 681 917
12 603 614 702 691 604 615 703 692 918
12 614 625 713 702 615 626 714 703 919
13 9 636 724 10 637 725 920
12 636 647 735 724 637 648 736 725 921
12 647 658 746 735 648 659 747 736 922
12 658 669 757 746 659 670 758 747 923
12 669 680 768 757 670 681 769 758 924
12 680 691 779 768 681 692 780 769 925
12 691 702 790 779 692 703 791 780 926
12 702 713 801 790 703 714 802 791 927
13 9 724 812 10 725 813 928
12 724 735 823 812 725 736 824 813 929
12 735 746 834 823 736 747 835 824 930
12 746 757 845 834 747 758 846 835 931
12 757 768 856 845 758 769 857 846 932
12 768 779 867 856 769 780 868 857 933
12 779 790 878 867 780 791 879 868 934
12 790 801 889 878 791 802 890 879 935
13 9 812 900 10 813 901 936
12 812 823 911 900 813 824 912 901 937
12 823 834 922 911 824 835 923 912 938
12 834 845 933 922 835 846 934 923 939
12 845 856 944 933 846 857 945 934 940
12 856 867 955 944 857 868 956 945 941
12 867 878 966 955 868 879 967 956 942
12 878 889 977 966 879 890 978 967 943
13 9 900 988 10 901 989 944
12 900 911 999 988 901 912 1000 989 945
12 911 922 1010 999 912 923 1011 1000 946
12 922 933 1021 1010 923 934 1022 1011 947
12 933 944 1032 1021 934 945 1033 1022 948
12 944 955 1043 1032 945 956 1044 1033 949
12 955 966 1054 1043 956 967 1055 1044 950
12 966 977 1065 1054 967 978 1066 1055 951
13 9 988 20 10 989 21 952
12 988 999 31 20 989 1000 32 21 953
12 999 1010 42 31 1000 1011 43 32 954
12 1010 1021 53 42 1011 1022 54 43 955
12 1021 1032 64 53 1022 1033 65 54 956
12 1032 1043 75 64 1033 1044 76 65 957
12 1043 1054 86 75 1044 1055 87 76 958
12 1054 1065 97 86 1055 1066 98 87 959
NPOIN= 1067
0 0 0 0
0 0 0.20000000000000001 1
0 0 0.40000000000000002 2
0 0 0.59999999999999998 3
0 0 0.80000000000000004 4
0 0 1 5
0 0 1.2 6
0 0 1.3999999999999999 7
0 0 1.6000000000000001 8
0 0 1.8 9
0 0 2 10
0.125 0 0 11
0.125 0 0.20000000000000001 12
0.125 0 0.40000000000000002 13
0.125 0 0.59999999999999998 14
0.125 0 0.80000000000000004 15
0.125 0 1 16
0.125 0 1.2 17
0.125 0 1.3999999999999999 18
0.125 0 1.6000000000000001 19
0.125 0 1.8 20
0.125 0 2 21
0.25 0 0 22
0.25 0 0.20000000000000001 23
0.25 0 0.40000000000000002 24
0.25 0 0.59999999999999998 25
0.25 0 0.80000000000000004 26
0.25 0 1 27
0.25 0 1.2 28
0.25 0 1.3999999999999999 29
0.25 0 1.6000000000000001 30
0.25 0 1.8 31
0.25 0 2 32
0.375 0 0 33
0.375 0 0.20000000000000001 34
0.375 0 0.40000000000000002 35
0.375 0 0.59999999999999998 36
0.375 0 0.80000000000000004 37
0.375 0 1 38
0.375 0 1.2 39
0.375 0 1.3999999999999999 40
0.375 0 1.6000000000000001 41
0.375 0 1.8 42
0.375 0 2 43
0.5 0 0 44
0.5 0 0.20000000000000001 45
0.5 0 0.40000000000000002 46
0.5 0 0.59999999999999998 47
0.5 0 0.80000000000000004 48
0.5 0 1 49
0.5 0 1.2 50
0.5 0 1.3999999999999999 51
0.5 0 1.6000000000000001 52
0.5 0 1.8 53
0.5 0 2 54
0.625 0 0 55
0.625 0 0.20000000000000001 56
0.625 0 0.40000000000000002 57
0.625 0 0.59999999999999998 58
0.625 0 0.80000000000000004 59
0.625 0 1 60
0.625 0 1.2 61
0.625 0 1.3999999999999999 62
0.625 0 1.6000000000000001 63
0.625 0 1.8 64
0.625 0 2 65
0.75 0 0 66
0.75 0 0.20000000000000001 67
0.75 0 0.40000000000000002 68
0.75 0 0.59999999999999998 69
0.75 0 0.80000000000000004 70
0.75 0 1 71
0.75 0 1.2 72
0.75 0 1.3999999999999999 73
0.75 0 1.6000000000000001 74
0.75 0 1.8 75
0.75 0 2 76
0.875 0 0 77
0.875 0 0.20000000000000001 78
0.875 0 0.40000000000000002 79
0.875 0 0.59999999999999998 80
0.875 0 0.80000000000000004 81
0.875 0 1 82
0.875 0 1.2 83
0.875 0 1.3999999999999999 84
0.875 0 1.6000000000000001 85
0.875 0 1.8 86
0.875 0 2 87
1 0 0 88
1 0 0.20000000000000001 89
1 0 0.40000000000000002 90
1 0 0.59999999999999998 91
1 0 0.80000000000000004 92
1 0 1 93
1 0 1.2 94
1 0 1.3999999999999999 95
1 0 1.6000000000000001 96
1 0 1.8 97
1 0 2 98
0.10825317547305484 0.062499999999999993 0 99
0.10825317547305484 0.062499999999999993 0.20000000000000001 100
0.10825317547305484 0.062499999999999993 0.40000000000000002 101
0.10825317547305484 0.062499999999999993 0.59999999999999998 102
0.10825317547305484 0.062499999999999993 0.80000000000000004 103
0.10825317547305484 0.062499999999999993 1 104
0.10825317547305484 0.062499999999999993 1.2 105
0.10825317547305484 0.062499999999999993 1.3999999999999999 106
0.10825317547305484 0.062499999999999993 1.6000000000000001 107
0.10825317547305484 0.062499999999999993 1.8 108
0.10825317547305484 0.062499999999999993 2 109
0.21650635094610968 0.12499999999999999 0 110
0.21650635094610968 0.12499999999999999 0.20000000000000001 111
0.21650635094610968 0.12499999999999999 0.40000000000000002 112
0.21650635094610968 0.12499999999999999 0.59999999999999998 113
0.21650635094610968 0.12499999999999999 0.80000000000000004 114
0.21650635094610968 0.12499999999999999 1 115
0.21650635094610968 0.12499999999999999 1.2 116
0.21650635094610968 0.12499999999999999 1.3999999999999999 117
0.21650635094610968 0.12499999999999999 1.6000000000000001 118
0.21650635094610968 0.12499999999999999 1.8 119
0.21650635094610968 0.12499999999999999 2 120
0.3247595264191645 0.18749999999999997 0 121
0.3247595264191645 0.18749999999999997 0.20000000000000001 122
0.3247595264191645 0.18749999999999997 0.40000000000000002 123
0.3247595264191645 0.18749999999999997 0.59999999999999998 124
0.3247595264191645 0.18749999999999997 0.80000000000000004 125
0.3247595264191645 0.18749999999999997 1 126
0.3247595264191645 0.18749999999999997 1.2 127
0.3247595264191645 0.18749999999999997 1.3999999999999999 128
0.3247595264191645 0.18749999999999997 1.6000000000000001 129
0.3247595264191645 0.18749999999999997 1.8 130
0.3247595264191645 0.18749999999999997 2 131
0.43301270189221935 0.24999999999999997 0 132
0.43301270189221935 0.24999999999999997 0.20000000000000001 133
0.43301270189221935 0.24999999999999997 0.40000000000000002 134
0.43301270189221935 0.24999999999999997 0.59999999999999998 135
0.43301270189221935 0.24999999999999997 0.80000000000000004 136
0.43301270189221935 0.24999999999999997 1 137
0.43301270189221935 0.24999999999999997 1.2 138
0.43301270189221935 0.24999999999999997 1.3999999999999999 139
0.43301270189221935 0.24999999999999997 1.6000000000000001 140
0.43301270189221935 0.24999999999999997 1.8 141
0.43301270189221935 0.24999999999999997 2 142
0.54126587736527421 0.31249999999999994 0 143
0.54126587736527421 0.31249999999999994 0.20000000000000001 144
0.54126587736527421 0.31249999999999994 0.40000000000000002 145
0.54126587736527421 0.31249999999999994 0.59999999999999998 146
0.54126587736527421 0.31249999999999994 0.80000000000000004 147
0.54126587736527421 0.31249999999999994 1 148
0.54126587736527421 0.31249999999999994 1.2 149
0.54126587736527421 0.31249999999999994 1.3999999999999999 150
0.54126587736527421 0.31249999999999994 1.6000000000000001 151
0.54126587736527421 0.31249999999999994 1.8 152
0.54126587736527421 0.31249999999999994 2 153
0.649519052838329 0.37499999999999994 0 154
0.649519052838329 0.37499999999999994 0.20000000000000001 155
0.649519052838329 0.37499999999999994 0.40000000000000002 156
0.649519052838329 0.37499999999999994 0.59999999999999998 157
0.649519052838329 0.37499999999999994 0.80000000000000004 158
0.649519052838329 0.37499999999999994 1 159
0.649519052838329 0.37499999999999994 1.2 160
0.649519052838329 0.37499999999999994 1.3999999999999999 161
0.649519052838329 0.37499999999999994 1.6000000000000001 162
0.649519052838329 0.37499999999999994 1.8 163
0.649519052838329 0.37499999999999994 2 164
0.75777222831138391 0.43749999999999994 0 165
0.75777222831138391 0.43749999999999994 0.20000000000000001 166
0.75777222831138391 0.43749999999999994 0.40000000000000002 167
0.75777222831138391 0.43749999999999994 0.59999999999999998 168
0.75777222831138391 0.43749999999999994 0.80000000000000004 169
0.75777222831138391 0.43749999999999994 1 170
0.75777222831138391 0.43749999999999994 1.2 171
0.75777222831138391 0.43749999999999994 1.3999999999999999 172
0.75777222831138391 0.43749999999999994 1.6000000000000001 173
0.75777222831138391 0.43749999999999994 1.8 174
0.75777222831138391 0.43749999999999994 2 175
0.86602540378443871 0.49999999999999994 0 176
0.86602540378443871 0.49999999999999994 0.20000000000000001 177
0.86602540378443871 0.49999999999999994 0.40000000000000002 178
0.86602540378443871 0.49999999999999994 0.59999999999999998 179
0.86602540378443871 0.49999999999999994 0.80000000000000004 180
0.86602540378443871 0.49999999999999994 1 181
0.86602540378443871 0.49999999999999994 1.2 182
0.86602540378443871 0.49999999999999994 1.3999999999999999 183
0.86602540378443871 0.49999999999999994 1.6000000000000001 184
0.86602540378443871 0.49999999999999994 1.8 185
0.86602540378443871 0.49999999999999994 2 186
0.062500000000000014 0.10825317547305482 0 187
0.062500000000000014 0.10825317547305482 0.20000000000000001 188
0.062500000000000014 0.10825317547305482 0.40000000000000002 189
0.062500000000000014 0.10825317547305482 0.59999999999999998 190
0.062500000000000014 0.10825317547305482 0.80000000000000004 191
0.062500000000000014 0.10825317547305482 1 192
0.062500000000000014 0.10825317547305482 1.2 193
0.062500000000000014 0.10825317547305482 1.3999999999999999 194
0.062500000000000014 0.10825317547305482 1.6000000000000001 195
0.062500000000000014 0.10825317547305482 1.8 196
0.062500000000000014 0.10825317547305482 2 197
0.12500000000000003 0.21650635094610965 0 198
0.12500000000000003 0.21650635094610965 0.20000000000000001 199
0.12500000000000003 0.21650635094610965 0.40000000000000002 200
0.12500000000000003 0.21650635094610965 0.59999999999999998 201
0.12500000000000003 0.21650635094610965 0.80000000000000004 202
0.12500000000000003 0.21650635094610965 1 203
0.12500000000000003 0.21650635094610965 1.2 204
0.12500000000000003 0.21650635094610965 1.3999999999999999 205
0.12500000000000003 0.21650635094610965 1.6000000000000001 206
0.12500000000000003 0.21650635094610965 1.8 207
0.12500000000000003 0.21650635094610965 2 208
0.18750000000000006 0.3247595264191645 0 209
0.18750000000000006 0.3247595264191645 0.20000000000000001 210
0.18750000000000006 0.3247595264191645 0.40000000000000002 211
0.18750000000000006 0.3247595264191645 0.59999999999999998 212
0.18750000000000006 0.3247595264191645 0.80000000000000004 213
0.18750000000000006 0.3247595264191645 1 214
0.18750000000000006 0.3247595264191645 1.2 215
0.18750000000000006 0.3247595264191645 1.3999999999999999 216
0.18750000000000006 0.3247595264191645 1.6000000000000001 217
0.18750000000000006 0.3247595264191645 1.8 218
0.18750000000000006 0.3247595264191645 2 219
0.25000000000000006 0.4330127018922193 0 220
0.25000000000000006 0.4330127018922193 0.20000000000000001 221
0.25000000000000006 0.4330127018922193 0.40000000000000002 222
0.25000000000000006 0.4330127018922193 0.59999999999999998 223
0.25000000000000006 0.4330127018922193 0.80000000000000004 224
0.25000000000000006 0.4330127018922193 1 225
0.25000000000000006 0.4330127018922193 1.2 226
0.25000000000000006 0.4330127018922193 1.3999999999999999 227
0.25000000000000006 0.4330127018922193 1.6000000000000001 228
0.25000000000000006 0.4330127018922193 1.8 229
0.25000000000000006 0.4330127018922193 2 230
0.31250000000000006 0.5412658773652741 0 231
0.31250000000000006 0.5412658773652741 0.20000000000000001 232
0.31250000000000006 0.5412658773652741 0.40000000000000002 233
0.31250000000000006 0.5412658773652741 0.59999999999999998 234
0.31250000000000006 0.5412658773652741 0.80000000000000004 235
0.31250000000000006 0.5412658773652741 1 236
0.31250000000000006 0.5412658773652741 1.2 237
0.31250000000000006 0.5412658773652741 1.3999999999999999 238
0.31250000000000006 0.5412658773652741 1.6000000000000001 239
0.31250000000000006 0.5412658773652741 1.8 240
0.31250000000000006 0.5412658773652741 2 241
0.37500000000000011 0.649519052838329 0 242
0.37500000000000011 0.649519052838329 0.20000000000000001 243
0.37500000000000011 0.649519052838329 0.40000000000000002 244
0.37500000000000011 0.649519052838329 0.59999999999999998 245
0.37500000000000011 0.649519052838329 0.80000000000000004 246
0.37500000000000011 0.649519052838329 1 247
0.37500000000000011 0.649519052838329 1.2 248
0.37500000000000011 0.649519052838329 1.3999999999999999 249
0.37500000000000011 0.649519052838329 1.6000000000000001 250
0.37500000000000011 0.649519052838329 1.8 251
0.37500000000000011 0.649519052838329 2 252
0.43750000000000011 0.7577722283113838 0 253
0.43750000000000011 0.7577722283113838 0.20000000000000001 254
0.43750000000000011 0.7577722283113838 0.40000000000000002 255
0.43750000000000011 0.7577722283113838 0.59999999999999998 256
0.43750000000000011 0.7577722283113838 0.80000000000000004 257
0.43750000000000011 0.7577722283113838 1 258
0.43750000000000011 0.7577722283113838 1.2 259
0.43750000000000011 0.7577722283113838 1.3999999999999999 260
0.43750000000000011 0.7577722283113838 1.6000000000000001 261
0.43750000000000011 0.7577722283113838 1.8 262
0.43750000000000011 0.7577722283113838 2 263
0.50000000000000011 0.8660254037844386 0 264
0.50000000000000011 0.8660254037844386 0.20000000000000001 265
0.50000000000000011 0.8660254037844386 0.40000000000000002 266
0.50000000000000011 0.8660254037844386 0.59999999999999998 267
0.50000000000000011 0.8660254037844386 0.80000000000000004 268
0.50000000000000011 0.8660254037844386 1 269
0.50000000000000011 0.8660254037844386 1.2 270
0.50000000000000011 0.8660254037844386 1.3999999999999999 271
0.50000000000000011 0.8660254037844386 1.6000000000000001 272
0.50000000000000011 0.8660254037844386 1.8 273
0.50000000000000011 0.8660254037844386 2 274
7.6540424946709575e-18 0.125 0 275
7.6540424946709575e-18 0.125 0.20000000000000001 276
7.6540424946709575e-18 0.125 0.40000000000000002 277
7.6540424946709575e-18 0.125 0.59999999999999998 278
7.6540424946709575e-18 0.125 0.80000000000000004 279
7.6540424946709575e-18 0.125 1 280
7.6540424946709575e-18 0.125 1.2 281
7.6540424946709575e-18 0.125 1.3999999999999999 282
7.6540424946709575e-18 0.125 1.6000000000000001 283
7.6540424946709575e-18 0.125 1.8 284
7.6540424946709575e-18 0.125 2 285
1.5308084989341915e-17 0.25 0 286
1.5308084989341915e-17 0.25 0.20000000000000001 287
1.5308084989341915e-17 0.25 0.40000000000000002 288
1.5308084989341915e-17 0.25 0.59999999999999998 289
1.5308084989341915e-17 0.25 0.80000000000000004 290
1.5308084989341915e-17 0.25 1 291
1.5308084989341915e-17 0.25 1.2 292
1.5308084989341915e-17 0.25 1.3999999999999999 293
1.5308084989341915e-17 0.25 1.6000000000000001 294
1.5308084989341915e-17 0.25 1.8 295
1.5308084989341915e-17 0.25 2 296
2.2962127484012871e-17 0.375 0 297
2.2962127484012871e-17 0.375 0.20000000000000001 298
2.2962127484012871e-17 0.375 0.40000000000000002 299
2.2962127484012871e-17 0.375 0.59999999999999998 300
2.2962127484012871e-17 0.375 0.80000000000000004 301
2.2962127484012871e-17 0.375 1 302
2.2962127484012871e-17 0.375 1.2 303
2.2962127484012871e-17 0.375 1.3999999999999999 304
2.2962127484012871e-17 0.375 1.6000000000000001 305
2.2962127484012871e-17 0.375 1.8 306
2.2962127484012871e-17 0.375 2 307
3.061616997868383e-17 0.5 0 308
3.061616997868383e-17 0.5 0.20000000000000001 309
3.061616997868383e-17 0.5 0.40000000000000002 310
3.061616997868383e-17 0.5 0.59999999999999998 311
3.061616997868383e-17 0.5 0.80000000000000004 312
3.061616997868383e-17 0.5 1 313
3.061616997868383e-17 0.5 1.2 314
3.061616997868383e-17 0.5 1.3999999999999999 315
3.061616997868383e-17 0.5 1.6000000000000001 316
3.061616997868383e-17 0.5 1.8 317
3.061616997868383e-17 0.5 2 318
3.8270212473354789e-17 0.625 0 319
3.8270212473354789e-17 0.625 0.20000000000000001 320
3.8270212473354789e-17 0.625 0.40000000000000002 321
3.8270212473354789e-17 0.625 0.59999999999999998 322
3.8270212473354789e-17 0.625 0.80000000000000004 323
3.8270212473354789e-17 0.625 1 324
3.8270212473354789e-17 0.625 1.2 325
3.8270212473354789e-17 0.625 1.3999999999999999 326
3.8270212473354789e-17 0.625 1.6000000000000001 327
3.8270212473354789e-17 0.625 1.8 328
3.8270212473354789e-17 0.625 2 329
4.5924254968025742e-17 0.75 0 330
4.5924254968025742e-17 0.75 0.20000000000000001 331
4.5924254968025742e-17 0.75 0.40000000000000002 332
4.5924254968025742e-17 0.75 0.59999999999999998 333
4.5924254968025742e-17 0.75 0.80000000000000004 334
4.5924254968025742e-17 0.75 1 335
4.5924254968025742e-17 0.75 1.2 336
4.5924254968025742e-17 0.75 1.3999999999999999 337
4.5924254968025742e-17 0.75 1.6000000000000001 338
4.5924254968025742e-17 0.75 1.8 339
4.5924254968025742e-17 0.75 2 340
5.3578297462696701e-17 0.875 0 341
5.3578297462696701e-17 0.875 0.20000000000000001 342
5.3578297462696701e-17 0.875 0.40000000000000002 343
5.3578297462696701e-17 0.875 0.59999999999999998 344
5.3578297462696701e-17 0.875 0.80000000000000004 345
5.3578297462696701e-17 0.875 1 346
5.3578297462696701e-17 0.875 1.2 347
5.3578297462696701e-17 0.875 1.3999999999999999 348
5.3578297462696701e-17 0.875 1.6000000000000001 349
5.3578297462696701e-17 0.875 1.8 350
5.3578297462696701e-17 0.875 2 351
6.123233995736766e-17 1 0 352
6.123233995736766e-17 1 0.20000000000000001 353
6.123233995736766e-17 1 0.40000000000000002 354
6.123233995736766e-17 1 0.59999999999999998 355
6.123233995736766e-17 1 0.80000000000000004 356
6.123233995736766e-17 1 1 357
6.123233995736766e-17 1 1.2 358
6.123233995736766e-17 1 1.3999999999999999 359
6.123233995736766e-17 1 1.6000000000000001 360
6.123233995736766e-17 1 1.8 361
6.123233995736766e-17 1 2 362
-0.062499999999999972 0.10825317547305484 0 363
-0.062499999999999972 0.10825317547305484 0.20000000000000001 364
-0.062499999999999972 0.10825317547305484 0.40000000000000002 365
-0.062499999999999972 0.10825317547305484 0.59999999999999998 366
-0.062499999999999972 0.10825317547305484 0.80000000000000004 367
-0.062499999999999972 0.10825317547305484 1 368
-0.062499999999999972 0.10825317547305484 1.2 369
-0.062499999999999972 0.10825317547305484 1.3999999999999999 370
-0.062499999999999972 0.10825317547305484 1.6000000000000001 371
-0.062499999999999972 0.10825317547305484 1.8 372
-0.062499999999999972 0.10825317547305484 2 373
-0.12499999999999994 0.21650635094610968 0 374
-0.12499999999999994 0.21650635094610968 0.20000000000000001 375
-0.12499999999999994 0.21650635094610968 0.40000000000000002 376
-0.12499999999999994 0.21650635094610968 0.59999999999999998 377
-0.12499999999999994 0.21650635094610968 0.80000000000000004 378
-0.12499999999999994 0.21650635094610968 1 379
-0.12499999999999994 0.21650635094610968 1.2 380
-0.12499999999999994 0.21650635094610968 1.3999999999999999 381
-0.12499999999999994 0.21650635094610968 1.6000000000000001 382
-0.12499999999999994 0.21650635094610968 1.8 383
-0.12499999999999994 0.21650635094610968 2 384
-0.18749999999999992 0.3247595264191645 0 385
-0.18749999999999992 0.3247595264191645 0.20000000000000001 386
-0.18749999999999992 0.3247595264191645 0.40000000000000002 387
-0.18749999999999992 0.3247595264191645 0.59999999999999998 388
-0.18749999999999992 0.3247595264191645 0.80000000000000004 389
-0.18749999999999992 0.3247595264191645 1 390
-0.18749999999999992 0.3247595264191645 1.2 391
-0.18749999999999992 0.3247595264191645 1.3999999999999999 392
-0.18749999999999992 0.3247595264191645 1.6000000000000001 393
-0.18749999999999992 0.3247595264191645 1.8 394
-0.18749999999999992 0.3247595264191645 2 395
-0.24999999999999989 0.43301270189221935 0 396
-0.24999999999999989 0.43301270189221935 0.20000000000000001 397
-0.24999999999999989 0.43301270189221935 0.40000000000000002 398
-0.24999999999999989 0.43301270189221935 0.59999999999999998 399
-0.24999999999999989 0.43301270189221935 0.80000000000000004 400
-0.24999999999999989 0.43301270189221935 1 401
-0.24999999999999989 0.43301270189221935 1.2 402
-0.24999999999999989 0.43301270189221935 1.3999999999999999 403
-0.24999999999999989 0.43301270189221935 1.6000000000000001 404
-0.24999999999999989 0.43301270189221935 1.8 405
-0.24999999999999989 0.43301270189221935 2 406
-0.31249999999999989 0.54126587736527421 0 407
-0.31249999999999989 0.54126587736527421 0.20000000000000001 408
-0.31249999999999989 0.54126587736527421 0.40000000000000002 409
-0.31249999999999989 0.54126587736527421 0.59999999999999998 410
-0.31249999999999989 0.54126587736527421 0.80000000000000004 411
-0.31249999999999989 0.54126587736527421 1 412
-0.31249999999999989 0.54126587736527421 1.2 413
-0.31249999999999989 0.54126587736527421 1.3999999999999999 414
-0.31249999999999989 0.54126587736527421 1.6000000000000001 415
-0.31249999999999989 0.54126587736527421 1.8 416
-0.31249999999999989 0.54126587736527421 2 417
-0.37499999999999983 0.649519052838329 0 418
-0.37499999999999983 0.649519052838329 0.20000000000000001 419
-0.37499999999999983 0.649519052838329 0.40000000000000002 420
-0.37499999999999983 0.649519052838329 0.59999999999999998 421
-0.37499999999999983 0.649519052838329 0.80000000000000004 422
-0.37499999999999983 0.649519052838329 1 423
-0.37499999999999983 0.649519052838329 1.2 424
-0.37499999999999983 0.649519052838329 1.3999999999999999 425
-0.37499999999999983 0.649519052838329 1.6000000000000001 426
-0.37499999999999983 0.649519052838329 1.8 427
-0.37499999999999983 0.649519052838329 2 428
-0.43749999999999978 0.75777222831138391 0 429
-0.43749999999999978 0.75777222831138391 0.20000000000000001 430
-0.43749999999999978 0.75777222831138391 0.40000000000000002 431
-0.43749999999999978 0.75777222831138391 0.59999999999999998 432
-0.43749999999999978 0.75777222831138391 0.80000000000000004 433
-0.43749999999999978 0.75777222831138391 1 434
-0.43749999999999978 0.75777222831138391 1.2 435
-0.43749999999999978 0.75777222831138391 1.3999999999999999 436
-0.43749999999999978 0.75777222831138391 1.6000000000000001 437
-0.43749999999999978 0.75777222831138391 1.8 438
-0.43749999999999978 0.75777222831138391 2 439
-0.49999999999999978 0.86602540378443871 0 440
-0.49999999999999978 0.86602540378443871 0.20000000000000001 441
-0.49999999999999978 0.86602540378443871 0.40000000000000002 442
-0.49999999999999978 0.86602540378443871 0.59999999999999998 443
-0.49999999999999978 0.86602540378443871 0.80000000000000004 444
-0.49999999999999978 0.86602540378443871 1 445
-0.49999999999999978 0.86602540378443871 1.2 446
-0.49999999999999978 0.86602540378443871 1.3999999999999999 447
-0.49999999999999978 0.86602540378443871 1.6000000000000001 448
-0.49999999999999978 0.86602540378443871 1.8 449
-0.49999999999999978 0.86602540378443871 2 450
-0.10825317547305481 0.062500000000000042 0 451
-0.10825317547305481 0.062500000000000042 0.20000000000000001 452
-0.10825317547305481 0.062500000000000042 0.40000000000000002 453
-0.10825317547305481 0.062500000000000042 0.59999999999999998 454
-0.10825317547305481 0.062500000000000042 0.80000000000000004 455
-0.10825317547305481 0.062500000000000042 1 456
-0.10825317547305481 0.062500000000000042 1.2 457
-0.10825317547305481 0.062500000000000042 1.3999999999999999 458
-0.10825317547305481 0.062500000000000042 1.6000000000000001 459
-0.10825317547305481 0.062500000000000042 1.8 460
-0.10825317547305481 0.062500000000000042 2 461
-0.21650635094610962 0.12500000000000008 0 462
-0.21650635094610962 0.12500000000000008 0.20000000000000001 463
-0.21650635094610962 0.12500000000000008 0.40000000000000002 464
-0.21650635094610962 0.12500000000000008 0.59999999999999998 465
-0.21650635094610962 0.12500000000000008 0.80000000000000004 466
-0.21650635094610962 0.12500000000000008 1 467
-0.21650635094610962 0.12500000000000008 1.2 468
-0.21650635094610962 0.12500000000000008 1.3999999999999999 469
-0.21650635094610962 0.12500000000000008 1.6000000000000001 470
-0.21650635094610962 0.12500000000000008 1.8 471
-0.21650635094610962 0.12500000000000008 2 472
-0.32475952641916445 0.18750000000000011 0 473
-0.32475952641916445 0.18750000000000011 0.20000000000000001 474
-0.32475952641916445 0.18750000000000011 0.40000000000000002 475
-0.32475952641916445 0.18750000000000011 0.59999999999999998 476
-0.32475952641916445 0.18750000000000011 0.80000000000000004 477
-0.32475952641916445 0.18750000000000011 1 478
-0.32475952641916445 0.18750000000000011 1.2 479
-0.32475952641916445 0.18750000000000011 1.3999999999999999 480
-0.32475952641916445 0.18750000000000011 1.6000000000000001 481
-0.32475952641916445 0.18750000000000011 1.8 482
-0.32475952641916445 0.18750000000000011 2 483
-0.43301270189221924 0.25000000000000017 0 484
-0.43301270189221924 0.25000000000000017 0.20000000000000001 485
-0.43301270189221924 0.25000000000000017 0.40000000000000002 486
-0.43301270189221924 0.25000000000000017 0.59999999999999998 487
-0.43301270189221924 0.25000000000000017 0.80000000000000004 488
-0.43301270189221924 0.25000000000000017 1 489
-0.43301270189221924 0.25000000000000017 1.2 490
-0.43301270189221924 0.25000000000000017 1.3999999999999999 491
-0.43301270189221924 0.25000000000000017 1.6000000000000001 492
-0.43301270189221924 0.25000000000000017 1.8 493
-0.43301270189221924 0.25000000000000017 2 494
-0.5412658773652741 0.31250000000000022 0 495
-0.5412658773652741 0.31250000000000022 0.20000000000000001 496
-0.5412658773652741 0.31250000000000022 0.40000000000000002 497
-0.5412658773652741 0.31250000000000022 0.59999999999999998 498
-0.5412658773652741 0.31250000000000022 0.80000000000000004 499
-0.5412658773652741 0.31250000000000022 1 500
-0.5412658773652741 0.31250000000000022 1.2 501
-0.5412658773652741 0.31250000000000022 1.3999999999999999 502
-0.5412658773652741 0.31250000000000022 1.6000000000000001 503
-0.5412658773652741 0.31250000000000022 1.8 504
-0.5412658773652741 0.31250000000000022 2 505
-0.64951905283832889 0.37500000000000022 0 506
-0.64951905283832889 0.37500000000000022 0.20000000000000001 507
-0.64951905283832889 0.37500000000000022 0.40000000000000002 508
-0.64951905283832889 0.37500000000000022 0.59999999999999998 509
-0.64951905283832889 0.37500000000000022 0.80000000000000004 510
-0.64951905283832889 0.37500000000000022 1 511
-0.64951905283832889 0.37500000000000022 1.2 512
-0.64951905283832889 0.37500000000000022 1.3999999999999999 513
-0.64951905283832889 0.37500000000000022 1.6000000000000001 514
-0.64951905283832889 0.37500000000000022 1.8 515
-0.64951905283832889 0.37500000000000022 2 516
-0.75777222831138369 0.43750000000000028 0 517
-0.75777222831138369 0.43750000000000028 0.20000000000000001 518
-0.75777222831138369 0.43750000000000028 0.40000000000000002 519
-0.75777222831138369 0.43750000000000028 0.59999999999999998 520
-0.75777222831138369 0.43750000000000028 0.80000000000000004 521
-0.75777222831138369 0.43750000000000028 1 522
-0.75777222831138369 0.43750000000000028 1.2 523
-0.75777222831138369 0.43750000000000028 1.3999999999999999 524
-0.75777222831138369 0.43750000000000028 1.6000000000000001 525
-0.75777222831138369 0.43750000000000028 1.8 526
-0.75777222831138369 0.43750000000000028 2 527
-0.86602540378443849 0.50000000000000033 0 528
-0.86602540378443849 0.50000000000000033 0.20000000000000001 529
-0.86602540378443849 0.50000000000000033 0.40000000000000002 530
-0.86602540378443849 0.50000000000000033 0.59999999999999998 531
-0.86602540378443849 0.50000000000000033 0.80000000000000004 532
-0.86602540378443849 0.50000000000000033 1 533
-0.86602540378443849 0.50000000000000033 1.2 534
-0.86602540378443849 0.50000000000000033 1.3999999999999999 535
-0.86602540378443849 0.50000000000000033 1.6000000000000001 536
-0.86602540378443849 0.50000000000000033 1.8 537
-0.86602540378443849 0.50000000000000033 2 538
-0.125 1.5308084989341915e-17 0 539
-0.125 1.5308084989341915e-17 0.20000000000000001 540
-0.125 1.5308084989341915e-17 0.40000000000000002 541
-0.125 1.5308084989341915e-17 0.59999999999999998 542
-0.125 1.5308084989341915e-17 0.80000000000000004 543
-0.125 1.5308084989341915e-17 1 544
-0.125 1.5308084989341915e-17 1.2 545
-0.125 1.5308084989341915e-17 1.3999999999999999 546
-0.125 1.5308084989341915e-17 1.6000000000000001 547
-0.125 1.5308084989341915e-17 1.8 548
-0.125 1.5308084989341915e-17 2 549
-0.25 3.061616997868383e-17 0 550
-0.25 3.061616997868383e-17 0.20000000000000001 551
-0.25 3.061616997868383e-17 0.40000000000000002 552
-0.25 3.061616997868383e-17 0.59999999999999998 553
-0.25 3.061616997868383e-17 0.80000000000000004 554
-0.25 3.061616997868383e-17 1 555
-0.25 3.061616997868383e-17 1.2 556
-0.25 3.061616997868383e-17 1.3999999999999999 557
-0.25 3.061616997868383e-17 1.6000000000000001 558
-0.25 3.061616997868383e-17 1.8 559
-0.25 3.061616997868383e-17 2 560
-0.375 4.5924254968025742e-17 0 561
-0.375 4.5924254968025742e-17 0.20000000000000001 562
-0.375 4.5924254968025742e-17 0.40000000000000002 563
-0.375 4.5924254968025742e-17 0.59999999999999998 564
-0.375 4.5924254968025742e-17 0.80000000000000004 565
-0.375 4.5924254968025742e-17 1 566
-0.375 4.5924254968025742e-17 1.2 567
-0.375 4.5924254968025742e-17 1.3999999999999999 568
-0.375 4.5924254968025742e-17 1.6000000000000001 569
-0.375 4.5924254968025742e-17 1.8 570
-0.375 4.5924254968025742e-17 2 571
-0.5 6.123233995736766e-17 0 572
-0.5 6.123233995736766e-17 0.20000000000000001 573
-0.5 6.123233995736766e-17 0.40000000000000002 574
-0.5 6.123233995736766e-17 0.59999999999999998 575
-0.5 6.123233995736766e-17 0.80000000000000004 576
-0.5 6.123233995736766e-17 1 577
-0.5 6.123233995736766e-17 1.2 578
-0.5 6.123233995736766e-17 1.3999999999999999 579
-0.5 6.123233995736766e-17 1.6000000000000001 580
-0.5 6.123233995736766e-17 1.8 581
-0.5 6.123233995736766e-17 2 582
-0.625 7.6540424946709579e-17 0 583
-0.625 7.6540424946709579e-17 0.20000000000000001 584
-0.625 7.6540424946709579e-17 0.40000000000000002 585
-0.625 7.6540424946709579e-17 0.59999999999999998 586
-0.625 7.6540424946709579e-17 0.80000000000000004 587
-0.625 7.6540424946709579e-17 1 588
-0.625 7.6540424946709579e-17 1.2 589
-0.625 7.6540424946709579e-17 1.3999999999999999 590
-0.625 7.6540424946709579e-17 1.6000000000000001 591
-0.625 7.6540424946709579e-17 1.8 592
-0.625 7.6540424946709579e-17 2 593
-0.75 9.1848509936051484e-17 0 594
-0.75 9.1848509936051484e-17 0.20000000000000001 595
-0.75 9.1848509936051484e-17 0.40000000000000002 596
-0.75 9.1848509936051484e-17 0.59999999999999998 597
-0.75 9.1848509936051484e-17 0.80000000000000004 598
-0.75 9.1848509936051484e-17 1 599
-0.75 9.1848509936051484e-17 1.2 600
-0.75 9.1848509936051484e-17 1.3999999999999999 601
-0.75 9.1848509936051484e-17 1.6000000000000001 602
-0.75 9.1848509936051484e-17 1.8 603
-0.75 9.1848509936051484e-17 2 604
-0.875 1.071565949253934e-16 0 605
-0.875 1.071565949253934e-16 0.20000000000000001 606
-0.875 1.071565949253934e-16 0.40000000000000002 607
-0.875 1.071565949253934e-16 0.59999999999999998 608
-0.875 1.071565949253934e-16 0.80000000000000004 609
-0.875 1.071565949253934e-16 1 610
-0.875 1.071565949253934e-16 1.2 611
-0.875 1.071565949253934e-16 1.3999999999999999 612
-0.875 1.071565949253934e-16 1.6000000000000001 613
-0.875 1.071565949253934e-16 1.8 614
-0.875 1.071565949253934e-16 2 615
-1 1.2246467991473532e-16 0 616
-1 1.2246467991473532e-16 0.20000000000000001 617
-1 1.2246467991473532e-16 0.40000000000000002 618
-1 1.2246467991473532e-16 0.59999999999999998 619
-1 1.2246467991473532e-16 0.80000000000000004 620
-1 1.2246467991473532e-16 1 621
-1 1.2246467991473532e-16 1.2 622
-1 1.2246467991473532e-16 1.3999999999999999 623
-1 1.2246467991473532e-16 1.6000000000000001 624
-1 1.2246467991473532e-16 1.8 625
-1 1.2246467991473532e-16 2 626
-0.10825317547305485 -0.062499999999999965 0 627
-0.10825317547305485 -0.062499999999999965 0.20000000000000001 628
-0.10825317547305485 -0.062499999999999965 0.40000000000000002 629
-0.10825317547305485 -0.062499999999999965 0.59999999999999998 630
-0.10825317547305485 -0.062499999999999965 0.80000000000000004 631
-0.10825317547305485 -0.062499999999999965 1 632
-0.10825317547305485 -0.062499999999999965 1.2 633
-0.10825317547305485 -0.062499999999999965 1.3999999999999999 634
-0.10825317547305485 -0.062499999999999965 1.6000000000000001 635
-0.10825317547305485 -0.062499999999999965 1.8 636
-0.10825317547305485 -0.062499999999999965 2 637
-0.2165063509461097 -0.12499999999999993 0 638
-0.2165063509461097 -0.12499999999999993 0.20000000000000001 639
-0.2165063509461097 -0.12499999999999993 0.40000000000000002 640
-0.2165063509461097 -0.12499999999999993 0.59999999999999998 641
-0.2165063509461097 -0.12499999999999993 0.80000000000000004 642
-0.2165063509461097 -0.12499999999999993 1 643
-0.2165063509461097 -0.12499999999999993 1.2 644
-0.2165063509461097 -0.12499999999999993 1.3999999999999999 645
-0.2165063509461097 -0.12499999999999993 1.6000000000000001 646
-0.2165063509461097 -0.12499999999999993 1.8 647
-0.2165063509461097 -0.12499999999999993 2 648
-0.32475952641916456 -0.18749999999999989 0 649
-0.32475952641916456 -0.18749999999999989 0.20000000000000001 650
-0.32475952641916456 -0.18749999999999989 0.40000000000000002 651
-0.32475952641916456 -0.18749999999999989 0.59999999999999998 652
-0.32475952641916456 -0.18749999999999989 0.80000000000000004 653
-0.32475952641916456 -0.18749999999999989 1 654
-0.32475952641916456 -0.18749999999999989 1.2 655
-0.32475952641916456 -0.18749999999999989 1.3999999999999999 656
-0.32475952641916456 -0.18749999999999989 1.6000000000000001 657
-0.32475952641916456 -0.18749999999999989 1.8 658
-0.32475952641916456 -0.18749999999999989 2 659
-0.43301270189221941 -0.24999999999999986 0 660
-0.43301270189221941 -0.24999999999999986 0.20000000000000001 661
-0.43301270189221941 -0.24999999999999986 0.40000000000000002 662
-0.43301270189221941 -0.24999999999999986 0.59999999999999998 663
-0.43301270189221941 -0.24999999999999986 0.80000000000000004 664
-0.43301270189221941 -0.24999999999999986 1 665
-0.43301270189221941 -0.24999999999999986 1.2 666
-0.43301270189221941 -0.24999999999999986 1.3999999999999999 667
-0.43301270189221941 -0.24999999999999986 1.6000000000000001 668
-0.43301270189221941 -0.24999999999999986 1.8 669
-0.43301270189221941 -0.24999999999999986 2 670
-0.54126587736527432 -0.31249999999999983 0 671
-0.54126587736527432 -0.31249999999999983 0.20000000000000001 672
-0.54126587736527432 -0.31249999999999983 0.40000000000000002 673
-0.54126587736527432 -0.31249999999999983 0.59999999999999998 674
-0.54126587736527432 -0.31249999999999983 0.80000000000000004 675
-0.54126587736527432 -0.31249999999999983 1 676
-0.54126587736527432 -0.31249999999999983 1.2 677
-0.54126587736527432 -0.31249999999999983 1.3999999999999999 678
-0.54126587736527432 -0.31249999999999983 1.6000000000000001 679
-0.54126587736527432 -0.31249999999999983 1.8 680
-0.54126587736527432 -0.31249999999999983 2 681
-0.64951905283832911 -0.37499999999999978 0 682
-0.64951905283832911 -0.37499999999999978 0.20000000000000001 683
-0.64951905283832911 -0.37499999999999978 0.40000000000000002 684
-0.64951905283832911 -0.37499999999999978 0.59999999999999998 685
-0.64951905283832911 -0.37499999999999978 0.80000000000000004 686
-0.64951905283832911 -0.37499999999999978 1 687
-0.64951905283832911 -0.37499999999999978 1.2 688
-0.64951905283832911 -0.37499999999999978 1.3999999999999999 689
-0.64951905283832911 -0.37499999999999978 1.6000000000000001 690
-0.64951905283832911 -0.37499999999999978 1.8 691
-0.64951905283832911 -0.37499999999999978 2 692
-0.75777222831138391 -0.43749999999999978 0 693
-0.75777222831138391 -0.43749999999999978 0.20000000000000001 694
-0.75777222831138391 -0.43749999999999978 0.40000000000000002 695
-0.75777222831138391 -0.43749999999999978 0.59999999999999998 696
-0.75777222831138391 -0.43749999999999978 0.80000000000000004 697
-0.75777222831138391 -0.43749999999999978 1 698
-0.75777222831138391 -0.43749999999999978 1.2 699
-0.75777222831138391 -0.43749999999999978 1.3999999999999999 700
-0.75777222831138391 -0.43749999999999978 1.6000000000000001 701
-0.75777222831138391 -0.43749999999999978 1.8 702
-0.75777222831138391 -0.43749999999999978 2 703
-0.86602540378443882 -0.49999999999999972 0 704
-0.86602540378443882 -0.49999999999999972 0.20000000000000001 705
-0.86602540378443882 -0.49999999999999972 0.40000000000000002 706
-0.86602540378443882 -0.49999999999999972 0.59999999999999998 707
-0.86602540378443882 -0.49999999999999972 0.80000000000000004 708
-0.86602540378443882 -0.49999999999999972 1 709
-0.86602540378443882 -0.49999999999999972 1.2 710
-0.86602540378443882 -0.49999999999999972 1.3999999999999999 711
-0.86602540378443882 -0.49999999999999972 1.6000000000000001 712
-0.86602540378443882 -0.49999999999999972 1.8 713
-0.86602540378443882 -0.49999999999999972 2 714
-0.062500000000000056 -0.1082531754730548 0 715
-0.062500000000000056 -0.1082531754730548 0.20000000000000001 716
-0.062500000000000056 -0.1082531754730548 0.40000000000000002 717
-0.062500000000000056 -0.1082531754730548 0.59999999999999998 718
-0.062500000000000056 -0.1082531754730548 0.80000000000000004 719
-0.062500000000000056 -0.1082531754730548 1 720
-0.062500000000000056 -0.1082531754730548 1.2 721
-0.062500000000000056 -0.1082531754730548 1.3999999999999999 722
-0.062500000000000056 -0.1082531754730548 1.6000000000000001 723
-0.062500000000000056 -0.1082531754730548 1.8 724
-0.062500000000000056 -0.1082531754730548 2 725
-0.12500000000000011 -0.21650635094610959 0 726
-0.12500000000000011 -0.21650635094610959 0.20000000000000001 727
-0.12500000000000011 -0.21650635094610959 0.40000000000000002 728
-0.12500000000000011 -0.21650635094610959 0.59999999999999998 729
-0.12500000000000011 -0.21650635094610959 0.80000000000000004 730
-0.12500000000000011 -0.21650635094610959 1 731
-0.12500000000000011 -0.21650635094610959 1.2 732
-0.12500000000000011 -0.21650635094610959 1.3999999999999999 733
-0.12500000000000011 -0.21650635094610959 1.6000000000000001 734
-0.12500000000000011 -0.21650635094610959 1.8 735
-0.12500000000000011 -0.21650635094610959 2 736
-0.18750000000000017 -0.32475952641916439 0 737
-0.18750000000000017 -0.32475952641916439 0.20000000000000001 738
-0.18750000000000017 -0.32475952641916439 0.40000000000000002 739
-0.18750000000000017 -0.32475952641916439 0.59999999999999998 740
-0.18750000000000017 -0.32475952641916439 0.80000000000000004 741
-0.18750000000000017 -0.32475952641916439 1 742
-0.18750000000000017 -0.32475952641916439 1.2 743
-0.18750000000000017 -0.32475952641916439 1.3999999999999999 744
-0.18750000000000017 -0.32475952641916439 1.6000000000000001 745
-0.18750000000000017 -0.32475952641916439 1.8 746
-0.18750000000000017 -0.32475952641916439 2 747
-0.25000000000000022 -0.43301270189221919 0 748
-0.25000000000000022 -0.43301270189221919 0.20000000000000001 749
-0.25000000000000022 -0.43301270189221919 0.40000000000000002 750
-0.25000000000000022 -0.43301270189221919 0.59999999999999998 751
-0.25000000000000022 -0.43301270189221919 0.80000000000000004 752
-0.25000000000000022 -0.43301270189221919 1 753
-0.25000000000000022 -0.43301270189221919 1.2 754
-0.25000000000000022 -0.43301270189221919 1.3999999999999999 755
-0.25000000000000022 -0.43301270189221919 1.6000000000000001 756
-0.25000000000000022 -0.43301270189221919 1.8 757
-0.25000000000000022 -0.43301270189221919 2 758
-0.31250000000000028 -0.54126587736527398 0 759
-0.31250000000000028 -0.54126587736527398 0.20000000000000001 760
-0.31250000000000028 -0.54126587736527398 0.40000000000000002 761
-0.31250000000000028 -0.54126587736527398 0.59999999999999998 762
-0.31250000000000028 -0.54126587736527398 0.80000000000000004 763
-0.31250000000000028 -0.54126587736527398 1 764
-0.31250000000000028 -0.54126587736527398 1.2 765
-0.31250000000000028 -0.54126587736527398 1.3999999999999999 766
-0.31250000000000028 -0.54126587736527398 1.6000000000000001 767
-0.31250000000000028 -0.54126587736527398 1.8 768
-0.31250000000000028 -0.54126587736527398 2 769
-0.37500000000000033 -0.64951905283832878 0 770
-0.37500000000000033 -0.64951905283832878 0.20000000000000001 771
-0.37500000000000033 -0.64951905283832878 0.40000000000000002 772
-0.37500000000000033 -0.64951905283832878 0.59999999999999998 773
-0.37500000000000033 -0.64951905283832878 0.80000000000000004 774
-0.37500000000000033 -0.64951905283832878 1 775
-0.37500000000000033 -0.64951905283832878 1.2 776
-0.37500000000000033 -0.64951905283832878 1.3999999999999999 777
-0.37500000000000033 -0.64951905283832878 1.6000000000000001 778
-0.37500000000000033 -0.64951905283832878 1.8 779
-0.37500000000000033 -0.64951905283832878 2 780
-0.43750000000000039 -0.75777222831138358 0 781
-0.43750000000000039 -0.75777222831138358 0.20000000000000001 782
-0.43750000000000039 -0.75777222831138358 0.40000000000000002 783
-0.43750000000000039 -0.75777222831138358 0.59999999999999998 784
-0.43750000000000039 -0.75777222831138358 0.80000000000000004 785
-0.43750000000000039 -0.75777222831138358 1 786
-0.43750000000000039 -0.75777222831138358 1.2 787
-0.43750000000000039 -0.75777222831138358 1.3999999999999999 788
-0.43750000000000039 -0.75777222831138358 1.6000000000000001 789
-0.43750000000000039 -0.75777222831138358 1.8 790
-0.43750000000000039 -0.75777222831138358 2 791
-0.50000000000000044 -0.86602540378443837 0 792
-0.50000000000000044 -0.86602540378443837 0.20000000000000001 793
-0.50000000000000044 -0.86602540378443837 0.40000000000000002 794
-0.50000000000000044 -0.86602540378443837 0.59999999999999998 795
-0.50000000000000044 -0.86602540378443837 0.80000000000000004 796
-0.50000000000000044 -0.86602540378443837 1 797
-0.50000000000000044 -0.86602540378443837 1.2 798
-0.50000000000000044 -0.86602540378443837 1.3999999999999999 799
-0.50000000000000044 -0.86602540378443837 1.6000000000000001 800
-0.50000000000000044 -0.86602540378443837 1.8 801
-0.50000000000000044 -0.86602540378443837 2 802
-2.2962127484012871e-17 -0.125 0 803
-2.2962127484012871e-17 -0.125 0.20000000000000001 804
-2.2962127484012871e-17 -0.125 0.40000000000000002 805
-2.2962127484012871e-17 -0.125 0.59999999999999998 806
-2.2962127484012871e-17 -0.125 0.80000000000000004 807
-2.2962127484012871e-17 -0.125 1 808
-2.2962127484012871e-17 -0.125 1.2 809
-2.2962127484012871e-17 -0.125 1.3999999999999999 810
-2.2962127484012871e-17 -0.125 1.6000000000000001 811
-2.2962127484012871e-17 -0.125 1.8 812
-2.2962127484012871e-17 -0.125 2 813
-4.5924254968025742e-17 -0.25 0 814
-4.5924254968025742e-17 -0.25 0.20000000000000001 815
-4.5924254968025742e-17 -0.25 0.40000000000000002 816
-4.5924254968025742e-17 -0.25 0.59999999999999998 817
-4.5924254968025742e-17 -0.25 0.80000000000000004 818
-4.5924254968025742e-17 -0.25 1 819
-4.5924254968025742e-17 -0.25 1.2 820
-4.5924254968025742e-17 -0.25 1.3999999999999999 821
-4.5924254968025742e-17 -0.25 1.6000000000000001 822
-4.5924254968025742e-17 -0.25 1.8 823
-4.5924254968025742e-17 -0.25 2 824
-6.8886382452038619e-17 -0.375 0 825
-6.8886382452038619e-17 -0.375 0.20000000000000001 826
-6.8886382452038619e-17 -0.375 0.40000000000000002 827
-6.8886382452038619e-17 -0.375 0.59999999999999998 828
-6.8886382452038619e-17 -0.375 0.80000000000000004 829
-6.8886382452038619e-17 -0.375 1 830
-6.8886382452038619e-17 -0.375 1.2 831
-6.8886382452038619e-17 -0.375 1.3999999999999999 832
-6.8886382452038619e-17 -0.375 1.6000000000000001 833
-6.8886382452038619e-17 -0.375 1.8 834
-6.8886382452038619e-17 -0.375 2 835
-9.1848509936051484e-17 -0.5 0 836
-9.1848509936051484e-17 -0.5 0.20000000000000001 837
-9.1848509936051484e-17 -0.5 0.40000000000000002 838
-9.1848509936051484e-17 -0.5 0.59999999999999998 839
-9.1848509936051484e-17 -0.5 0.80000000000000004 840
-9.1848509936051484e-17 -0.5 1 841
-9.1848509936051484e-17 -0.5 1.2 842
-9.1848509936051484e-17 -0.5 1.3999999999999999 843
-9.1848509936051484e-17 -0.5 1.6000000000000001 844
-9.1848509936051484e-17 -0.5 1.8 845
-9.1848509936051484e-17 -0.5 2 846
-1.1481063742006435e-16 -0.625 0 847
-1.1481063742006435e-16 -0.625 0.20000000000000001 848
-1.1481063742006435e-16 -0.625 0.40000000000000002 849
-1.1481063742006435e-16 -0.625 0.59999999999999998 850
-1.1481063742006435e-16 -0.625 0.80000000000000004 851
-1.1481063742006435e-16 -0.625 1 852
-1.1481063742006435e-16 -0.625 1.2 853
-1.1481063742006435e-16 -0.625 1.3999999999999999 854
-1.1481063742006435e-16 -0.625 1.6000000000000001 855
-1.1481063742006435e-16 -0.625 1.8 856
-1.1481063742006435e-16 -0.625 2 857
-1.3777276490407724e-16 -0.75 0 858
-1.3777276490407724e-16 -0.75 0.20000000000000001 859
-1.3777276490407724e-16 -0.75 0.40000000000000002 860
-1.3777276490407724e-16 -0.75 0.59999999999999998 861
-1.3777276490407724e-16 -0.75 0.80000000000000004 862
-1.3777276490407724e-16 -0.75 1 863
-1.3777276490407724e-16 -0.75 1.2 864
-1.3777276490407724e-16 -0.75 1.3999999999999999 865
-1.3777276490407724e-16 -0.75 1.6000000000000001 866
-1.3777276490407724e-16 -0.75 1.8 867
-1.3777276490407724e-16 -0.75 2 868
-1.607348923880901e-16 -0.875 0 869
-1.607348923880901e-16 -0.875 0.20000000000000001 870
-1.607348923880901e-16 -0.875 0.40000000000000002 871
-1.607348923880901e-16 -0.875 0.59999999999999998 872
-1.607348923880901e-16 -0.875 0.80000000000000004 873
-1.607348923880901e-16 -0.875 1 874
-1.607348923880901e-16 -0.875 1.2 875
-1.607348923880901e-16 -0.875 1.3999999999999999 876
-1.607348923880901e-16 -0.875 1.6000000000000001 877
-1.607348923880901e-16 -0.875 1.8 878
-1.607348923880901e-16 -0.875 2 879
-1.8369701987210297e-16 -1 0 880
-1.8369701987210297e-16 -1 0.20000000000000001 881
-1.8369701987210297e-16 -1 0.40000000000000002 882
-1.8369701987210297e-16 -1 0.59999999999999998 883
-1.8369701987210297e-16 -1 0.80000000000000004 884
-1.8369701987210297e-16 -1 1 885
-1.8369701987210297e-16 -1 1.2 886
-1.8369701987210297e-16 -1 1.3999999999999999 887
-1.8369701987210297e-16 -1 1.6000000000000001 888
-1.8369701987210297e-16 -1 1.8 889
-1.8369701987210297e-16 -1 2 890
0.062499999999999917 -0.10825317547305488 0 891
0.062499999999999917 -0.10825317547305488 0.20000000000000001 892
0.062499999999999917 -0.10825317547305488 0.40000000000000002 893
0.062499999999999917 -0.10825317547305488 0.59999999999999998 894
0.062499999999999917 -0.10825317547305488 0.80000000000000004 895
0.062499999999999917 -0.10825317547305488 1 896
0.062499999999999917 -0.10825317547305488 1.2 897
0.062499999999999917 -0.10825317547305488 1.3999999999999999 898
0.062499999999999917 -0.10825317547305488 1.6000000000000001 899
0.062499999999999917 -0.10825317547305488 1.8 900
0.062499999999999917 -0.10825317547305488 2 901
0.12499999999999983 -0.21650635094610976 0 902
0.12499999999999983 -0.21650635094610976 0.20000000000000001 903
0.12499999999999983 -0.21650635094610976 0.40000000000000002 904
0.12499999999999983 -0.21650635094610976 0.59999999999999998 905
0.12499999999999983 -0.21650635094610976 0.80000000000000004 906
0.12499999999999983 -0.21650635094610976 1 907
0.12499999999999983 -0.21650635094610976 1.2 908
0.12499999999999983 -0.21650635094610976 1.3999999999999999 909
0.12499999999999983 -0.21650635094610976 1.6000000000000001 910
0.12499999999999983 -0.21650635094610976 1.8 911
0.12499999999999983 -0.21650635094610976 2 912
0.18749999999999975 -0.32475952641916461 0 913
0.18749999999999975 -0.32475952641916461 0.20000000000000001 914
0.18749999999999975 -0.32475952641916461 0.40000000000000002 915
0.18749999999999975 -0.32475952641916461 0.59999999999999998 916
0.18749999999999975 -0.32475952641916461 0.80000000000000004 917
0.18749999999999975 -0.32475952641916461 1 918
0.18749999999999975 -0.32475952641916461 1.2 919
0.18749999999999975 -0.32475952641916461 1.3999999999999999 920
0.18749999999999975 -0.32475952641916461 1.6000000000000001 921
0.18749999999999975 -0.32475952641916461 1.8 922
0.18749999999999975 -0.32475952641916461 2 923
0.24999999999999967 -0.43301270189221952 0 924
0.24999999999999967 -0.43301270189221952 0.20000000000000001 925
0.24999999999999967 -0.43301270189221952 0.40000000000000002 926
0.24999999999999967 -0.43301270189221952 0.59999999999999998 927
0.24999999999999967 -0.43301270189221952 0.80000000000000004 928
0.24999999999999967 -0.43301270189221952 1 929
0.24999999999999967 -0.43301270189221952 1.2 930
0.24999999999999967 -0.43301270189221952 1.3999999999999999 931
0.24999999999999967 -0.43301270189221952 1.6000000000000001 932
0.24999999999999967 -0.43301270189221952 1.8 933
0.24999999999999967 -0.43301270189221952 2 934
0.31249999999999956 -0.54126587736527443 0 935
0.31249999999999956 -0.54126587736527443 0.20000000000000001 936
0.31249999999999956 -0.54126587736527443 0.40000000000000002 937
0.31249999999999956 -0.54126587736527443 0.59999999999999998 938
0.31249999999999956 -0.54126587736527443 0.80000000000000004 939
0.31249999999999956 -0.54126587736527443 1 940
0.31249999999999956 -0.54126587736527443 1.2 941
0.31249999999999956 -0.54126587736527443 1.3999999999999999 942
0.31249999999999956 -0.54126587736527443 1.6000000000000001 943
0.31249999999999956 -0.54126587736527443 1.8 944
0.31249999999999956 -0.54126587736527443 2 945
0.3749999999999995 -0.64951905283832922 0 946
0.3749999999999995 -0.64951905283832922 0.20000000000000001 947
0.3749999999999995 -0.64951905283832922 0.40000000000000002 948
0.3749999999999995 -0.64951905283832922 0.59999999999999998 949
0.3749999999999995 -0.64951905283832922 0.80000000000000004 950
0.3749999999999995 -0.64951905283832922 1 951
0.3749999999999995 -0.64951905283832922 1.2 952
0.3749999999999995 -0.64951905283832922 1.3999999999999999 953
0.3749999999999995 -0.64951905283832922 1.6000000000000001 954
0.3749999999999995 -0.64951905283832922 1.8 955
0.3749999999999995 -0.64951905283832922 2 956
0.43749999999999944 -0.75777222831138413 0 957
0.43749999999999944 -0.75777222831138413 0.20000000000000001 958
0.43749999999999944 -0.75777222831138413 0.40000000000000002 959
0.43749999999999944 -0.75777222831138413 0.59999999999999998 960
0.43749999999999944 -0.75777222831138413 0.80000000000000004 961
0.43749999999999944 -0.75777222831138413 1 962
0.43749999999999944 -0.75777222831138413 1.2 963
0.43749999999999944 -0.75777222831138413 1.3999999999999999 964
0.43749999999999944 -0.75777222831138413 1.6000000000000001 965
0.43749999999999944 -0.75777222831138413 1.8 966
0.43749999999999944 -0.75777222831138413 2 967
0.49999999999999933 -0.86602540378443904 0 968
0.49999999999999933 -0.86602540378443904 0.20000000000000001 969
0.49999999999999933 -0.86602540378443904 0.40000000000000002 970
0.49999999999999933 -0.86602540378443904 0.59999999999999998 971
0.49999999999999933 -0.86602540378443904 0.80000000000000004 972
0.49999999999999933 -0.86602540378443904 1 973
0.49999999999999933 -0.86602540378443904 1.2 974
0.49999999999999933 -0.86602540378443904 1.3999999999999999 975
0.49999999999999933 -0.86602540378443904 1.6000000000000001 976
0.49999999999999933 -0.86602540378443904 1.8 977
0.49999999999999933 -0.86602540378443904 2 978
0.1082531754730548 -0.062500000000000056 0 979
0.1082531754730548 -0.062500000000000056 0.20000000000000001 980
0.1082531754730548 -0.062500000000000056 0.40000000000000002 981
0.1082531754730548 -0.062500000000000056 0.59999999999999998 982
0.1082531754730548 -0.062500000000000056 0.80000000000000004 983
0.1082531754730548 -0.062500000000000056 1 984
0.1082531754730548 -0.062500000000000056 1.2 985
0.1082531754730548 -0.062500000000000056 1.3999999999999999 986
0.1082531754730548 -0.062500000000000056 1.6000000000000001 987
0.1082531754730548 -0.062500000000000056 1.8 988
0.1082531754730548 -0.062500000000000056 2 989
0.21650635094610959 -0.12500000000000011 0 990
0.21650635094610959 -0.12500000000000011 0.20000000000000001 991
0.21650635094610959 -0.12500000000000011 0.40000000000000002 992
0.21650635094610959 -0.12500000000000011 0.59999999999999998 993
0.21650635094610959 -0.12500000000000011 0.80000000000000004 994
0.21650635094610959 -0.12500000000000011 1 995
0.21650635094610959 -0.12500000000000011 1.2 996
0.21650635094610959 -0.12500000000000011 1.3999999999999999 997
0.21650635094610959 -0.12500000000000011 1.6000000000000001 998
0.21650635094610959 -0.12500000000000011 1.8 999
0.21650635094610959 -0.12500000000000011 2 1000
0.32475952641916439 -0.18750000000000017 0 1001
0.32475952641916439 -0.18750000000000017 0.20000000000000001 1002
0.32475952641916439 -0.18750000000000017 0.40000000000000002 1003
0.32475952641916439 -0.18750000000000017 0.59999999999999998 1004
0.32475952641916439 -0.18750000000000017 0.80000000000000004 1005
0.32475952641916439 -0.18750000000000017 1 1006
0.32475952641916439 -0.18750000000000017 1.2 1007
0.32475952641916439 -0.18750000000000017 1.3999999999999999 1008
0.32475952641916439 -0.18750000000000017 1.6000000000000001 1009
0.32475952641916439 -0.18750000000000017 1.8 1010
0.32475952641916439 -0.18750000000000017 2 1011
0.43301270189221919 -0.25000000000000022 0 1012
0.43301270189221919 -0.25000000000000022 0.20000000000000001 1013
0.43301270189221919 -0.25000000000000022 0.40000000000000002 1014
0.43301270189221919 -0.25000000000000022 0.59999999999999998 1015
0.43301270189221919 -0.25000000000000022 0.80000000000000004 1016
0.43301270189221919 -0.25000000000000022 1 1017
0.43301270189221919 -0.25000000000000022 1.2 1018
0.43301270189221919 -0.25000000000000022 1.3999999999999999 1019
0.43301270189221919 -0.25000000000000022 1.6000000000000001 1020
0.43301270189221919 -0.25000000000000022 1.8 1021
0.43301270189221919 -0.25000000000000022 2 1022
0.54126587736527398 -0.31250000000000028 0 1023
0.54126587736527398 -0.31250000000000028 0.20000000000000001 1024
0.54126587736527398 -0.31250000000000028 0.40000000000000002 1025
0.54126587736527398 -0.31250000000000028 0.59999999999999998 1026
0.54126587736527398 -0.31250000000000028 0.80000000000000004 1027
0.54126587736527398 -0.31250000000000028 1 1028
0.54126587736527398 -0.31250000000000028 1.2 1029
0.54126587736527398 -0.31250000000000028 1.3999999999999999 1030
0.54126587736527398 -0.31250000000000028 1.6000000000000001 1031
0.54126587736527398 -0.31250000000000028 1.8 1032
0.54126587736527398 -0.31250000000000028 2 1033
0.64951905283832878 -0.37500000000000033 0 1034
0.64951905283832878 -0.37500000000000033 0.20000000000000001 1035
0.64951905283832878 -0.37500000000000033 0.40000000000000002 1036
0.64951905283832878 -0.37500000000000033 0.59999999999999998 1037
0.64951905283832878 -0.37500000000000033 0.80000000000000004 1038
0.64951905283832878 -0.37500000000000033 1 1039
0.64951905283832878 -0.37500000000000033 1.2 1040
0.64951905283832878 -0.37500000000000033 1.3999999999999999 1041
0.64951905283832878 -0.37500000000000033 1.6000000000000001 1042
0.64951905283832878 -0.37500000000000033 1.8 1043
0.64951905283832878 -0.37500000000000033 2 1044
0.75777222831138358 -0.43750000000000039 0 1045
0.75777222831138358 -0.43750000000000039 0.20000000000000001 1046
0.75777222831138358 -0.43750000000000039 0.40000000000000002 1047
0.75777222831138358 -0.43750000000000039 0.59999999999999998 1048
0.75777222831138358 -0.43750000000000039 0.80000000000000004 1049
0.75777222831138358 -0.43750000000000039 1 1050
0.75777222831138358 -0.43750000000000039 1.2 1051
0.75777222831138358 -0.43750000000000039 1.3999999999999999 1052
0.75777222831138358 -0.43750000000000039 1.6000000000000001 1053
0.75777222831138358 -0.43750000000000039 1.8 1054
0.75777222831138358 -0.43750000000000039 2 1055
0.86602540378443837 -0.50000000000000044 0 1056
0.86602540378443837 -0.50000000000000044 0.20000000000000001 1057
0.86602540378443837 -0.50000000000000044 0.40000000000000002 1058
0.86602540378443837 -0.50000000000000044 0.59999999999999998 1059
0.86602540378443837 -0.50000000000000044 0.80000000000000004 1060
0.86602540378443837 -0.50000000000000044 1 1061
0.86602540378443837 -0.50000000000000044 1.2 1062
0.86602540378443837 -0.50000000000000044 1.3999999999999999 1063
0.86602540378443837 -0.50000000000000044 1.6000000000000001 1064
0.86602540378443837 -0.50000000000000044 1.8 1065
0.86602540378443837 -0.50000000000000044 2 1066
NMARK= 3
MARKER_TAG= inlet
MARKER_ELEMS= 96
5 0 11 99
9 11 22 110 99
9 22 33 121 110
9 33 44 132 121
9 44 55 143 132
9 55 66 154 143
9 66 77 165 154
9 77 88 176 165
5 0 99 187
9 99 110 198 187
9 110 121 209 198
9 121 132 220 209
9 132 143 231 220
9 143 154 242 231
9 154 165 253 242
9 165 176 264 253
5 0 187 275
9 187 198 286 275
9 198 209 297 286
9 209 220 308 297
9 220 231 319 308
9 231 242 330 319
9 242 253 341 330
9 253 264 352 341
5 0 275 363
9 275 286 374 363
9 286 297 385 374
9 297 308 396 385
9 308 319 407 396
9 319 330 418 407
9 330 341 429 418
9 341 352 440 429
5 0 363 451
9 363 374 462 451
9 374 385 473 462
9 385 396 484 473
9 396 407 495 484
9 407 418 506 495
9 418 429 517 506
9 429 440 528 517
5 0 451 539
9 451 462 550 539
9 462 473 561 550
9 473 484 572 561
9 484 495 583 572
9 495 506 594 583
9 506 517 605 594
9 517 528 616 605
5 0 539 627
9 539 550 638 627
9 550 561 649 638
9 561 572 660 649
9 572 583 671 660
9 583 594 682 671
9 594 605 693 682
9 605 616 704 693
5 0 627 715
9 627 638 726 715
9 638 649 737 726
9 649 660 748 737
9 660 671 759 748
9 671 682 770 759
9 682 693 781 770
9 693 704 792 781
5 0 715 803
9 715 726 814 803
9 726 737 825 814
9 737 748 836 825
9 748 759 847 836
9 759 770 858 847
9 770 781 869 858
9 781 792 880 869
5 0 803 891
9 803 814 902 891
9 814 825 913 902
9 825 836 924 913
9 836 847 935 924
9 847 858 946 935
9 858 869 957 946
9 869 880 968 957
5 0 891 979
9 891 902 990 979
9 902 913 1001 990
9 913 924 1012 1001
9 924 935 1023 1012
9 935 946 1034 1023
9 946 957 1045 1034
9 957 968 1056 1045
5 0 979 11
9 979 990 22 11
9 990 1001 33 22
9 1001 1012 44 33
9 1012 1023 55 44
9 1023 1034 66 55
9 1034 1045 77 66
9 1045 1056 88 77
MARKER_TAG= outlet
MARKER_ELEMS= 96
5 10 21 109
9 21 32 120 109
9 32 43 131 120
9 43 54 142 131
9 54 65 153 142
9 65 76 164 153
9 76 87 175 164
9 87 98 186 175
5 10 109 197
9 109 120 208 197
9 120 131 219 208
9 131 142 230 219
9 142 153 241 230
9 153 164 252 241
9 164 175 263 252
9 175 186 274 263
5 10 197 285
9 197 208 296 285
9 208 219 307 296
9 219 230 318 307
9 230 241 329 318
9 241 252 340 329
9 252 263 351 340
9 263 274 362 351
5 10 285 373
9 285 296 384 373
9 296 307 395 384
9 307 318 406 395
9 318 329 417 406
9 329 340 428 417
9 340 351 439 428
9 351 362 450 439
5 10 373 461
9 373 384 472 461
9 384 395 483 472
9 395 406 494 483
9 406 417 505 494
9 417 428 516 505
9 428 439 527 516
9 439 450 538 527
5 10 461 549
9 461 472 560 549
9 472 483 571 560
9 483 494 582 571
9 494 505 593 582
9 505 516 604 593
9 516 527 615 604
9 527 538 626 615
5 10 549 637
9 549 560 648 637
9 560 571 659 648
9 571 582 670 659
9 582 593 681 670
9 593 604 692 681
9 604 615 703 692
9 615 626 714 703
5 10 637 725
9 637 648 736 725
9 648 659 747 736
9 659 670 758 747
9 670 681 769 758
9 681 692 780 769
9 692 703 791 780
9 703 714 802 791
5 10 725 813
9 725 736 824 813
9 736 747 835 824
9 747 758 846 835
9 758 769 857 846
9 769 780 868 857
9 780 791 879 868
9 791 802 890 879
5 10 813 901
9 813 824 912 901
9 824 835 923 912
9 835 846 934 923
9 846 857 945 934
9 857 868 956 945
9 868 879 967 956
9 879 890 978 967
5 10 901 989
9 901 912 1000 989
9 912 923 1011 1000
9 923 934 1022 1011
9 934 945 1033 1022
9 945 956 1044 1033
9 956 967 1055 1044
9 967 978 1066 1055
5 10 989 21
9 989 1000 32 21
9 1000 1011 43 32
9 1011 1022 54 43
9 1022 1033 65 54
9 1033 1044 76 65
9 1044 1055 87 76
9 1055 1066 98 87
MARKER_TAG= wall
MARKER_ELEMS= 120
9 88 176 177 89
9 176 264 265 177
9 264 352 353 265
9 352 440 441 353
9 440 528 529 441
9 528 616 617 529
9 616 704 705 617
9 704 792 793 705
9 792 880 881 793
9 880 968 969 881
9 968 1056 1057 969
9 1056 88 89 1057
9 89 177 178 90
9 177 265 266 178
9 265 353 354 266
9 353 441 442 354
9 441 529 530 442
9 529 617 618 530
9 617 705 706 618
9 705 793 794 706
9 793 881 882 794
9 881 969 970 882
9 969 1057 1058 970
9 1057 89 90 1058
9 90 178 179 91
9 178 266 267 179
9 266 354 355 267
9 354 442 443 355
9 442 530 531 443
9 530 618 619 531
9 618 706 707 619
9 706 794 795 707
9 794 882 883 795
9 882 970 971 883
9 970 1058 1059 971
9 1058 90 91 1059
9 91 179 180 92
9 179 267 268 180
9 267 355 356 268
9 355 443 444 356
9 443 531 532 444
9 531 619 620 532
9 619 707 708 620
9 707 795 796 708
9 795 883 884 796
9 883 971 972 884
9 971 1059 1060 972
9 1059 91 92 1060
9 92 180 181 93
9 180 268 269 181
9 268 356 357 269
9 356 444 445 357
9 444 532 533 445
9 532 620 621 533
9 620 708 709 621
9 708 796 797 709
9 796 884 885 797
9 884 972 973 885
9 972 1060 1061 973
9 1060 92 93 1061
9 93 181 182 94
9 181 269 270 182
9 269 357 358 270
9 357 445 446 358
9 445 533 534 446
9 533 621 622 534
9 621 709 710 622
9 709 797 798 710
9 797 885 886 798
9 885 973 974 886
9 973 1061 1062 974
9 1061 93 94 1062
9 94 182 183 95
9 182 270 271 183
9 270 358 359 271
9 358 446 447 359
9 446 534 535 447
9 534 622 623 535
9 622 710 711 623
9 710 798 799 711
9 798 886 887 799
9 886 974 975 887
9 974 1062 1063 975
9 1062 94 95 1063
9 95 183 184 96
9 183 271 272 184
9 271 359 360 272
9 359 447 448 360
9 447 535 536 448
9 535 623 624 536
9 623 711 712 624
9 711 799 800 712
9 799 887 888 800
9 887 975 976 888
9 975 1063 1064 976
9 1063 95 96 1064
9 96 184 185 97
9 184 272 273 185
9 272 360 361 273
9 360 448 449 361
9 448 536 537 449
9 536 624 625 537
9 624 712 713 625
9 712 800 801 713
9 800 888 889 801
9 888 976 977 889
9 976 1064 1065 977
9 1064 96 97 1065
9 97 185 186 98
9 185 273 274 186
9 273 361 362 274
9 361 449 450 362
9 449 537 538 450
9 537 625 626 538
9 625 713 714 626
9 713 801 802 714
9 801 889 890 802
9 889 977 978 890
9 977 1065 1066 978
9 1065 97 98 1066
