NDIME= 3
NELEM= 240
13 0 11 99 1 12 100 0
12 11 22 110 99 12 23 111 100 1
12 22 33 121 110 23 34 122 111 2
12 33 44 132 121 34 45 133 122 3
12 44 55 143 132 45 56 144 133 4
12 55 66 154 143 56 67 155 144 5
12 66 77 165 154 67 78 166 155 6
12 77 88 176 165 78 89 177 166 7
13 0 99 187 1 100 188 8
12 99 110 198 187 100 111 199 188 9
12 110 121 209 198 111 122 210 199 10
12 121 132 220 209 122 133 221 210 11
12 132 143 231 220 133 144 232 221 12
12 143 154 242 231 144 155 243 232 13
12 154 165 253 242 155 166 254 243 14
12 165 176 264 253 166 177 265 254 15
13 0 187 275 1 188 276 16
12 187 198 286 275 188 199 287 276 17
12 198 209 297 286 199 210 298 287 18
12 209 220 308 297 210 221 309 298 19
12 220 231 319 308 221 232 320 309 20
12 231 242 330 319 232 243 331 320 21
12 242 253 341 330 243 254 342 331 22
12 253 264 352 341 254 265 353 342 23
13 1 12 100 2 13 101 24
12 12 23 111 100 13 24 112 101 25
12 23 34 122 111 24 35 123 112 26
12 34 45 133 122 35 46 134 123 27
12 45 56 144 133 46 57 145 134 28
12 56 67 155 144 57 68 156 145 29
12 67 78 166 155 68 79 167 156 30
12 78 89 177 166 79 90 178 167 31
13 1 100 188 2 101 189 32
12 100 111 199 188 101 112 200 189 33
12 111 122 210 199 112 123 211 200 34
12 122 133 221 210 123 134 222 211 35
12 133 144 232 221 134 145 233 222 36
12 144 155 243 232 145 156 244 233 37
12 155 166 254 243 156 167 255 244 38
12 166 177 265 254 167 178 266 255 39
13 1 188 276 2 189 277 40
12 188 199 287 276 189 200 288 277 41
12 199 210 298 287 200 211 299 288 42
12 210 221 309 298 211 222 310 299 43
12 221 232 320 309 222 233 321 310 44
12 232 243 331 320 233 244 332 321 45
12 243 254 342 331 244 255 343 332 46
12 254 265 353 342 255 266 354 343 47
13 2 13 101 3 14 102 48
12 13 24 112 101 14 25 113 102 49
12 24 35 123 112 25 36 124 113 50
12 35 46 134 123 36 47 135 124 51
12 46 57 145 134 47 58 146 135 52
12 57 68 156 145 58 69 157 146 53
12 68 79 167 156 69 80 168 157 54
12 79 90 178 167 80 91 179 168 55
13 2 101 189 3 102 190 56
12 101 112 200 189 102 113 201 190 57
12 112 123 211 200 113 124 212 201 58
12 123 134 222 211 124 135 223 212 59
12 134 145 233 222 135 146 234 223 60
12 145 156 244 233 146 157 245 234 61
12 156 167 255 244 157 168 256 245 62
12 167 178 266 255 168 179 267 256 63
13 2 189 277 3 190 278 64
12 189 200 288 277 190 201 289 278 65
12 200 211 299 288 201 212 300 289 66
12 211 222 310 299 212 223 311 300 67
12 222 233 321 310 223 234 322 311 68
12 233 244 332 321 234 245 333 322 69
12 244 255 343 332 245 256 344 333 70
12 255 266 354 343 256 267 355 344 71
13 3 14 102 4 15 103 72
12 14 25 113 102 15 26 114 103 73
12 25 36 124 113 26 37 125 114 74
12 36 47 135 124 37 48 136 125 75
12 47 58 146 135 48 59 147 136 76
12 58 69 157 146 59 70 158 147 77
12 69 80 168 157 70 81 169 158 78
12 80 91 179 168 81 92 180 169 79
13 3 102 190 4 103 191 80
12 102 113 201 190 103 114 202 191 81
12 113 124 212 201 114 125 213 202 82
12 124 135 223 212 125 136 224 213 83
12 135 146 234 223 136 147 235 224 84
12 146 157 245 234 147 158 246 235 85
12 157 168 256 245 158 169 257 246 86
12 168 179 267 256 169 180 268 257 87
13 3 190 278 4 191 279 88
12 190 201 289 278 191 202 290 279 89
12 201 212 300 289 202 213 301 290 90
12 212 223 311 300 213 224 312 301 91
12 223 234 322 311 224 235 323 312 92
12 234 245 333 322 235 246 334 323 93
12 245 256 344 333 246 257 345 334 94
12 256 267 355 344 257 268 356 345 95
13 4 15 103 5 16 104 96
12 15 26 114 103 16 27 115 104 97
12 26 37 125 114 27 38 126 115 98
12 37 48 136 125 38 49 137 126 99
12 48 59 147 136 49 60 148 137 100
12 59 70 158 147 60 71 159 148 101
12 70 81 169 158 71 82 170 159 102
12 81 92 180 169 82 93 181 170 103
13 4 103 191 5 104 192 104
12 103 114 202 191 104 115 203 192 105
12 114 125 213 202 115 126 214 203 106
12 125 136 224 213 126 137 225 214 107
12 136 147 235 224 137 148 236 225 108
12 147 158 246 235 148 159 247 236 109
12 158 169 257 246 159 170 258 247 110
12 169 180 268 257 170 181 269 258 111
13 4 191 279 5 192 280 112
12 191 202 290 279 192 203 291 280 113
12 202 213 301 290 203 214 302 291 114
12 213 224 312 301 214 225 313 302 115
12 224 235 323 312 225 236 324 313 116
12 235 246 334 323 236 247 335 324 117
12 246 257 345 334 247 258 346 335 118
12 257 268 356 345 258 269 357 346 119
13 5 16 104 6 17 105 120
12 16 27 115 104 17 28 116 105 121
12 27 38 126 115 28 39 127 116 122
12 38 49 137 126 39 50 138 127 123
12 49 60 148 137 50 61 149 138 124
12 60 71 159 148 61 72 160 149 125
12 71 82 170 159 72 83 171 160 126
12 82 93 181 170 83 94 182 171 127
13 5 104 192 6 105 193 128
12 104 115 203 192 105 116 204 193 129
12 115 126 214 203 116 127 215 204 130
12 126 137 225 214 127 138 226 215 131
12 137 148 236 225 138 149 237 226 132
12 148 159 247 236 149 160 248 237 133
12 159 170 258 247 160 171 259 248 134
12 170 181 269 258 171 182 270 259 135
13 5 192 280 6 193 281 136
12 192 203 291 280 193 204 292 281 137
12 203 214 302 291 204 215 303 292 138
12 214 225 313 302 215 226 314 303 139
12 225 236 324 313 226 237 325 314 140
12 236 247 335 324 237 248 336 325 141
12 247 258 346 335 248 259 347 336 142
12 258 269 357 346 259 270 358 347 143
13 6 17 105 7 18 106 144
12 17 28 116 105 18 29 117 106 145
12 28 39 127 116 29 40 128 117 146
12 39 50 138 127 40 51 139 128 147
12 50 61 149 138 51 62 150 139 148
12 61 72 160 149 62 73 161 150 149
12 72 83 171 160 73 84 172 161 150
12 83 94 182 171 84 95 183 172 151
13 6 105 193 7 106 194 152
12 105 116 204 193 106 117 205 194 153
12 116 127 215 204 117 128 216 205 154
12 127 138 226 215 128 139 227 216 155
12 138 149 237 226 139 150 238 227 156
12 149 160 248 237 150 161 249 238 157
12 160 171 259 248 161 172 260 249 158
12 171 182 270 259 172 183 271 260 159
13 6 193 281 7 194 282 160
12 193 204 292 281 194 205 293 282 161
12 204 215 303 292 205 216 304 293 162
12 215 226 314 303 216 227 315 304 163
12 226 237 325 314 227 238 326 315 164
12 237 248 336 325 238 249 337 326 165
12 248 259 347 336 249 260 348 337 166
12 259 270 358 347 260 271 359 348 167
13 7 18 106 8 19 107 168
12 18 29 117 106 19 30 118 107 169
12 29 40 128 117 30 41 129 118 170
12 40 51 139 128 41 52 140 129 171
12 51 62 150 139 52 63 151 140 172
12 62 73 161 150 63 74 162 151 173
12 73 84 172 161 74 85 173 162 174
12 84 95 183 172 85 96 184 173 175
13 7 106 194 8 107 195 176
12 106 117 205 194 107 118 206 195 177
12 117 128 216 205 118 129 217 206 178
12 128 139 227 216 129 140 228 217 179
12 139 150 238 227 140 151 239 228 180
12 150 161 249 238 151 162 250 239 181
12 161 172 260 249 162 173 261 250 182
12 172 183 271 260 173 184 272 261 183
13 7 194 282 8 195 283 184
12 194 205 293 282 195 206 294 283 185
12 205 216 304 293 206 217 305 294 186
12 216 227 315 304 217 228 316 305 187
12 227 238 326 315 228 239 327 316 188
12 238 249 337 326 239 250 338 327 189
12 249 260 348 337 250 261 349 338 190
12 260 271 359 348 261 272 360 349 191
13 8 19 107 9 20 108 192
12 19 30 118 107 20 31 119 108 193
12 30 41 129 118 31 42 130 119 194
12 41 52 140 129 42 53 141 130 195
12 52 63 151 140 53 64 152 141 196
12 63 74 162 151 64 75 163 152 197
12 74 85 173 162 75 86 174 163 198
12 85 96 184 173 86 97 185 174 199
13 8 107 195 9 108 196 200
12 107 118 206 195 108 119 207 196 201
12 118 129 217 206 119 130 218 207 202
12 129 140 228 217 130 141 229 218 203
12 140 151 239 228 141 152 240 229 204
12 151 162 250 239 152 163 251 240 205
12 162 173 261 250 163 174 262 251 206
12 173 184 272 261 174 185 273 262 207
13 8 195 283 9 196 284 208
12 195 206 294 283 196 207 295 284 209
12 206 217 305 294 207 218 306 295 210
12 217 228 316 305 218 229 317 306 211
12 228 239 327 316 229 240 328 317 212
12 239 250 338 327 240 251 339 328 213
12 250 261 349 338 251 262 350 339 214
12 261 272 360 349 262 273 361 350 215
13 9 20 108 10 21 109 216
12 20 31 119 108 21 32 120 109 217
12 31 42 130 119 32 43 131 120 218
12 42 53 141 130 43 54 142 131 219
12 53 64 152 141 54 65 153 142 220
12 64 75 163 152 65 76 164 153 221
12 75 86 174 163 76 87 175 164 222
12 86 97 185 174 87 98 186 175 223
13 9 108 196 10 109 197 224
12 108 119 207 196 109 120 208 197 225
12 119 130 218 207 120 131 219 208 226
12 130 141 229 218 131 142 230 219 227
12 141 152 240 229 142 153 241 230 228
12 152 163 251 240 153 164 252 241 229
12 163 174 262 251 164 175 263 252 230
12 174 185 273 262 175 186 274 263 231
13 9 196 284 10 197 285 232
12 196 207 295 284 197 208 296 285 233
12 207 218 306 295 208 219 307 296 234
12 218 229 317 306 219 230 318 307 235
12 229 240 328 317 230 241 329 318 236
12 240 251 339 328 241 252 340 329 237
12 251 262 350 339 252 263 351 340 238
12 262 273 361 350 263 274 362 351 239
NPOIN= 363
0 0 0 0
0 0 0.20000000000000001 1
0 0 0.40000000000000002 2
0 0 0.59999999999999998 3
0 0 0.80000000000000004 4
0 0 1 5
0 0 1.2 6
0 0 1.3999999999999999 7
0 0 1.6000000000000001 8
0 0 1.8 9
0 0 2 10
0.125 0 0 11
0.125 0 0.20000000000000001 12
0.125 0 0.40000000000000002 13
0.125 0 0.59999999999999998 14
0.125 0 0.80000000000000004 15
0.125 0 1 16
0.125 0 1.2 17
0.125 0 1.3999999999999999 18
0.125 0 1.6000000000000001 19
0.125 0 1.8 20
0.125 0 2 21
0.25 0 0 22
0.25 0 0.20000000000000001 23
0.25 0 0.40000000000000002 24
0.25 0 0.59999999999999998 25
0.25 0 0.80000000000000004 26
0.25 0 1 27
0.25 0 1.2 28
0.25 0 1.3999999999999999 29
0.25 0 1.6000000000000001 30
0.25 0 1.8 31
0.25 0 2 32
0.375 0 0 33
0.375 0 0.20000000000000001 34
0.375 0 0.40000000000000002 35
0.375 0 0.59999999999999998 36
0.375 0 0.80000000000000004 37
0.375 0 1 38
0.375 0 1.2 39
0.375 0 1.3999999999999999 40
0.375 0 1.6000000000000001 41
0.375 0 1.8 42
0.375 0 2 43
0.5 0 0 44
0.5 0 0.20000000000000001 45
0.5 0 0.40000000000000002 46
0.5 0 0.59999999999999998 47
0.5 0 0.80000000000000004 48
0.5 0 1 49
0.5 0 1.2 50
0.5 0 1.3999999999999999 51
0.5 0 1.6000000000000001 52
0.5 0 1.8 53
0.5 0 2 54
0.625 0 0 55
0.625 0 0.20000000000000001 56
0.625 0 0.40000000000000002 57
0.625 0 0.59999999999999998 58
0.625 0 0.80000000000000004 59
0.625 0 1 60
0.625 0 1.2 61
0.625 0 1.3999999999999999 62
0.625 0 1.6000000000000001 63
0.625 0 1.8 64
0.625 0 2 65
0.75 0 0 66
0.75 0 0.20000000000000001 67
0.75 0 0.40000000000000002 68
0.75 0 0.59999999999999998 69
0.75 0 0.80000000000000004 70
0.75 0 1 71
0.75 0 1.2 72
0.75 0 1.3999999999999999 73
0.75 0 1.6000000000000001 74
0.75 0 1.8 75
0.75 0 2 76
0.875 0 0 77
0.875 0 0.20000000000000001 78
0.875 0 0.40000000000000002 79
0.875 0 0.59999999999999998 80
0.875 0 0.80000000000000004 81
0.875 0 1 82
0.875 0 1.2 83
0.875 0 1.3999999999999999 84
0.875 0 1.6000000000000001 85
0.875 0 1.8 86
0.875 0 2 87
1 0 0 88
1 0 0.20000000000000001 89
1 0 0.40000000000000002 90
1 0 0.59999999999999998 91
1 0 0.80000000000000004 92
1 0 1 93
1 0 1.2 94
1 0 1.3999999999999999 95
1 0 1.6000000000000001 96
1 0 1.8 97
1 0 2 98
0.10825317547305484 0.062499999999999993 0 99
0.10825317547305484 0.062499999999999993 0.20000000000000001 100
0.10825317547305484 0.062499999999999993 0.40000000000000002 101
0.10825317547305484 0.062499999999999993 0.59999999999999998 102
0.10825317547305484 0.062499999999999993 0.80000000000000004 103
0.10825317547305484 0.062499999999999993 1 104
0.10825317547305484 0.062499999999999993 1.2 105
0.10825317547305484 0.062499999999999993 1.3999999999999999 106
0.10825317547305484 0.062499999999999993 1.6000000000000001 107
0.10825317547305484 0.062499999999999993 1.8 108
0.10825317547305484 0.062499999999999993 2 109
0.21650635094610968 0.12499999999999999 0 110
0.21650635094610968 0.12499999999999999 0.20000000000000001 111
0.21650635094610968 0.12499999999999999 0.40000000000000002 112
0.21650635094610968 0.12499999999999999 0.59999999999999998 113
0.21650635094610968 0.12499999999999999 0.80000000000000004 114
0.21650635094610968 0.12499999999999999 1 115
0.21650635094610968 0.12499999999999999 1.2 116
0.21650635094610968 0.12499999999999999 1.3999999999999999 117
0.21650635094610968 0.12499999999999999 1.6000000000000001 118
0.21650635094610968 0.12499999999999999 1.8 119
0.21650635094610968 0.12499999999999999 2 120
0.3247595264191645 0.18749999999999997 0 121
0.3247595264191645 0.18749999999999997 0.20000000000000001 122
0.3247595264191645 0.18749999999999997 0.40000000000000002 123
0.3247595264191645 0.18749999999999997 0.59999999999999998 124
0.3247595264191645 0.18749999999999997 0.80000000000000004 125
0.3247595264191645 0.18749999999999997 1 126
0.3247595264191645 0.18749999999999997 1.2 127
0.3247595264191645 0.18749999999999997 1.3999999999999999 128
0.3247595264191645 0.18749999999999997 1.6000000000000001 129
0.3247595264191645 0.18749999999999997 1.8 130
0.3247595264191645 0.18749999999999997 2 131
0.43301270189221935 0.24999999999999997 0 132
0.43301270189221935 0.24999999999999997 0.20000000000000001 133
0.43301270189221935 0.24999999999999997 0.40000000000000002 134
0.43301270189221935 0.24999999999999997 0.59999999999999998 135
0.43301270189221935 0.24999999999999997 0.80000000000000004 136
0.43301270189221935 0.24999999999999997 1 137
0.43301270189221935 0.24999999999999997 1.2 138
0.43301270189221935 0.24999999999999997 1.3999999999999999 139
0.43301270189221935 0.24999999999999997 1.6000000000000001 140
0.43301270189221935 0.24999999999999997 1.8 141
0.43301270189221935 0.24999999999999997 2 142
0.54126587736527421 0.31249999999999994 0 143
0.54126587736527421 0.31249999999999994 0.20000000000000001 144
0.54126587736527421 0.31249999999999994 0.40000000000000002 145
0.54126587736527421 0.31249999999999994 0.59999999999999998 146
0.54126587736527421 0.31249999999999994 0.80000000000000004 147
0.54126587736527421 0.31249999999999994 1 148
0.54126587736527421 0.31249999999999994 1.2 149
0.54126587736527421 0.31249999999999994 1.3999999999999999 150
0.54126587736527421 0.31249999999999994 1.6000000000000001 151
0.54126587736527421 0.31249999999999994 1.8 152
0.54126587736527421 0.31249999999999994 2 153
0.649519052838329 0.37499999999999994 0 154
0.649519052838329 0.37499999999999994 0.20000000000000001 155
0.649519052838329 0.37499999999999994 0.40000000000000002 156
0.649519052838329 0.37499999999999994 0.59999999999999998 157
0.649519052838329 0.37499999999999994 0.80000000000000004 158
0.649519052838329 0.37499999999999994 1 159
0.649519052838329 0.37499999999999994 1.2 160
0.649519052838329 0.37499999999999994 1.3999999999999999 161
0.649519052838329 0.37499999999999994 1.6000000000000001 162
0.649519052838329 0.37499999999999994 1.8 163
0.649519052838329 0.37499999999999994 2 164
0.75777222831138391 0.43749999999999994 0 165
0.75777222831138391 0.43749999999999994 0.20000000000000001 166
0.75777222831138391 0.43749999999999994 0.40000000000000002 167
0.75777222831138391 0.43749999999999994 0.59999999999999998 168
0.75777222831138391 0.43749999999999994 0.80000000000000004 169
0.75777222831138391 0.43749999999999994 1 170
0.75777222831138391 0.43749999999999994 1.2 171
0.75777222831138391 0.43749999999999994 1.3999999999999999 172
0.75777222831138391 0.43749999999999994 1.6000000000000001 173
0.75777222831138391 0.43749999999999994 1.8 174
0.75777222831138391 0.43749999999999994 2 175
0.86602540378443871 0.49999999999999994 0 176
0.86602540378443871 0.49999999999999994 0.20000000000000001 177
0.86602540378443871 0.49999999999999994 0.40000000000000002 178
0.86602540378443871 0.49999999999999994 0.59999999999999998 179
0.86602540378443871 0.49999999999999994 0.80000000000000004 180
0.86602540378443871 0.49999999999999994 1 181
0.86602540378443871 0.49999999999999994 1.2 182
0.86602540378443871 0.49999999999999994 1.3999999999999999 183
0.86602540378443871 0.49999999999999994 1.6000000000000001 184
0.86602540378443871 0.49999999999999994 1.8 185
0.86602540378443871 0.49999999999999994 2 186
0.062500000000000014 0.10825317547305482 0 187
0.062500000000000014 0.10825317547305482 0.20000000000000001 188
0.062500000000000014 0.10825317547305482 0.40000000000000002 189
0.062500000000000014 0.10825317547305482 0.59999999999999998 190
0.062500000000000014 0.10825317547305482 0.80000000000000004 191
0.062500000000000014 0.10825317547305482 1 192
0.062500000000000014 0.10825317547305482 1.2 193
0.062500000000000014 0.10825317547305482 1.3999999999999999 194
0.062500000000000014 0.10825317547305482 1.6000000000000001 195
0.062500000000000014 0.10825317547305482 1.8 196
0.062500000000000014 0.10825317547305482 2 197
0.12500000000000003 0.21650635094610965 0 198
0.12500000000000003 0.21650635094610965 0.20000000000000001 199
0.12500000000000003 0.21650635094610965 0.40000000000000002 200
0.12500000000000003 0.21650635094610965 0.59999999999999998 201
0.12500000000000003 0.21650635094610965 0.80000000000000004 202
0.12500000000000003 0.21650635094610965 1 203
0.12500000000000003 0.21650635094610965 1.2 204
0.12500000000000003 0.21650635094610965 1.3999999999999999 205
0.12500000000000003 0.21650635094610965 1.6000000000000001 206
0.12500000000000003 0.21650635094610965 1.8 207
0.12500000000000003 0.21650635094610965 2 208
0.18750000000000006 0.3247595264191645 0 209
0.18750000000000006 0.3247595264191645 0.20000000000000001 210
0.18750000000000006 0.3247595264191645 0.40000000000000002 211
0.18750000000000006 0.3247595264191645 0.59999999999999998 212
0.18750000000000006 0.3247595264191645 0.80000000000000004 213
0.18750000000000006 0.3247595264191645 1 214
0.18750000000000006 0.3247595264191645 1.2 215
0.18750000000000006 0.3247595264191645 1.3999999999999999 216
0.18750000000000006 0.3247595264191645 1.6000000000000001 217
0.18750000000000006 0.3247595264191645 1.8 218
0.18750000000000006 0.3247595264191645 2 219
0.25000000000000006 0.4330127018922193 0 220
0.25000000000000006 0.4330127018922193 0.20000000000000001 221
0.25000000000000006 0.4330127018922193 0.40000000000000002 222
0.25000000000000006 0.4330127018922193 0.59999999999999998 223
0.25000000000000006 0.4330127018922193 0.80000000000000004 224
0.25000000000000006 0.4330127018922193 1 225
0.25000000000000006 0.4330127018922193 1.2 226
0.25000000000000006 0.4330127018922193 1.3999999999999999 227
0.25000000000000006 0.4330127018922193 1.6000000000000001 228
0.25000000000000006 0.4330127018922193 1.8 229
0.25000000000000006 0.4330127018922193 2 230
0.31250000000000006 0.5412658773652741 0 231
0.31250000000000006 0.5412658773652741 0.20000000000000001 232
0.31250000000000006 0.5412658773652741 0.40000000000000002 233
0.31250000000000006 0.5412658773652741 0.59999999999999998 234
0.31250000000000006 0.5412658773652741 0.80000000000000004 235
0.31250000000000006 0.5412658773652741 1 236
0.31250000000000006 0.5412658773652741 1.2 237
0.31250000000000006 0.5412658773652741 1.3999999999999999 238
0.31250000000000006 0.5412658773652741 1.6000000000000001 239
0.31250000000000006 0.5412658773652741 1.8 240
0.31250000000000006 0.5412658773652741 2 241
0.37500000000000011 0.649519052838329 0 242
0.37500000000000011 0.649519052838329 0.20000000000000001 243
0.37500000000000011 0.649519052838329 0.40000000000000002 244
0.37500000000000011 0.649519052838329 0.59999999999999998 245
0.37500000000000011 0.649519052838329 0.80000000000000004 246
0.37500000000000011 0.649519052838329 1 247
0.37500000000000011 0.649519052838329 1.2 248
0.37500000000000011 0.649519052838329 1.3999999999999999 249
0.37500000000000011 0.649519052838329 1.6000000000000001 250
0.37500000000000011 0.649519052838329 1.8 251
0.37500000000000011 0.649519052838329 2 252
0.43750000000000011 0.7577722283113838 0 253
0.43750000000000011 0.7577722283113838 0.20000000000000001 254
0.43750000000000011 0.7577722283113838 0.40000000000000002 255
0.43750000000000011 0.7577722283113838 0.59999999999999998 256
0.43750000000000011 0.7577722283113838 0.80000000000000004 257
0.43750000000000011 0.7577722283113838 1 258
0.43750000000000011 0.7577722283113838 1.2 259
0.43750000000000011 0.7577722283113838 1.3999999999999999 260
0.43750000000000011 0.7577722283113838 1.6000000000000001 261
0.43750000000000011 0.7577722283113838 1.8 262
0.43750000000000011 0.7577722283113838 2 263
0.50000000000000011 0.8660254037844386 0 264
0.50000000000000011 0.8660254037844386 0.20000000000000001 265
0.50000000000000011 0.8660254037844386 0.40000000000000002 266
0.50000000000000011 0.8660254037844386 0.59999999999999998 267
0.50000000000000011 0.8660254037844386 0.80000000000000004 268
0.50000000000000011 0.8660254037844386 1 269
0.50000000000000011 0.8660254037844386 1.2 270
0.50000000000000011 0.8660254037844386 1.3999999999999999 271
0.50000000000000011 0.8660254037844386 1.6000000000000001 272
0.50000000000000011 0.8660254037844386 1.8 273
0.50000000000000011 0.8660254037844386 2 274
7.6540424946709575e-18 0.125 0 275
7.6540424946709575e-18 0.125 0.20000000000000001 276
7.6540424946709575e-18 0.125 0.40000000000000002 277
7.6540424946709575e-18 0.125 0.59999999999999998 278
7.6540424946709575e-18 0.125 0.80000000000000004 279
7.6540424946709575e-18 0.125 1 280
7.6540424946709575e-18 0.125 1.2 281
7.6540424946709575e-18 0.125 1.3999999999999999 282
7.6540424946709575e-18 0.125 1.6000000000000001 283
7.6540424946709575e-18 0.125 1.8 284
7.6540424946709575e-18 0.125 2 285
1.5308084989341915e-17 0.25 0 286
1.5308084989341915e-17 0.25 0.20000000000000001 287
1.5308084989341915e-17 0.25 0.40000000000000002 288
1.5308084989341915e-17 0.25 0.59999999999999998 289
1.5308084989341915e-17 0.25 0.80000000000000004 290
1.5308084989341915e-17 0.25 1 291
1.5308084989341915e-17 0.25 1.2 292
1.5308084989341915e-17 0.25 1.3999999999999999 293
1.5308084989341915e-17 0.25 1.6000000000000001 294
1.5308084989341915e-17 0.25 1.8 295
1.5308084989341915e-17 0.25 2 296
2.2962127484012871e-17 0.375 0 297
2.2962127484012871e-17 0.375 0.20000000000000001 298
2.2962127484012871e-17 0.375 0.40000000000000002 299
2.2962127484012871e-17 0.375 0.59999999999999998 300
2.2962127484012871e-17 0.375 0.80000000000000004 301
2.2962127484012871e-17 0.375 1 302
2.2962127484012871e-17 0.375 1.2 303
2.2962127484012871e-17 0.375 1.3999999999999999 304
2.2962127484012871e-17 0.375 1.6000000000000001 305
2.2962127484012871e-17 0.375 1.8 306
2.2962127484012871e-17 0.375 2 307
3.061616997868383e-17 0.5 0 308
3.061616997868383e-17 0.5 0.20000000000000001 309
3.061616997868383e-17 0.5 0.40000000000000002 310
3.061616997868383e-17 0.5 0.59999999999999998 311
3.061616997868383e-17 0.5 0.80000000000000004 312
3.061616997868383e-17 0.5 1 313
3.061616997868383e-17 0.5 1.2 314
3.061616997868383e-17 0.5 1.3999999999999999 315
3.061616997868383e-17 0.5 1.6000000000000001 316
3.061616997868383e-17 0.5 1.8 317
3.061616997868383e-17 0.5 2 318
3.8270212473354789e-17 0.625 0 319
3.8270212473354789e-17 0.625 0.20000000000000001 320
3.8270212473354789e-17 0.625 0.40000000000000002 321
3.8270212473354789e-17 0.625 0.59999999999999998 322
3.8270212473354789e-17 0.625 0.80000000000000004 323
3.8270212473354789e-17 0.625 1 324
3.8270212473354789e-17 0.625 1.2 325
3.8270212473354789e-17 0.625 1.3999999999999999 326
3.8270212473354789e-17 0.625 1.6000000000000001 327
3.8270212473354789e-17 0.625 1.8 328
3.8270212473354789e-17 0.625 2 329
4.5924254968025742e-17 0.75 0 330
4.5924254968025742e-17 0.75 0.20000000000000001 331
4.5924254968025742e-17 0.75 0.40000000000000002 332
4.5924254968025742e-17 0.75 0.59999999999999998 333
4.5924254968025742e-17 0.75 0.80000000000000004 334
4.5924254968025742e-17 0.75 1 335
4.5924254968025742e-17 0.75 1.2 336
4.5924254968025742e-17 0.75 1.3999999999999999 337
4.5924254968025742e-17 0.75 1.6000000000000001 338
4.5924254968025742e-17 0.75 1.8 339
4.5924254968025742e-17 0.75 2 340
5.3578297462696701e-17 0.875 0 341
5.3578297462696701e-17 0.875 0.20000000000000001 342
5.3578297462696701e-17 0.875 0.40000000000000002 343
5.3578297462696701e-17 0.875 0.59999999999999998 344
5.3578297462696701e-17 0.875 0.80000000000000004 345
5.3578297462696701e-17 0.875 1 346
5.3578297462696701e-17 0.875 1.2 347
5.3578297462696701e-17 0.875 1.3999999999999999 348
5.3578297462696701e-17 0.875 1.6000000000000001 349
5.3578297462696701e-17 0.875 1.8 350
5.3578297462696701e-17 0.875 2 351
6.123233995736766e-17 1 0 352
6.123233995736766e-17 1 0.20000000000000001 353
6.123233995736766e-17 1 0.40000000000000002 354
6.123233995736766e-17 1 0.59999999999999998 355
6.123233995736766e-17 1 0.80000000000000004 356
6.123233995736766e-17 1 1 357
6.123233995736766e-17 1 1.2 358
6.123233995736766e-17 1 1.3999999999999999 359
6.123233995736766e-17 1 1.6000000000000001 360
6.123233995736766e-17 1 1.8 361
6.123233995736766e-17 1 2 362
NMARK= 5
MARKER_TAG= per1
MARKER_ELEMS= 80
9 0 11 12 1
9 11 22 23 12
9 22 33 34 23
9 33 44 45 34
9 44 55 56 45
9 55 66 67 56
9 66 77 78 67
9 77 88 89 78
9 1 12 13 2
9 12 23 24 13
9 23 34 35 24
9 34 45 46 35
9 45 56 57 46
9 56 67 68 57
9 67 78 79 68
9 78 89 90 79
9 2 13 14 3
9 13 24 25 14
9 24 35 36 25
9 35 46 47 36
9 46 57 58 47
9 57 68 69 58
9 68 79 80 69
9 79 90 91 80
9 3 14 15 4
9 14 25 26 15
9 25 36 37 26
9 36 47 48 37
9 47 58 59 48
9 58 69 70 59
9 69 80 81 70
9 80 91 92 81
9 4 15 16 5
9 15 26 27 16
9 26 37 38 27
9 37 48 49 38
9 48 59 60 49
9 59 70 71 60
9 70 81 82 71
9 81 92 93 82
9 5 16 17 6
9 16 27 28 17
9 27 38 39 28
9 38 49 50 39
9 49 60 61 50
9 60 71 72 61
9 71 82 83 72
9 82 93 94 83
9 6 17 18 7
9 17 28 29 18
9 28 39 40 29
9 39 50 51 40
9 50 61 62 51
9 61 72 73 62
9 72 83 84 73
9 83 94 95 84
9 7 18 19 8
9 18 29 30 19
9 29 40 41 30
9 40 51 52 41
9 51 62 63 52
9 62 73 74 63
9 73 84 85 74
9 84 95 96 85
9 8 19 20 9
9 19 30 31 20
9 30 41 42 31
9 41 52 53 42
9 52 63 64 53
9 63 74 75 64
9 74 85 86 75
9 85 96 97 86
9 9 20 21 10
9 20 31 32 21
9 31 42 43 32
9 42 53 54 43
9 53 64 65 54
9 64 75 76 65
9 75 86 87 76
9 86 97 98 87
MARKER_TAG= per2
MARKER_ELEMS= 80
9 0 275 276 1
9 275 286 287 276
9 286 297 298 287
9 297 308 309 298
9 308 319 320 309
9 319 330 331 320
9 330 341 342 331
9 341 352 353 342
9 1 276 277 2
9 276 287 288 277
9 287 298 299 288
9 298 309 310 299
9 309 320 321 310
9 320 331 332 321
9 331 342 343 332
9 342 353 354 343
9 2 277 278 3
9 277 288 289 278
9 288 299 300 289
9 299 310 311 300
9 310 321 322 311
9 321 332 333 322
9 332 343 344 333
9 343 354 355 344
9 3 278 279 4
9 278 289 290 279
9 289 300 301 290
9 300 311 312 301
9 311 322 323 312
9 322 333 334 323
9 333 344 345 334
9 344 355 356 345
9 4 279 280 5
9 279 290 291 280
9 290 301 302 291
9 301 312 313 302
9 312 323 324 313
9 323 334 335 324
9 334 345 346 335
9 345 356 357 346
9 5 280 281 6
9 280 291 292 281
9 291 302 303 292
9 302 313 314 303
9 313 324 325 314
9 324 335 336 325
9 335 346 347 336
9 346 357 358 347
9 6 281 282 7
9 281 292 293 282
9 292 303 304 293
9 303 314 315 304
9 314 325 326 315
9 325 336 337 326
9 336 347 348 337
9 347 358 359 348
9 7 282 283 8
9 282 293 294 283
9 293 304 305 294
9 304 315 316 305
9 315 326 327 316
9 326 337 338 327
9 337 348 349 338
9 348 359 360 349
9 8 283 284 9
9 283 294 295 284
9 294 305 306 295
9 305 316 317 306
9 316 327 328 317
9 327 338 339 328
9 338 349 350 339
9 349 360 361 350
9 9 284 285 10
9 284 295 296 285
9 295 306 307 296
9 306 317 318 307
9 317 328 329 318
9 328 339 340 329
9 339 350 351 340
9 350 361 362 351
MARKER_TAG= inlet
MARKER_ELEMS= 24
5 0 11 99
9 11 22 110 99
9 22 33 121 110
9 33 44 132 121
9 44 55 143 132
9 55 66 154 143
9 66 77 165 154
9 77 88 176 165
5 0 99 187
9 99 110 198 187
9 110 121 209 198
9 121 132 220 209
9 132 143 231 220
9 143 154 242 231
9 154 165 253 242
9 165 176 264 253
5 0 187 275
9 187 198 286 275
9 198 209 297 286
9 209 220 308 297
9 220 231 319 308
9 231 242 330 319
9 242 253 341 330
9 253 264 352 341
MARKER_TAG= outlet
MARKER_ELEMS= 24
5 10 21 109
9 21 32 120 109
9 32 43 131 120
9 43 54 142 131
9 54 65 153 142
9 65 76 164 153
9 76 87 175 164
9 87 98 186 175
5 10 109 197
9 109 120 208 197
9 120 131 219 208
9 131 142 230 219
9 142 153 241 230
9 153 164 252 241
9 164 175 263 252
9 175 186 274 263
5 10 197 285
9 197 208 296 285
9 208 219 307 296
9 219 230 318 307
9 230 241 329 318
9 241 252 340 329
9 252 263 351 340
9 263 274 362 351
MARKER_TAG= wall
MARKER_ELEMS= 30
9 88 176 177 89
9 176 264 265 177
9 264 352 353 265
9 89 177 178 90
9 177 265 266 178
9 265 353 354 266
9 90 178 179 91
9 178 266 267 179
9 266 354 355 267
9 91 179 180 92
9 179 267 268 180
9 267 355 356 268
9 92 180 181 93
9 180 268 269 181
9 268 356 357 269
9 93 181 182 94
9 181 269 270 182
9 269 357 358 270
9 94 182 183 95
9 182 270 271 183
9 270 358 359 271
9 95 183 184 96
9 183 271 272 184
9 271 359 360 272
9 96 184 185 97
9 184 272 273 185
9 272 360 361 273
9 97 185 186 98
9 185 273 274 186
9 273 361 362 274
