NDIME= 3
NELEM= 16
13 0 5 25 1 6 26 0
12 5 10 30 25 6 11 31 26 1
12 10 15 35 30 11 16 36 31 2
12 15 20 40 35 16 21 41 36 3
13 1 6 26 2 7 27 4
12 6 11 31 26 7 12 32 27 5
12 11 16 36 31 12 17 37 32 6
12 16 21 41 36 17 22 42 37 7
13 2 7 27 3 8 28 8
12 7 12 32 27 8 13 33 28 9
12 12 17 37 32 13 18 38 33 10
12 17 22 42 37 18 23 43 38 11
13 3 8 28 4 9 29 12
12 8 13 33 28 9 14 34 29 13
12 13 18 38 33 14 19 39 34 14
12 18 23 43 38 19 24 44 39 15
NPOIN= 45
0 0 0 0
0 0 0.5 1
0 0 1 2
0 0 1.5 3
0 0 2 4
0.25 0 0 5
0.25 0 0.5 6
0.25 0 1 7
0.25 0 1.5 8
0.25 0 2 9
0.5 0 0 10
0.5 0 0.5 11
0.5 0 1 12
0.5 0 1.5 13
0.5 0 2 14
0.75 0 0 15
0.75 0 0.5 16
0.75 0 1 17
0.75 0 1.5 18
0.75 0 2 19
1 0 0 20
1 0 0.5 21
1 0 1 22
1 0 1.5 23
1 0 2 24
0.21650635094610968 0.12499999999999999 0 25
0.21650635094610968 0.12499999999999999 0.5 26
0.21650635094610968 0.12499999999999999 1 27
0.21650635094610968 0.12499999999999999 1.5 28
0.21650635094610968 0.12499999999999999 2 29
0.43301270189221935 0.24999999999999997 0 30
0.43301270189221935 0.24999999999999997 0.5 31
0.43301270189221935 0.24999999999999997 1 32
0.43301270189221935 0.24999999999999997 1.5 33
0.43301270189221935 0.24999999999999997 2 34
0.649519052838329 0.37499999999999994 0 35
0.649519052838329 0.37499999999999994 0.5 36
0.649519052838329 0.37499999999999994 1 37
0.649519052838329 0.37499999999999994 1.5 38
0.649519052838329 0.37499999999999994 2 39
0.86602540378443871 0.49999999999999994 0 40
0.86602540378443871 0.49999999999999994 0.5 41
0.86602540378443871 0.49999999999999994 1 42
0.86602540378443871 0.49999999999999994 1.5 43
0.86602540378443871 0.49999999999999994 2 44
NMARK= 5
MARKER_TAG= per1
MARKER_ELEMS= 16
9 0 5 6 1
9 5 10 11 6
9 10 15 16 11
9 15 20 21 16
9 1 6 7 2
9 6 11 12 7
9 11 16 17 12
9 16 21 22 17
9 2 7 8 3
9 7 12 13 8
9 12 17 18 13
9 17 22 23 18
9 3 8 9 4
9 8 13 14 9
9 13 18 19 14
9 18 23 24 19
MARKER_TAG= per2
MARKER_ELEMS= 16
9 0 25 26 1
9 25 30 31 26
9 30 35 36 31
9 35 40 41 36
9 1 26 27 2
9 26 31 32 27
9 31 36 37 32
9 36 41 42 37
9 2 27 28 3
9 27 32 33 28
9 32 37 38 33
9 37 42 43 38
9 3 28 29 4
9 28 33 34 29
9 33 38 39 34
9 38 43 44 39
MARKER_TAG= inlet
MARKER_ELEMS= 4
5 0 5 25
9 5 10 30 25
9 10 15 35 30
9 15 20 40 35
MARKER_TAG= outlet
MARKER_ELEMS= 4
5 4 9 29
9 9 14 34 29
9 14 19 39 34
9 19 24 44 39
MARKER_TAG= wall
MARKER_ELEMS= 4
9 20 40 41 21
9 21 41 42 22
9 22 42 43 23
9 23 43 44 24
