NDIME= 3
NELEM= 40
10 11 8 1 2 0
10 0 8 11 3 1
10 8 12 7 4 2
10 8 6 12 5 3
10 8 13 1 2 4
10 8 6 5 13 5
10 0 8 3 14 6
10 14 8 7 4 7
10 0 8 15 10 8
10 15 8 4 10 9
10 0 8 14 15 10
10 15 8 14 4 11
10 10 8 16 1 12
10 10 8 5 16 13
10 8 13 16 1 14
10 8 13 5 16 15
10 8 17 2 9 16
10 8 6 17 9 17
10 8 17 13 2 18
10 8 6 13 17 19
10 8 9 3 18 20
10 8 9 18 7 21
10 14 8 3 18 22
10 14 8 18 7 23
10 8 9 2 19 24
10 8 9 19 3 25
10 11 8 2 19 26
10 11 8 19 3 27
10 8 6 9 20 28
10 8 20 9 7 29
10 8 6 20 12 30
10 8 20 7 12 31
10 0 8 10 21 32
10 21 8 10 1 33
10 0 8 21 11 34
10 21 8 1 11 35
10 10 8 4 22 36
10 10 8 22 5 37
10 8 12 4 22 38
10 8 12 22 5 39
NPOIN= 23
0 0 0 0
1 0 0 1
1 1 0 2
0 1 0 3
0 0 1 4
1 0 1 5
1 1 1 6
0 1 1 7
0.5 0.5 0.5 8
0.5 1 0.5 9
0.5 0 0.5 10
0.5 0.5 0 11
0.5 0.5 1 12
1 0.5 0.5 13
0 0.5 0.5 14
0 0 0.5 15
1 0 0.5 16
1 1 0.5 17
0 1 0.5 18
0.5 1 0 19
0.5 1 1 20
0.5 0 0 21
0.5 0 1 22
NMARK= 6
MARKER_TAG= side_0
MARKER_ELEMS= 6
5 0 3 11
5 1 11 2
5 2 11 19
5 3 19 11
5 0 11 21
5 1 21 11
MARKER_TAG= side_1
MARKER_ELEMS= 6
5 4 12 7
5 5 6 12
5 6 20 12
5 7 12 20
5 4 22 12
5 5 12 22
MARKER_TAG= side_2
MARKER_ELEMS= 8
5 0 10 15
5 4 15 10
5 1 16 10
5 5 10 16
5 0 21 10
5 1 10 21
5 4 10 22
5 5 22 10
MARKER_TAG= side_3
MARKER_ELEMS= 8
5 2 9 17
5 6 17 9
5 3 18 9
5 7 9 18
5 2 19 9
5 3 9 19
5 6 9 20
5 7 20 9
MARKER_TAG= side_4
MARKER_ELEMS= 6
5 0 14 3
5 4 7 14
5 0 15 14
5 4 14 15
5 3 14 18
5 7 18 14
MARKER_TAG= side_5
MARKER_ELEMS= 6
5 1 2 13
5 5 13 6
5 1 13 16
5 5 16 13
5 2 17 13
5 6 13 17
