NDIME= 3
NELEM= 48
10 0 8 15 9 0
10 15 8 1 9 1
10 0 8 11 15 2
10 15 8 11 1 3
10 0 8 9 16 4
10 16 8 9 3 5
10 0 8 16 12 6
10 16 8 3 12 7
10 9 8 1 17 8
10 9 8 17 2 9
10 8 13 1 17 10
10 8 13 17 2 11
10 9 8 2 18 12
10 9 8 18 3 13
10 8 14 2 18 14
10 8 14 18 3 15
10 8 10 4 19 16
10 8 10 19 5 17
10 11 8 4 19 18
10 11 8 19 5 19
10 8 10 20 4 20
10 8 10 7 20 21
10 12 8 20 4 22
10 12 8 7 20 23
10 8 21 10 5 24
10 8 6 10 21 25
10 8 21 5 13 26
10 8 6 21 13 27
10 8 6 22 10 28
10 8 22 7 10 29
10 8 6 14 22 30
10 8 22 14 7 31
10 0 8 23 11 32
10 23 8 4 11 33
10 0 8 12 23 34
10 23 8 12 4 35
10 11 8 24 1 36
10 11 8 5 24 37
10 8 13 24 1 38
10 8 13 5 24 39
10 8 25 13 2 40
10 8 6 13 25 41
10 8 25 2 14 42
10 8 6 25 14 43
10 12 8 3 26 44
10 12 8 26 7 45
10 8 14 3 26 46
10 8 14 26 7 47
NPOIN= 27
0 0 0 0
1 0 0 1
1 1 0 2
0 1 0 3
0 0 1e-08 4
1 0 1e-08 5
1 1 1e-08 6
0 1 1e-08 7
0.5 0.5 5.0000000000000001e-09 8
0.5 0.5 0 9
0.5 0.5 1e-08 10
0.5 0 5.0000000000000001e-09 11
0 0.5 5.0000000000000001e-09 12
1 0.5 5.0000000000000001e-09 13
0.5 1 5.0000000000000001e-09 14
0.5 0 0 15
0 0.5 0 16
1 0.5 0 17
0.5 1 0 18
0.5 0 1e-08 19
0 0.5 1e-08 20
1 0.5 1e-08 21
0.5 1 1e-08 22
0 0 5.0000000000000001e-09 23
1 0 5.0000000000000001e-09 24
1 1 5.0000000000000001e-09 25
0 1 5.0000000000000001e-09 26
NMARK= 6
MARKER_TAG= side_0
MARKER_ELEMS= 8
5 0 9 15
5 1 15 9
5 0 16 9
5 3 9 16
5 1 9 17
5 2 17 9
5 2 9 18
5 3 18 9
MARKER_TAG= side_1
MARKER_ELEMS= 8
5 4 19 10
5 5 10 19
5 4 10 20
5 7 20 10
5 5 21 10
5 6 10 21
5 6 22 10
5 7 10 22
MARKER_TAG= side_2
MARKER_ELEMS= 8
5 0 15 11
5 1 11 15
5 4 11 19
5 5 19 11
5 0 11 23
5 4 23 11
5 1 24 11
5 5 11 24
MARKER_TAG= side_3
MARKER_ELEMS= 8
5 2 18 14
5 3 14 18
5 6 14 22
5 7 22 14
5 2 14 25
5 6 25 14
5 3 26 14
5 7 14 26
MARKER_TAG= side_4
MARKER_ELEMS= 8
5 0 12 16
5 3 16 12
5 4 20 12
5 7 12 20
5 0 23 12
5 4 12 23
5 3 12 26
5 7 26 12
MARKER_TAG= side_5
MARKER_ELEMS= 8
5 1 17 13
5 2 13 17
5 5 13 21
5 6 21 13
5 1 13 24
5 5 24 13
5 2 25 13
5 6 13 25
