NDIME= 2
NELEM= 256
5 0 1 18 0
5 0 18 17 1
5 1 2 19 2
5 1 19 18 3
5 2 3 20 4
5 2 20 19 5
5 3 4 21 6
5 3 21 20 7
5 4 5 22 8
5 4 22 21 9
5 5 6 23 10
5 5 23 22 11
5 6 7 24 12
5 6 24 23 13
5 7 8 25 14
5 7 25 24 15
5 8 9 26 16
5 8 26 25 17
5 9 10 27 18
5 9 27 26 19
5 10 11 28 20
5 10 28 27 21
5 11 12 29 22
5 11 29 28 23
5 12 13 30 24
5 12 30 29 25
5 13 14 31 26
5 13 31 30 27
5 14 15 32 28
5 14 32 31 29
5 15 16 33 30
5 15 33 32 31
5 17 18 35 32
5 17 35 34 33
5 18 19 36 34
5 18 36 35 35
5 19 20 37 36
5 19 37 36 37
5 20 21 38 38
5 20 38 37 39
5 21 22 39 40
5 21 39 38 41
5 22 23 40 42
5 22 40 39 43
5 23 24 41 44
5 23 41 40 45
5 24 25 42 46
5 24 42 41 47
5 25 26 43 48
5 25 43 42 49
5 26 27 44 50
5 26 44 43 51
5 27 28 45 52
5 27 45 44 53
5 28 29 46 54
5 28 46 45 55
5 29 30 47 56
5 29 47 46 57
5 30 31 48 58
5 30 48 47 59
5 31 32 49 60
5 31 49 48 61
5 32 33 50 62
5 32 50 49 63
5 34 35 52 64
5 34 52 51 65
5 35 36 53 66
5 35 53 52 67
5 36 37 54 68
5 36 54 53 69
5 37 38 55 70
5 37 55 54 71
5 38 39 56 72
5 38 56 55 73
5 39 40 57 74
5 39 57 56 75
5 40 41 58 76
5 40 58 57 77
5 41 42 59 78
5 41 59 58 79
5 42 43 60 80
5 42 60 59 81
5 43 44 61 82
5 43 61 60 83
5 44 45 62 84
5 44 62 61 85
5 45 46 63 86
5 45 63 62 87
5 46 47 64 88
5 46 64 63 89
5 47 48 65 90
5 47 65 64 91
5 48 49 66 92
5 48 66 65 93
5 49 50 67 94
5 49 67 66 95
5 51 52 69 96
5 51 69 68 97
5 52 53 70 98
5 52 70 69 99
5 53 54 71 100
5 53 71 70 101
5 54 55 72 102
5 54 72 71 103
5 55 56 73 104
5 55 73 72 105
5 56 57 74 106
5 56 74 73 107
5 57 58 75 108
5 57 75 74 109
5 58 59 76 110
5 58 76 75 111
5 59 60 77 112
5 59 77 76 113
5 60 61 78 114
5 60 78 77 115
5 61 62 79 116
5 61 79 78 117
5 62 63 80 118
5 62 80 79 119
5 63 64 81 120
5 63 81 80 121
5 64 65 82 122
5 64 82 81 123
5 65 66 83 124
5 65 83 82 125
5 66 67 84 126
5 66 84 83 127
5 68 69 86 128
5 68 86 85 129
5 69 70 87 130
5 69 87 86 131
5 70 71 88 132
5 70 88 87 133
5 71 72 89 134
5 71 89 88 135
5 72 73 90 136
5 72 90 89 137
5 73 74 91 138
5 73 91 90 139
5 74 75 92 140
5 74 92 91 141
5 75 76 93 142
5 75 93 92 143
5 76 77 94 144
5 76 94 93 145
5 77 78 95 146
5 77 95 94 147
5 78 79 96 148
5 78 96 95 149
5 79 80 97 150
5 79 97 96 151
5 80 81 98 152
5 80 98 97 153
5 81 82 99 154
5 81 99 98 155
5 82 83 100 156
5 82 100 99 157
5 83 84 101 158
5 83 101 100 159
5 85 86 103 160
5 85 103 102 161
5 86 87 104 162
5 86 104 103 163
5 87 88 105 164
5 87 105 104 165
5 88 89 106 166
5 88 106 105 167
5 89 90 107 168
5 89 107 106 169
5 90 91 108 170
5 90 108 107 171
5 91 92 109 172
5 91 109 108 173
5 92 93 110 174
5 92 110 109 175
5 93 94 111 176
5 93 111 110 177
5 94 95 112 178
5 94 112 111 179
5 95 96 113 180
5 95 113 112 181
5 96 97 114 182
5 96 114 113 183
5 97 98 115 184
5 97 115 114 185
5 98 99 116 186
5 98 116 115 187
5 99 100 117 188
5 99 117 116 189
5 100 101 118 190
5 100 118 117 191
5 102 103 120 192
5 102 120 119 193
5 103 104 121 194
5 103 121 120 195
5 104 105 122 196
5 104 122 121 197
5 105 106 123 198
5 105 123 122 199
5 106 107 124 200
5 106 124 123 201
5 107 108 125 202
5 107 125 124 203
5 108 109 126 204
5 108 126 125 205
5 109 110 127 206
5 109 127 126 207
5 110 111 128 208
5 110 128 127 209
5 111 112 129 210
5 111 129 128 211
5 112 113 130 212
5 112 130 129 213
5 113 114 131 214
5 113 131 130 215
5 114 115 132 216
5 114 132 131 217
5 115 116 133 218
5 115 133 132 219
5 116 117 134 220
5 116 134 133 221
5 117 118 135 222
5 117 135 134 223
5 119 120 137 224
5 119 137 136 225
5 120 121 138 226
5 120 138 137 227
5 121 122 139 228
5 121 139 138 229
5 122 123 140 230
5 122 140 139 231
5 123 124 141 232
5 123 141 140 233
5 124 125 142 234
5 124 142 141 235
5 125 126 143 236
5 125 143 142 237
5 126 127 144 238
5 126 144 143 239
5 127 128 145 240
5 127 145 144 241
5 128 129 146 242
5 128 146 145 243
5 129 130 147 244
5 129 147 146 245
5 130 131 148 246
5 130 148 147 247
5 131 132 149 248
5 131 149 148 249
5 132 133 150 250
5 132 150 149 251
5 133 134 151 252
5 133 151 150 253
5 134 135 152 254
5 134 152 151 255
NPOIN= 153
0 0 0
0.125 0 1
0.25 0 2
0.375 0 3
0.5 0 4
0.625 0 5
0.75 0 6
0.875 0 7
1 0 8
1.125 0 9
1.25 0 10
1.375 0 11
1.5 0 12
1.625 0 13
1.75 0 14
1.875 0 15
2 0 16
0 0.125 17
0.125 0.125 18
0.25 0.125 19
0.375 0.125 20
0.5 0.125 21
0.625 0.125 22
0.75 0.125 23
0.875 0.125 24
1 0.125 25
1.125 0.125 26
1.25 0.125 27
1.375 0.125 28
1.5 0.125 29
1.625 0.125 30
1.75 0.125 31
1.875 0.125 32
2 0.125 33
0 0.25 34
0.125 0.25 35
0.25 0.25 36
0.375 0.25 37
0.5 0.25 38
0.625 0.25 39
0.75 0.25 40
0.875 0.25 41
1 0.25 42
1.125 0.25 43
1.25 0.25 44
1.375 0.25 45
1.5 0.25 46
1.625 0.25 47
1.75 0.25 48
1.875 0.25 49
2 0.25 50
0 0.375 51
0.125 0.375 52
0.25 0.375 53
0.375 0.375 54
0.5 0.375 55
0.625 0.375 56
0.75 0.375 57
0.875 0.375 58
1 0.375 59
1.125 0.375 60
1.25 0.375 61
1.375 0.375 62
1.5 0.375 63
1.625 0.375 64
1.75 0.375 65
1.875 0.375 66
2 0.375 67
0 0.5 68
0.125 0.5 69
0.25 0.5 70
0.375 0.5 71
0.5 0.5 72
0.625 0.5 73
0.75 0.5 74
0.875 0.5 75
1 0.5 76
1.125 0.5 77
1.25 0.5 78
1.375 0.5 79
1.5 0.5 80
1.625 0.5 81
1.75 0.5 82
1.875 0.5 83
2 0.5 84
0 0.625 85
0.125 0.625 86
0.25 0.625 87
0.375 0.625 88
0.5 0.625 89
0.625 0.625 90
0.75 0.625 91
0.875 0.625 92
1 0.625 93
1.125 0.625 94
1.25 0.625 95
1.375 0.625 96
1.5 0.625 97
1.625 0.625 98
1.75 0.625 99
1.875 0.625 100
2 0.625 101
0 0.75 102
0.125 0.75 103
0.25 0.75 104
0.375 0.75 105
0.5 0.75 106
0.625 0.75 107
0.75 0.75 108
0.875 0.75 109
1 0.75 110
1.125 0.75 111
1.25 0.75 112
1.375 0.75 113
1.5 0.75 114
1.625 0.75 115
1.75 0.75 116
1.875 0.75 117
2 0.75 118
0 0.875 119
0.125 0.875 120
0.25 0.875 121
0.375 0.875 122
0.5 0.875 123
0.625 0.875 124
0.75 0.875 125
0.875 0.875 126
1 0.875 127
1.125 0.875 128
1.25 0.875 129
1.375 0.875 130
1.5 0.875 131
1.625 0.875 132
1.75 0.875 133
1.875 0.875 134
2 0.875 135
0 1 136
0.125 1 137
0.25 1 138
0.375 1 139
0.5 1 140
0.625 1 141
0.75 1 142
0.875 1 143
1 1 144
1.125 1 145
1.25 1 146
1.375 1 147
1.5 1 148
1.625 1 149
1.75 1 150
1.875 1 151
2 1 152
NMARK= 4
MARKER_TAG= lower
MARKER_ELEMS= 16
3 1 0
3 2 1
3 3 2
3 4 3
3 5 4
3 6 5
3 7 6
3 8 7
3 9 8
3 10 9
3 11 10
3 12 11
3 13 12
3 14 13
3 15 14
3 16 15
MARKER_TAG= right
MARKER_ELEMS= 8
3 33 16
3 50 33
3 67 50
3 84 67
3 101 84
3 118 101
3 135 118
3 152 135
MARKER_TAG= upper
MARKER_ELEMS= 16
3 136 137
3 137 138
3 138 139
3 139 140
3 140 141
3 141 142
3 142 143
3 143 144
3 144 145
3 145 146
3 146 147
3 147 148
3 148 149
3 149 150
3 150 151
3 151 152
MARKER_TAG= left
MARKER_ELEMS= 8
3 0 17
3 17 34
3 34 51
3 51 68
3 68 85
3 85 102
3 102 119
3 119 136
