NDIME= 3
NELEM= 12
10 0 8 1 2 0
10 8 6 1 2 1
10 0 8 2 3 2
10 8 6 2 3 3
10 0 8 3 7 4
10 8 6 3 7 5
10 0 8 7 4 6
10 8 6 7 4 7
10 0 8 4 5 8
10 8 6 4 5 9
10 0 8 5 1 10
10 8 6 5 1 11
NPOIN= 9
0 0 0 0
1 0 0 1
1 1 0 2
0 1 0 3
0 0 1 4
1 0 1 5
1 1 1 6
0 1 1 7
0.5 0.5 0.5 8
NMARK= 12
MARKER_TAG= side_10
MARKER_ELEMS= 1
5 0 2 1
MARKER_TAG= side_11
MARKER_ELEMS= 1
5 0 1 5
MARKER_TAG= side_12
MARKER_ELEMS= 1
5 0 3 2
MARKER_TAG= side_13
MARKER_ELEMS= 1
5 0 7 3
MARKER_TAG= side_14
MARKER_ELEMS= 1
5 0 5 4
MARKER_TAG= side_15
MARKER_ELEMS= 1
5 0 4 7
MARKER_TAG= side_16
MARKER_ELEMS= 1
5 6 1 2
MARKER_TAG= side_17
MARKER_ELEMS= 1
5 6 5 1
MARKER_TAG= side_18
MARKER_ELEMS= 1
5 6 2 3
MARKER_TAG= side_19
MARKER_ELEMS= 1
5 6 3 7
MARKER_TAG= side_20
MARKER_ELEMS= 1
5 6 4 5
MARKER_TAG= side_21
MARKER_ELEMS= 1
5 6 7 4
