NDIME= 3
NELEM= 192
13 0 5 25 1 6 26 0
12 5 10 30 25 6 11 31 26 1
12 10 15 35 30 11 16 36 31 2
12 15 20 40 35 16 21 41 36 3
13 0 25 45 1 26 46 4
12 25 30 50 45 26 31 51 46 5
12 30 35 55 50 31 36 56 51 6
12 35 40 60 55 36 41 61 56 7
13 0 45 65 1 46 66 8
12 45 50 70 65 46 51 71 66 9
12 50 55 75 70 51 56 76 71 10
12 55 60 80 75 56 61 81 76 11
13 0 65 85 1 66 86 12
12 65 70 90 85 66 71 91 86 13
12 70 75 95 90 71 76 96 91 14
12 75 80 100 95 76 81 101 96 15
13 0 85 105 1 86 106 16
12 85 90 110 105 86 91 111 106 17
12 90 95 115 110 91 96 116 111 18
12 95 100 120 115 96 101 121 116 19
13 0 105 125 1 106 126 20
12 105 110 130 125 106 111 131 126 21
12 110 115 135 130 111 116 136 131 22
12 115 120 140 135 116 121 141 136 23
13 0 125 145 1 126 146 24
12 125 130 150 145 126 131 151 146 25
12 130 135 155 150 131 136 156 151 26
12 135 140 160 155 136 141 161 156 27
13 0 145 165 1 146 166 28
12 145 150 170 165 146 151 171 166 29
12 150 155 175 170 151 156 176 171 30
12 155 160 180 175 156 161 181 176 31
13 0 165 185 1 166 186 32
12 165 170 190 185 166 171 191 186 33
12 170 175 195 190 171 176 196 191 34
12 175 180 200 195 176 181 201 196 35
13 0 185 205 1 186 206 36
12 185 190 210 205 186 191 211 206 37
12 190 195 215 210 191 196 216 211 38
12 195 200 220 215 196 201 221 216 39
13 0 205 225 1 206 226 40
12 205 210 230 225 206 211 231 226 41
12 210 215 235 230 211 216 236 231 42
12 215 220 240 235 216 221 241 236 43
13 0 225 5 1 226 6 44
12 225 230 10 5 226 231 11 6 45
12 230 235 15 10 231 236 16 11 46
12 235 240 20 15 236 241 21 16 47
13 1 6 26 2 7 27 48
12 6 11 31 26 7 12 32 27 49
12 11 16 36 31 12 17 37 32 50
12 16 21 41 36 17 22 42 37 51
13 1 26 46 2 27 47 52
12 26 31 51 46 27 32 52 47 53
12 31 36 56 51 32 37 57 52 54
12 36 41 61 56 37 42 62 57 55
13 1 46 66 2 47 67 56
12 46 51 71 66 47 52 72 67 57
12 51 56 76 71 52 57 77 72 58
12 56 61 81 76 57 62 82 77 59
13 1 66 86 2 67 87 60
12 66 71 91 86 67 72 92 87 61
12 71 76 96 91 72 77 97 92 62
12 76 81 101 96 77 82 102 97 63
13 1 86 106 2 87 107 64
12 86 91 111 106 87 92 112 107 65
12 91 96 116 111 92 97 117 112 66
12 96 101 121 116 97 102 122 117 67
13 1 106 126 2 107 127 68
12 106 111 131 126 107 112 132 127 69
12 111 116 136 131 112 117 137 132 70
12 116 121 141 136 117 122 142 137 71
13 1 126 146 2 127 147 72
12 126 131 151 146 127 132 152 147 73
12 131 136 156 151 132 137 157 152 74
12 136 141 161 156 137 142 162 157 75
13 1 146 166 2 147 167 76
12 146 151 171 166 147 152 172 167 77
12 151 156 176 171 152 157 177 172 78
12 156 161 181 176 157 162 182 177 79
13 1 166 186 2 167 187 80
12 166 171 191 186 167 172 192 187 81
12 171 176 196 191 172 177 197 192 82
12 176 181 201 196 177 182 202 197 83
13 1 186 206 2 187 207 84
12 186 191 211 206 187 192 212 207 85
12 191 196 216 211 192 197 217 212 86
12 196 201 221 216 197 202 222 217 87
13 1 206 226 2 207 227 88
12 206 211 231 226 207 212 232 227 89
12 211 216 236 231 212 217 237 232 90
12 216 221 241 236 217 222 242 237 91
13 1 226 6 2 227 7 92
12 226 231 11 6 227 232 12 7 93
12 231 236 16 11 232 237 17 12 94
12 236 241 21 16 237 242 22 17 95
13 2 7 27 3 8 28 96
12 7 12 32 27 8 13 33 28 97
12 12 17 37 32 13 18 38 33 98
12 17 22 42 37 18 23 43 38 99
13 2 27 47 3 28 48 100
12 27 32 52 47 28 33 53 48 101
12 32 37 57 52 33 38 58 53 102
12 37 42 62 57 38 43 63 58 103
13 2 47 67 3 48 68 104
12 47 52 72 67 48 53 73 68 105
12 52 57 77 72 53 58 78 73 106
12 57 62 82 77 58 63 83 78 107
13 2 67 87 3 68 88 108
12 67 72 92 87 68 73 93 88 109
12 72 77 97 92 73 78 98 93 110
12 77 82 102 97 78 83 103 98 111
13 2 87 107 3 88 108 112
12 87 92 112 107 88 93 113 108 113
12 92 97 117 112 93 98 118 113 114
12 97 102 122 117 98 103 123 118 115
13 2 107 127 3 108 128 116
12 107 112 132 127 108 113 133 128 117
12 112 117 137 132 113 118 138 133 118
12 117 122 142 137 118 123 143 138 119
13 2 127 147 3 128 148 120
12 127 132 152 147 128 133 153 148 121
12 132 137 157 152 133 138 158 153 122
12 137 142 162 157 138 143 163 158 123
13 2 147 167 3 148 168 124
12 147 152 172 167 148 153 173 168 125
12 152 157 177 172 153 158 178 173 126
12 157 162 182 177 158 163 183 178 127
13 2 167 187 3 168 188 128
12 167 172 192 187 168 173 193 188 129
12 172 177 197 192 173 178 198 193 130
12 177 182 202 197 178 183 203 198 131
13 2 187 207 3 188 208 132
12 187 192 212 207 188 193 213 208 133
12 192 197 217 212 193 198 218 213 134
12 197 202 222 217 198 203 223 218 135
13 2 207 227 3 208 228 136
12 207 212 232 227 208 213 233 228 137
12 212 217 237 232 213 218 238 233 138
12 217 222 242 237 218 223 243 238 139
13 2 227 7 3 228 8 140
12 227 232 12 7 228 233 13 8 141
12 232 237 17 12 233 238 18 13 142
12 237 242 22 17 238 243 23 18 143
13 3 8 28 4 9 29 144
12 8 13 33 28 9 14 34 29 145
12 13 18 38 33 14 19 39 34 146
12 18 23 43 38 19 24 44 39 147
13 3 28 48 4 29 49 148
12 28 33 53 48 29 34 54 49 149
12 33 38 58 53 34 39 59 54 150
12 38 43 63 58 39 44 64 59 151
13 3 48 68 4 49 69 152
12 48 53 73 68 49 54 74 69 153
12 53 58 78 73 54 59 79 74 154
12 58 63 83 78 59 64 84 79 155
13 3 68 88 4 69 89 156
12 68 73 93 88 69 74 94 89 157
12 73 78 98 93 74 79 99 94 158
12 78 83 103 98 79 84 104 99 159
13 3 88 108 4 89 109 160
12 88 93 113 108 89 94 114 109 161
12 93 98 118 113 94 99 119 114 162
12 98 103 123 118 99 104 124 119 163
13 3 108 128 4 109 129 164
12 108 113 133 128 109 114 134 129 165
12 113 118 138 133 114 119 139 134 166
12 118 123 143 138 119 124 144 139 167
13 3 128 148 4 129 149 168
12 128 133 153 148 129 134 154 149 169
12 133 138 158 153 134 139 159 154 170
12 138 143 163 158 139 144 164 159 171
13 3 148 168 4 149 169 172
12 148 153 173 168 149 154 174 169 173
12 153 158 178 173 154 159 179 174 174
12 158 163 183 178 159 164 184 179 175
13 3 168 188 4 169 189 176
12 168 173 193 188 169 174 194 189 177
12 173 178 198 193 174 179 199 194 178
12 178 183 203 198 179 184 204 199 179
13 3 188 208 4 189 209 180
12 188 193 213 208 189 194 214 209 181
12 193 198 218 213 194 199 219 214 182
12 198 203 223 218 199 204 224 219 183
13 3 208 228 4 209 229 184
12 208 213 233 228 209 214 234 229 185
12 213 218 238 233 214 219 239 234 186
12 218 223 243 238 219 224 244 239 187
13 3 228 8 4 229 9 188
12 228 233 13 8 229 234 14 9 189
12 233 238 18 13 234 239 19 14 190
12 238 243 23 18 239 244 24 19 191
NPOIN= 245
0 0 0 0
0 0 0.5 1
0 0 1 2
0 0 1.5 3
0 0 2 4
0.25 0 0 5
0.25 0 0.5 6
0.25 0 1 7
0.25 0 1.5 8
0.25 0 2 9
0.5 0 0 10
0.5 0 0.5 11
0.5 0 1 12
0.5 0 1.5 13
0.5 0 2 14
0.75 0 0 15
0.75 0 0.5 16
0.75 0 1 17
0.75 0 1.5 18
0.75 0 2 19
1 0 0 20
1 0 0.5 21
1 0 1 22
1 0 1.5 23
1 0 2 24
0.21650635094610968 0.12499999999999999 0 25
0.21650635094610968 0.12499999999999999 0.5 26
0.21650635094610968 0.12499999999999999 1 27
0.21650635094610968 0.12499999999999999 1.5 28
0.21650635094610968 0.12499999999999999 2 29
0.43301270189221935 0.24999999999999997 0 30
0.43301270189221935 0.24999999999999997 0.5 31
0.43301270189221935 0.24999999999999997 1 32
0.43301270189221935 0.24999999999999997 1.5 33
0.43301270189221935 0.24999999999999997 2 34
0.649519052838329 0.37499999999999994 0 35
0.649519052838329 0.37499999999999994 0.5 36
0.649519052838329 0.37499999999999994 1 37
0.649519052838329 0.37499999999999994 1.5 38
0.649519052838329 0.37499999999999994 2 39
0.86602540378443871 0.49999999999999994 0 40
0.86602540378443871 0.49999999999999994 0.5 41
0.86602540378443871 0.49999999999999994 1 42
0.86602540378443871 0.49999999999999994 1.5 43
0.86602540378443871 0.49999999999999994 2 44
0.12500000000000003 0.21650635094610965 0 45
0.12500000000000003 0.21650635094610965 0.5 46
0.12500000000000003 0.21650635094610965 1 47
0.12500000000000003 0.21650635094610965 1.5 48
0.12500000000000003 0.21650635094610965 2 49
0.25000000000000006 0.4330127018922193 0 50
0.25000000000000006 0.4330127018922193 0.5 51
0.25000000000000006 0.4330127018922193 1 52
0.25000000000000006 0.4330127018922193 1.5 53
0.25000000000000006 0.4330127018922193 2 54
0.37500000000000011 0.649519052838329 0 55
0.37500000000000011 0.649519052838329 0.5 56
0.37500000000000011 0.649519052838329 1 57
0.37500000000000011 0.649519052838329 1.5 58
0.37500000000000011 0.649519052838329 2 59
0.50000000000000011 0.8660254037844386 0 60
0.50000000000000011 0.8660254037844386 0.5 61
0.50000000000000011 0.8660254037844386 1 62
0.50000000000000011 0.8660254037844386 1.5 63
0.50000000000000011 0.8660254037844386 2 64
1.5308084989341915e-17 0.25 0 65
1.5308084989341915e-17 0.25 0.5 66
1.5308084989341915e-17 0.25 1 67
1.5308084989341915e-17 0.25 1.5 68
1.5308084989341915e-17 0.25 2 69
3.061616997868383e-17 0.5 0 70
3.061616997868383e-17 0.5 0.5 71
3.061616997868383e-17 0.5 1 72
3.061616997868383e-17 0.5 1.5 73
3.061616997868383e-17 0.5 2 74
4.5924254968025742e-17 0.75 0 75
4.5924254968025742e-17 0.75 0.5 76
4.5924254968025742e-17 0.75 1 77
4.5924254968025742e-17 0.75 1.5 78
4.5924254968025742e-17 0.75 2 79
6.123233995736766e-17 1 0 80
6.123233995736766e-17 1 0.5 81
6.123233995736766e-17 1 1 82
6.123233995736766e-17 1 1.5 83
6.123233995736766e-17 1 2 84
-0.12499999999999994 0.21650635094610968 0 85
-0.12499999999999994 0.21650635094610968 0.5 86
-0.12499999999999994 0.21650635094610968 1 87
-0.12499999999999994 0.21650635094610968 1.5 88
-0.12499999999999994 0.21650635094610968 2 89
-0.24999999999999989 0.43301270189221935 0 90
-0.24999999999999989 0.43301270189221935 0.5 91
-0.24999999999999989 0.43301270189221935 1 92
-0.24999999999999989 0.43301270189221935 1.5 93
-0.24999999999999989 0.43301270189221935 2 94
-0.37499999999999983 0.649519052838329 0 95
-0.37499999999999983 0.649519052838329 0.5 96
-0.37499999999999983 0.649519052838329 1 97
-0.37499999999999983 0.649519052838329 1.5 98
-0.37499999999999983 0.649519052838329 2 99
-0.49999999999999978 0.86602540378443871 0 100
-0.49999999999999978 0.86602540378443871 0.5 101
-0.49999999999999978 0.86602540378443871 1 102
-0.49999999999999978 0.86602540378443871 1.5 103
-0.49999999999999978 0.86602540378443871 2 104
-0.21650635094610962 0.12500000000000008 0 105
-0.21650635094610962 0.12500000000000008 0.5 106
-0.21650635094610962 0.12500000000000008 1 107
-0.21650635094610962 0.12500000000000008 1.5 108
-0.21650635094610962 0.12500000000000008 2 109
-0.43301270189221924 0.25000000000000017 0 110
-0.43301270189221924 0.25000000000000017 0.5 111
-0.43301270189221924 0.25000000000000017 1 112
-0.43301270189221924 0.25000000000000017 1.5 113
-0.43301270189221924 0.25000000000000017 2 114
-0.64951905283832889 0.37500000000000022 0 115
-0.64951905283832889 0.37500000000000022 0.5 116
-0.64951905283832889 0.37500000000000022 1 117
-0.64951905283832889 0.37500000000000022 1.5 118
-0.64951905283832889 0.37500000000000022 2 119
-0.86602540378443849 0.50000000000000033 0 120
-0.86602540378443849 0.50000000000000033 0.5 121
-0.86602540378443849 0.50000000000000033 1 122
-0.86602540378443849 0.50000000000000033 1.5 123
-0.86602540378443849 0.50000000000000033 2 124
-0.25 3.061616997868383e-17 0 125
-0.25 3.061616997868383e-17 0.5 126
-0.25 3.061616997868383e-17 1 127
-0.25 3.061616997868383e-17 1.5 128
-0.25 3.061616997868383e-17 2 129
-0.5 6.123233995736766e-17 0 130
-0.5 6.123233995736766e-17 0.5 131
-0.5 6.123233995736766e-17 1 132
-0.5 6.123233995736766e-17 1.5 133
-0.5 6.123233995736766e-17 2 134
-0.75 9.1848509936051484e-17 0 135
-0.75 9.1848509936051484e-17 0.5 136
-0.75 9.1848509936051484e-17 1 137
-0.75 9.1848509936051484e-17 1.5 138
-0.75 9.1848509936051484e-17 2 139
-1 1.2246467991473532e-16 0 140
-1 1.2246467991473532e-16 0.5 141
-1 1.2246467991473532e-16 1 142
-1 1.2246467991473532e-16 1.5 143
-1 1.2246467991473532e-16 2 144
-0.2165063509461097 -0.12499999999999993 0 145
-0.2165063509461097 -0.12499999999999993 0.5 146
-0.2165063509461097 -0.12499999999999993 1 147
-0.2165063509461097 -0.12499999999999993 1.5 148
-0.2165063509461097 -0.12499999999999993 2 149
-0.43301270189221941 -0.24999999999999986 0 150
-0.43301270189221941 -0.24999999999999986 0.5 151
-0.43301270189221941 -0.24999999999999986 1 152
-0.43301270189221941 -0.24999999999999986 1.5 153
-0.43301270189221941 -0.24999999999999986 2 154
-0.64951905283832911 -0.37499999999999978 0 155
-0.64951905283832911 -0.37499999999999978 0.5 156
-0.64951905283832911 -0.37499999999999978 1 157
-0.64951905283832911 -0.37499999999999978 1.5 158
-0.64951905283832911 -0.37499999999999978 2 159
-0.86602540378443882 -0.49999999999999972 0 160
-0.86602540378443882 -0.49999999999999972 0.5 161
-0.86602540378443882 -0.49999999999999972 1 162
-0.86602540378443882 -0.49999999999999972 1.5 163
-0.86602540378443882 -0.49999999999999972 2 164
-0.12500000000000011 -0.21650635094610959 0 165
-0.12500000000000011 -0.21650635094610959 0.5 166
-0.12500000000000011 -0.21650635094610959 1 167
-0.12500000000000011 -0.21650635094610959 1.5 168
-0.12500000000000011 -0.21650635094610959 2 169
-0.25000000000000022 -0.43301270189221919 0 170
-0.25000000000000022 -0.43301270189221919 0.5 171
-0.25000000000000022 -0.43301270189221919 1 172
-0.25000000000000022 -0.43301270189221919 1.5 173
-0.25000000000000022 -0.43301270189221919 2 174
-0.37500000000000033 -0.64951905283832878 0 175
-0.37500000000000033 -0.64951905283832878 0.5 176
-0.37500000000000033 -0.64951905283832878 1 177
-0.37500000000000033 -0.64951905283832878 1.5 178
-0.37500000000000033 -0.64951905283832878 2 179
-0.50000000000000044 -0.86602540378443837 0 180
-0.50000000000000044 -0.86602540378443837 0.5 181
-0.50000000000000044 -0.86602540378443837 1 182
-0.50000000000000044 -0.86602540378443837 1.5 183
-0.50000000000000044 -0.86602540378443837 2 184
-4.5924254968025742e-17 -0.25 0 185
-4.5924254968025742e-17 -0.25 0.5 186
-4.5924254968025742e-17 -0.25 1 187
-4.5924254968025742e-17 -0.25 1.5 188
-4.5924254968025742e-17 -0.25 2 189
-9.1848509936051484e-17 -0.5 0 190
-9.1848509936051484e-17 -0.5 0.5 191
-9.1848509936051484e-17 -0.5 1 192
-9.1848509936051484e-17 -0.5 1.5 193
-9.1848509936051484e-17 -0.5 2 194
-1.3777276490407724e-16 -0.75 0 195
-1.3777276490407724e-16 -0.75 0.5 196
-1.3777276490407724e-16 -0.75 1 197
-1.3777276490407724e-16 -0.75 1.5 198
-1.3777276490407724e-16 -0.75 2 199
-1.8369701987210297e-16 -1 0 200
-1.8369701987210297e-16 -1 0.5 201
-1.8369701987210297e-16 -1 1 202
-1.8369701987210297e-16 -1 1.5 203
-1.8369701987210297e-16 -1 2 204
0.12499999999999983 -0.21650635094610976 0 205
0.12499999999999983 -0.21650635094610976 0.5 206
0.12499999999999983 -0.21650635094610976 1 207
0.12499999999999983 -0.21650635094610976 1.5 208
0.12499999999999983 -0.21650635094610976 2 209
0.24999999999999967 -0.43301270189221952 0 210
0.24999999999999967 -0.43301270189221952 0.5 211
0.24999999999999967 -0.43301270189221952 1 212
0.24999999999999967 -0.43301270189221952 1.5 213
0.24999999999999967 -0.43301270189221952 2 214
0.3749999999999995 -0.64951905283832922 0 215
0.3749999999999995 -0.64951905283832922 0.5 216
0.3749999999999995 -0.64951905283832922 1 217
0.3749999999999995 -0.64951905283832922 1.5 218
0.3749999999999995 -0.64951905283832922 2 219
0.49999999999999933 -0.86602540378443904 0 220
0.49999999999999933 -0.86602540378443904 0.5 221
0.49999999999999933 -0.86602540378443904 1 222
0.49999999999999933 -0.86602540378443904 1.5 223
0.49999999999999933 -0.86602540378443904 2 224
0.21650635094610959 -0.12500000000000011 0 225
0.21650635094610959 -0.12500000000000011 0.5 226
0.21650635094610959 -0.12500000000000011 1 227
0.21650635094610959 -0.12500000000000011 1.5 228
0.21650635094610959 -0.12500000000000011 2 229
0.43301270189221919 -0.25000000000000022 0 230
0.43301270189221919 -0.25000000000000022 0.5 231
0.43301270189221919 -0.25000000000000022 1 232
0.43301270189221919 -0.25000000000000022 1.5 233
0.43301270189221919 -0.25000000000000022 2 234
0.64951905283832878 -0.37500000000000033 0 235
0.64951905283832878 -0.37500000000000033 0.5 236
0.64951905283832878 -0.37500000000000033 1 237
0.64951905283832878 -0.37500000000000033 1.5 238
0.64951905283832878 -0.37500000000000033 2 239
0.86602540378443837 -0.50000000000000044 0 240
0.86602540378443837 -0.50000000000000044 0.5 241
0.86602540378443837 -0.50000000000000044 1 242
0.86602540378443837 -0.50000000000000044 1.5 243
0.86602540378443837 -0.50000000000000044 2 244
NMARK= 3
MARKER_TAG= inlet
MARKER_ELEMS= 48
5 0 5 25
9 5 10 30 25
9 10 15 35 30
9 15 20 40 35
5 0 25 45
9 25 30 50 45
9 30 35 55 50
9 35 40 60 55
5 0 45 65
9 45 50 70 65
9 50 55 75 70
9 55 60 80 75
5 0 65 85
9 65 70 90 85
9 70 75 95 90
9 75 80 100 95
5 0 85 105
9 85 90 110 105
9 90 95 115 110
9 95 100 120 115
5 0 105 125
9 105 110 130 125
9 110 115 135 130
9 115 120 140 135
5 0 125 145
9 125 130 150 145
9 130 135 155 150
9 135 140 160 155
5 0 145 165
9 145 150 170 165
9 150 155 175 170
9 155 160 180 175
5 0 165 185
9 165 170 190 185
9 170 175 195 190
9 175 180 200 195
5 0 185 205
9 185 190 210 205
9 190 195 215 210
9 195 200 220 215
5 0 205 225
9 205 210 230 225
9 210 215 235 230
9 215 220 240 235
5 0 225 5
9 225 230 10 5
9 230 235 15 10
9 235 240 20 15
MARKER_TAG= outlet
MARKER_ELEMS= 48
5 4 9 29
9 9 14 34 29
9 14 19 39 34
9 19 24 44 39
5 4 29 49
9 29 34 54 49
9 34 39 59 54
9 39 44 64 59
5 4 49 69
9 49 54 74 69
9 54 59 79 74
9 59 64 84 79
5 4 69 89
9 69 74 94 89
9 74 79 99 94
9 79 84 104 99
5 4 89 109
9 89 94 114 109
9 94 99 119 114
9 99 104 124 119
5 4 109 129
9 109 114 134 129
9 114 119 139 134
9 119 124 144 139
5 4 129 149
9 129 134 154 149
9 134 139 159 154
9 139 144 164 159
5 4 149 169
9 149 154 174 169
9 154 159 179 174
9 159 164 184 179
5 4 169 189
9 169 174 194 189
9 174 179 199 194
9 179 184 204 199
5 4 189 209
9 189 194 214 209
9 194 199 219 214
9 199 204 224 219
5 4 209 229
9 209 214 234 229
9 214 219 239 234
9 219 224 244 239
5 4 229 9
9 229 234 14 9
9 234 239 19 14
9 239 244 24 19
MARKER_TAG= wall
MARKER_ELEMS= 48
9 20 40 41 21
9 40 60 61 41
9 60 80 81 61
9 80 100 101 81
9 100 120 121 101
9 120 140 141 121
9 140 160 161 141
9 160 180 181 161
9 180 200 201 181
9 200 220 221 201
9 220 240 241 221
9 240 20 21 241
9 21 41 42 22
9 41 61 62 42
9 61 81 82 62
9 81 101 102 82
9 101 121 122 102
9 121 141 142 122
9 141 161 162 142
9 161 181 182 162
9 181 201 202 182
9 201 221 222 202
9 221 241 242 222
9 241 21 22 242
9 22 42 43 23
9 42 62 63 43
9 62 82 83 63
9 82 102 103 83
9 102 122 123 103
9 122 142 143 123
9 142 162 163 143
9 162 182 183 163
9 182 202 203 183
9 202 222 223 203
9 222 242 243 223
9 242 22 23 243
9 23 43 44 24
9 43 63 64 44
9 63 83 84 64
9 83 103 104 84
9 103 123 124 104
9 123 143 144 124
9 143 163 164 144
9 163 183 184 164
9 183 203 204 184
9 203 223 224 204
9 223 243 244 224
9 243 23 24 244
