NDIME= 3
NELEM= 48
10 0 8 15 9 0
10 15 8 1 9 1
10 0 8 10 15 2
10 15 8 10 1 3
10 0 8 9 16 4
10 16 8 9 3 5
10 0 8 16 11 6
10 16 8 3 11 7
10 0 8 17 10 8
10 17 8 4 10 9
10 0 8 11 17 10
10 17 8 11 4 11
10 9 8 1 18 12
10 9 8 18 2 13
10 8 12 1 18 14
10 8 12 18 2 15
10 10 8 19 1 16
10 10 8 5 19 17
10 8 12 19 1 18
10 8 12 5 19 19
10 9 8 2 20 20
10 9 8 20 3 21
10 8 13 2 20 22
10 8 13 20 3 23
10 8 21 12 2 24
10 8 6 12 21 25
10 8 21 2 13 26
10 8 6 21 13 27
10 11 8 3 22 28
10 11 8 22 7 29
10 8 13 3 22 30
10 8 13 22 7 31
10 10 8 4 23 32
10 10 8 23 5 33
10 8 14 4 23 34
10 8 14 23 5 35
10 11 8 24 4 36
10 11 8 7 24 37
10 8 14 24 4 38
10 8 14 7 24 39
10 8 25 5 12 40
10 8 6 25 12 41
10 8 25 14 5 42
10 8 6 14 25 43
10 8 6 13 26 44
10 8 26 13 7 45
10 8 6 26 14 46
10 8 26 7 14 47
NPOIN= 27
0 0 0 0
1 0 0 1
2 1 0 2
1 1 0 3
0 0 1 4
1 0 1 5
2 1 1 6
1 1 1 7
1 0.5 0.5 8
1 0.5 0 9
0.5 0 0.5 10
0.5 0.5 0.5 11
1.5 0.5 0.5 12
1.5 1 0.5 13
1 0.5 1 14
0.5 0 0 15
0.5 0.5 0 16
0 0 0.5 17
1.5 0.5 0 18
1 0 0.5 19
1.5 1 0 20
2 1 0.5 21
1 1 0.5 22
0.5 0 1 23
0.5 0.5 1 24
1.5 0.5 1 25
1.5 1 1 26
NMARK= 6
MARKER_TAG= side_0
MARKER_ELEMS= 8
5 0 9 15
5 1 15 9
5 0 16 9
5 3 9 16
5 1 9 18
5 2 18 9
5 2 9 20
5 3 20 9
MARKER_TAG= side_1
MARKER_ELEMS= 8
5 4 23 14
5 5 14 23
5 4 14 24
5 7 24 14
5 5 25 14
5 6 14 25
5 6 26 14
5 7 14 26
MARKER_TAG= side_2
MARKER_ELEMS= 8
5 0 15 10
5 1 10 15
5 0 10 17
5 4 17 10
5 1 19 10
5 5 10 19
5 4 10 23
5 5 23 10
MARKER_TAG= side_3
MARKER_ELEMS= 8
5 2 20 13
5 3 13 20
5 2 13 21
5 6 21 13
5 3 22 13
5 7 13 22
5 6 13 26
5 7 26 13
MARKER_TAG= side_4
MARKER_ELEMS= 8
5 0 11 16
5 3 16 11
5 0 17 11
5 4 11 17
5 3 11 22
5 7 22 11
5 4 24 11
5 7 11 24
MARKER_TAG= side_5
MARKER_ELEMS= 8
5 1 18 12
5 2 12 18
5 1 12 19
5 5 19 12
5 2 21 12
5 6 12 21
5 5 12 25
5 6 25 12
