NDIME= 3
NELEM= 48
10 0 8 15 9 0
10 15 8 4 9 1
10 0 8 10 15 2
10 15 8 10 4 3
10 9 8 16 1 4
10 9 8 5 16 5
10 8 11 16 1 6
10 8 11 5 16 7
10 8 17 11 2 8
10 8 6 11 17 9
10 8 17 2 12 10
10 8 6 17 12 11
10 10 8 3 18 12
10 10 8 18 7 13
10 8 12 3 18 14
10 8 12 18 7 15
10 0 8 9 19 16
10 19 8 9 1 17
10 0 8 19 13 18
10 19 8 1 13 19
10 0 8 20 10 20
10 20 8 3 10 21
10 0 8 13 20 22
10 20 8 13 3 23
10 8 11 1 21 24
10 8 11 21 2 25
10 13 8 1 21 26
10 13 8 21 2 27
10 8 12 2 22 28
10 8 12 22 3 29
10 13 8 2 22 30
10 13 8 22 3 31
10 9 8 4 23 32
10 9 8 23 5 33
10 8 14 4 23 34
10 8 14 23 5 35
10 10 8 24 4 36
10 10 8 7 24 37
10 8 14 24 4 38
10 8 14 7 24 39
10 8 25 5 11 40
10 8 6 25 11 41
10 8 25 14 5 42
10 8 6 14 25 43
10 8 6 12 26 44
10 8 26 12 7 45
10 8 6 26 14 46
10 8 26 7 14 47
NPOIN= 27
0 0 0 0
1 0 0 1
1 1 0 2
0 1 0 3
0 0 0.0001 4
1 0 0.0001 5
1 1 0.0001 6
0 1 0.0001 7
0.5 0.5 5.0000000000000002e-05 8
0.5 0 5.0000000000000002e-05 9
0 0.5 5.0000000000000002e-05 10
1 0.5 5.0000000000000002e-05 11
0.5 1 5.0000000000000002e-05 12
0.5 0.5 0 13
0.5 0.5 0.0001 14
0 0 5.0000000000000002e-05 15
1 0 5.0000000000000002e-05 16
1 1 5.0000000000000002e-05 17
0 1 5.0000000000000002e-05 18
0.5 0 0 19
0 0.5 0 20
1 0.5 0 21
0.5 1 0 22
0.5 0 0.0001 23
0 0.5 0.0001 24
1 0.5 0.0001 25
0.5 1 0.0001 26
NMARK= 6
MARKER_TAG= side_0
MARKER_ELEMS= 8
5 0 13 19
5 1 19 13
5 0 20 13
5 3 13 20
5 1 13 21
5 2 21 13
5 2 13 22
5 3 22 13
MARKER_TAG= side_1
MARKER_ELEMS= 8
5 4 23 14
5 5 14 23
5 4 14 24
5 7 24 14
5 5 25 14
5 6 14 25
5 6 26 14
5 7 14 26
MARKER_TAG= side_2
MARKER_ELEMS= 8
5 0 9 15
5 4 15 9
5 1 16 9
5 5 9 16
5 0 19 9
5 1 9 19
5 4 9 23
5 5 23 9
MARKER_TAG= side_3
MARKER_ELEMS= 8
5 2 12 17
5 6 17 12
5 3 18 12
5 7 12 18
5 2 22 12
5 3 12 22
5 6 12 26
5 7 26 12
MARKER_TAG= side_4
MARKER_ELEMS= 8
5 0 15 10
5 4 10 15
5 3 10 18
5 7 18 10
5 0 10 20
5 3 20 10
5 4 24 10
5 7 10 24
MARKER_TAG= side_5
MARKER_ELEMS= 8
5 1 11 16
5 5 16 11
5 2 17 11
5 6 11 17
5 1 21 11
5 2 11 21
5 5 11 25
5 6 25 11
