NDIME= 2
NELEM= 1152
5 0 1 26 0
5 0 26 25 1
5 1 2 27 2
5 1 27 26 3
5 2 3 28 4
5 2 28 27 5
5 3 4 29 6
5 3 29 28 7
5 4 5 30 8
5 4 30 29 9
5 5 6 31 10
5 5 31 30 11
5 6 7 32 12
5 6 32 31 13
5 7 8 33 14
5 7 33 32 15
5 8 9 34 16
5 8 34 33 17
5 9 10 35 18
5 9 35 34 19
5 10 11 36 20
5 10 36 35 21
5 11 12 37 22
5 11 37 36 23
5 12 13 38 24
5 12 38 37 25
5 13 14 39 26
5 13 39 38 27
5 14 15 40 28
5 14 40 39 29
5 15 16 41 30
5 15 41 40 31
5 16 17 42 32
5 16 42 41 33
5 17 18 43 34
5 17 43 42 35
5 18 19 44 36
5 18 44 43 37
5 19 20 45 38
5 19 45 44 39
5 20 21 46 40
5 20 46 45 41
5 21 22 47 42
5 21 47 46 43
5 22 23 48 44
5 22 48 47 45
5 23 24 49 46
5 23 49 48 47
5 25 26 51 48
5 25 51 50 49
5 26 27 52 50
5 26 52 51 51
5 27 28 53 52
5 27 53 52 53
5 28 29 54 54
5 28 54 53 55
5 29 30 55 56
5 29 55 54 57
5 30 31 56 58
5 30 56 55 59
5 31 32 57 60
5 31 57 56 61
5 32 33 58 62
5 32 58 57 63
5 33 34 59 64
5 33 59 58 65
5 34 35 60 66
5 34 60 59 67
5 35 36 61 68
5 35 61 60 69
5 36 37 62 70
5 36 62 61 71
5 37 38 63 72
5 37 63 62 73
5 38 39 64 74
5 38 64 63 75
5 39 40 65 76
5 39 65 64 77
5 40 41 66 78
5 40 66 65 79
5 41 42 67 80
5 41 67 66 81
5 42 43 68 82
5 42 68 67 83
5 43 44 69 84
5 43 69 68 85
5 44 45 70 86
5 44 70 69 87
5 45 46 71 88
5 45 71 70 89
5 46 47 72 90
5 46 72 71 91
5 47 48 73 92
5 47 73 72 93
5 48 49 74 94
5 48 74 73 95
5 50 51 76 96
5 50 76 75 97
5 51 52 77 98
5 51 77 76 99
5 52 53 78 100
5 52 78 77 101
5 53 54 79 102
5 53 79 78 103
5 54 55 80 104
5 54 80 79 105
5 55 56 81 106
5 55 81 80 107
5 56 57 82 108
5 56 82 81 109
5 57 58 83 110
5 57 83 82 111
5 58 59 84 112
5 58 84 83 113
5 59 60 85 114
5 59 85 84 115
5 60 61 86 116
5 60 86 85 117
5 61 62 87 118
5 61 87 86 119
5 62 63 88 120
5 62 88 87 121
5 63 64 89 122
5 63 89 88 123
5 64 65 90 124
5 64 90 89 125
5 65 66 91 126
5 65 91 90 127
5 66 67 92 128
5 66 92 91 129
5 67 68 93 130
5 67 93 92 131
5 68 69 94 132
5 68 94 93 133
5 69 70 95 134
5 69 95 94 135
5 70 71 96 136
5 70 96 95 137
5 71 72 97 138
5 71 97 96 139
5 72 73 98 140
5 72 98 97 141
5 73 74 99 142
5 73 99 98 143
5 75 76 101 144
5 75 101 100 145
5 76 77 102 146
5 76 102 101 147
5 77 78 103 148
5 77 103 102 149
5 78 79 104 150
5 78 104 103 151
5 79 80 105 152
5 79 105 104 153
5 80 81 106 154
5 80 106 105 155
5 81 82 107 156
5 81 107 106 157
5 82 83 108 158
5 82 108 107 159
5 83 84 109 160
5 83 109 108 161
5 84 85 110 162
5 84 110 109 163
5 85 86 111 164
5 85 111 110 165
5 86 87 112 166
5 86 112 111 167
5 87 88 113 168
5 87 113 112 169
5 88 89 114 170
5 88 114 113 171
5 89 90 115 172
5 89 115 114 173
5 90 91 116 174
5 90 116 115 175
5 91 92 117 176
5 91 117 116 177
5 92 93 118 178
5 92 118 117 179
5 93 94 119 180
5 93 119 118 181
5 94 95 120 182
5 94 120 119 183
5 95 96 121 184
5 95 121 120 185
5 96 97 122 186
5 96 122 121 187
5 97 98 123 188
5 97 123 122 189
5 98 99 124 190
5 98 124 123 191
5 100 101 126 192
5 100 126 125 193
5 101 102 127 194
5 101 127 126 195
5 102 103 128 196
5 102 128 127 197
5 103 104 129 198
5 103 129 128 199
5 104 105 130 200
5 104 130 129 201
5 105 106 131 202
5 105 131 130 203
5 106 107 132 204
5 106 132 131 205
5 107 108 133 206
5 107 133 132 207
5 108 109 134 208
5 108 134 133 209
5 109 110 135 210
5 109 135 134 211
5 110 111 136 212
5 110 136 135 213
5 111 112 137 214
5 111 137 136 215
5 112 113 138 216
5 112 138 137 217
5 113 114 139 218
5 113 139 138 219
5 114 115 140 220
5 114 140 139 221
5 115 116 141 222
5 115 141 140 223
5 116 117 142 224
5 116 142 141 225
5 117 118 143 226
5 117 143 142 227
5 118 119 144 228
5 118 144 143 229
5 119 120 145 230
5 119 145 144 231
5 120 121 146 232
5 120 146 145 233
5 121 122 147 234
5 121 147 146 235
5 122 123 148 236
5 122 148 147 237
5 123 124 149 238
5 123 149 148 239
5 125 126 151 240
5 125 151 150 241
5 126 127 152 242
5 126 152 151 243
5 127 128 153 244
5 127 153 152 245
5 128 129 154 246
5 128 154 153 247
5 129 130 155 248
5 129 155 154 249
5 130 131 156 250
5 130 156 155 251
5 131 132 157 252
5 131 157 156 253
5 132 133 158 254
5 132 158 157 255
5 133 134 159 256
5 133 159 158 257
5 134 135 160 258
5 134 160 159 259
5 135 136 161 260
5 135 161 160 261
5 136 137 162 262
5 136 162 161 263
5 137 138 163 264
5 137 163 162 265
5 138 139 164 266
5 138 164 163 267
5 139 140 165 268
5 139 165 164 269
5 140 141 166 270
5 140 166 165 271
5 141 142 167 272
5 141 167 166 273
5 142 143 168 274
5 142 168 167 275
5 143 144 169 276
5 143 169 168 277
5 144 145 170 278
5 144 170 169 279
5 145 146 171 280
5 145 171 170 281
5 146 147 172 282
5 146 172 171 283
5 147 148 173 284
5 147 173 172 285
5 148 149 174 286
5 148 174 173 287
5 150 151 176 288
5 150 176 175 289
5 151 152 177 290
5 151 177 176 291
5 152 153 178 292
5 152 178 177 293
5 153 154 179 294
5 153 179 178 295
5 154 155 180 296
5 154 180 179 297
5 155 156 181 298
5 155 181 180 299
5 156 157 182 300
5 156 182 181 301
5 157 158 183 302
5 157 183 182 303
5 158 159 184 304
5 158 184 183 305
5 159 160 185 306
5 159 185 184 307
5 160 161 186 308
5 160 186 185 309
5 161 162 187 310
5 161 187 186 311
5 162 163 188 312
5 162 188 187 313
5 163 164 189 314
5 163 189 188 315
5 164 165 190 316
5 164 190 189 317
5 165 166 191 318
5 165 191 190 319
5 166 167 192 320
5 166 192 191 321
5 167 168 193 322
5 167 193 192 323
5 168 169 194 324
5 168 194 193 325
5 169 170 195 326
5 169 195 194 327
5 170 171 196 328
5 170 196 195 329
5 171 172 197 330
5 171 197 196 331
5 172 173 198 332
5 172 198 197 333
5 173 174 199 334
5 173 199 198 335
5 175 176 201 336
5 175 201 200 337
5 176 177 202 338
5 176 202 201 339
5 177 178 203 340
5 177 203 202 341
5 178 179 204 342
5 178 204 203 343
5 179 180 205 344
5 179 205 204 345
5 180 181 206 346
5 180 206 205 347
5 181 182 207 348
5 181 207 206 349
5 182 183 208 350
5 182 208 207 351
5 183 184 209 352
5 183 209 208 353
5 184 185 210 354
5 184 210 209 355
5 185 186 211 356
5 185 211 210 357
5 186 187 212 358
5 186 212 211 359
5 187 188 213 360
5 187 213 212 361
5 188 189 214 362
5 188 214 213 363
5 189 190 215 364
5 189 215 214 365
5 190 191 216 366
5 190 216 215 367
5 191 192 217 368
5 191 217 216 369
5 192 193 218 370
5 192 218 217 371
5 193 194 219 372
5 193 219 218 373
5 194 195 220 374
5 194 220 219 375
5 195 196 221 376
5 195 221 220 377
5 196 197 222 378
5 196 222 221 379
5 197 198 223 380
5 197 223 222 381
5 198 199 224 382
5 198 224 223 383
5 200 201 226 384
5 200 226 225 385
5 201 202 227 386
5 201 227 226 387
5 202 203 228 388
5 202 228 227 389
5 203 204 229 390
5 203 229 228 391
5 204 205 230 392
5 204 230 229 393
5 205 206 231 394
5 205 231 230 395
5 206 207 232 396
5 206 232 231 397
5 207 208 233 398
5 207 233 232 399
5 208 209 234 400
5 208 234 233 401
5 209 210 235 402
5 209 235 234 403
5 210 211 236 404
5 210 236 235 405
5 211 212 237 406
5 211 237 236 407
5 212 213 238 408
5 212 238 237 409
5 213 214 239 410
5 213 239 238 411
5 214 215 240 412
5 214 240 239 413
5 215 216 241 414
5 215 241 240 415
5 216 217 242 416
5 216 242 241 417
5 217 218 243 418
5 217 243 242 419
5 218 219 244 420
5 218 244 243 421
5 219 220 245 422
5 219 245 244 423
5 220 221 246 424
5 220 246 245 425
5 221 222 247 426
5 221 247 246 427
5 222 223 248 428
5 222 248 247 429
5 223 224 249 430
5 223 249 248 431
5 225 226 251 432
5 225 251 250 433
5 226 227 252 434
5 226 252 251 435
5 227 228 253 436
5 227 253 252 437
5 228 229 254 438
5 228 254 253 439
5 229 230 255 440
5 229 255 254 441
5 230 231 256 442
5 230 256 255 443
5 231 232 257 444
5 231 257 256 445
5 232 233 258 446
5 232 258 257 447
5 233 234 259 448
5 233 259 258 449
5 234 235 260 450
5 234 260 259 451
5 235 236 261 452
5 235 261 260 453
5 236 237 262 454
5 236 262 261 455
5 237 238 263 456
5 237 263 262 457
5 238 239 264 458
5 238 264 263 459
5 239 240 265 460
5 239 265 264 461
5 240 241 266 462
5 240 266 265 463
5 241 242 267 464
5 241 267 266 465
5 242 243 268 466
5 242 268 267 467
5 243 244 269 468
5 243 269 268 469
5 244 245 270 470
5 244 270 269 471
5 245 246 271 472
5 245 271 270 473
5 246 247 272 474
5 246 272 271 475
5 247 248 273 476
5 247 273 272 477
5 248 249 274 478
5 248 274 273 479
5 250 251 276 480
5 250 276 275 481
5 251 252 277 482
5 251 277 276 483
5 252 253 278 484
5 252 278 277 485
5 253 254 279 486
5 253 279 278 487
5 254 255 280 488
5 254 280 279 489
5 255 256 281 490
5 255 281 280 491
5 256 257 282 492
5 256 282 281 493
5 257 258 283 494
5 257 283 282 495
5 258 259 284 496
5 258 284 283 497
5 259 260 285 498
5 259 285 284 499
5 260 261 286 500
5 260 286 285 501
5 261 262 287 502
5 261 287 286 503
5 262 263 288 504
5 262 288 287 505
5 263 264 289 506
5 263 289 288 507
5 264 265 290 508
5 264 290 289 509
5 265 266 291 510
5 265 291 290 511
5 266 267 292 512
5 266 292 291 513
5 267 268 293 514
5 267 293 292 515
5 268 269 294 516
5 268 294 293 517
5 269 270 295 518
5 269 295 294 519
5 270 271 296 520
5 270 296 295 521
5 271 272 297 522
5 271 297 296 523
5 272 273 298 524
5 272 298 297 525
5 273 274 299 526
5 273 299 298 527
5 275 276 301 528
5 275 301 300 529
5 276 277 302 530
5 276 302 301 531
5 277 278 303 532
5 277 303 302 533
5 278 279 304 534
5 278 304 303 535
5 279 280 305 536
5 279 305 304 537
5 280 281 306 538
5 280 306 305 539
5 281 282 307 540
5 281 307 306 541
5 282 283 308 542
5 282 308 307 543
5 283 284 309 544
5 283 309 308 545
5 284 285 310 546
5 284 310 309 547
5 285 286 311 548
5 285 311 310 549
5 286 287 312 550
5 286 312 311 551
5 287 288 313 552
5 287 313 312 553
5 288 289 314 554
5 288 314 313 555
5 289 290 315 556
5 289 315 314 557
5 290 291 316 558
5 290 316 315 559
5 291 292 317 560
5 291 317 316 561
5 292 293 318 562
5 292 318 317 563
5 293 294 319 564
5 293 319 318 565
5 294 295 320 566
5 294 320 319 567
5 295 296 321 568
5 295 321 320 569
5 296 297 322 570
5 296 322 321 571
5 297 298 323 572
5 297 323 322 573
5 298 299 324 574
5 298 324 323 575
5 300 301 326 576
5 300 326 325 577
5 301 302 327 578
5 301 327 326 579
5 302 303 328 580
5 302 328 327 581
5 303 304 329 582
5 303 329 328 583
5 304 305 330 584
5 304 330 329 585
5 305 306 331 586
5 305 331 330 587
5 306 307 332 588
5 306 332 331 589
5 307 308 333 590
5 307 333 332 591
5 308 309 334 592
5 308 334 333 593
5 309 310 335 594
5 309 335 334 595
5 310 311 336 596
5 310 336 335 597
5 311 312 337 598
5 311 337 336 599
5 312 313 338 600
5 312 338 337 601
5 313 314 339 602
5 313 339 338 603
5 314 315 340 604
5 314 340 339 605
5 315 316 341 606
5 315 341 340 607
5 316 317 342 608
5 316 342 341 609
5 317 318 343 610
5 317 343 342 611
5 318 319 344 612
5 318 344 343 613
5 319 320 345 614
5 319 345 344 615
5 320 321 346 616
5 320 346 345 617
5 321 322 347 618
5 321 347 346 619
5 322 323 348 620
5 322 348 347 621
5 323 324 349 622
5 323 349 348 623
5 325 326 351 624
5 325 351 350 625
5 326 327 352 626
5 326 352 351 627
5 327 328 353 628
5 327 353 352 629
5 328 329 354 630
5 328 354 353 631
5 329 330 355 632
5 329 355 354 633
5 330 331 356 634
5 330 356 355 635
5 331 332 357 636
5 331 357 356 637
5 332 333 358 638
5 332 358 357 639
5 333 334 359 640
5 333 359 358 641
5 334 335 360 642
5 334 360 359 643
5 335 336 361 644
5 335 361 360 645
5 336 337 362 646
5 336 362 361 647
5 337 338 363 648
5 337 363 362 649
5 338 339 364 650
5 338 364 363 651
5 339 340 365 652
5 339 365 364 653
5 340 341 366 654
5 340 366 365 655
5 341 342 367 656
5 341 367 366 657
5 342 343 368 658
5 342 368 367 659
5 343 344 369 660
5 343 369 368 661
5 344 345 370 662
5 344 370 369 663
5 345 346 371 664
5 345 371 370 665
5 346 347 372 666
5 346 372 371 667
5 347 348 373 668
5 347 373 372 669
5 348 349 374 670
5 348 374 373 671
5 350 351 376 672
5 350 376 375 673
5 351 352 377 674
5 351 377 376 675
5 352 353 378 676
5 352 378 377 677
5 353 354 379 678
5 353 379 378 679
5 354 355 380 680
5 354 380 379 681
5 355 356 381 682
5 355 381 380 683
5 356 357 382 684
5 356 382 381 685
5 357 358 383 686
5 357 383 382 687
5 358 359 384 688
5 358 384 383 689
5 359 360 385 690
5 359 385 384 691
5 360 361 386 692
5 360 386 385 693
5 361 362 387 694
5 361 387 386 695
5 362 363 388 696
5 362 388 387 697
5 363 364 389 698
5 363 389 388 699
5 364 365 390 700
5 364 390 389 701
5 365 366 391 702
5 365 391 390 703
5 366 367 392 704
5 366 392 391 705
5 367 368 393 706
5 367 393 392 707
5 368 369 394 708
5 368 394 393 709
5 369 370 395 710
5 369 395 394 711
5 370 371 396 712
5 370 396 395 713
5 371 372 397 714
5 371 397 396 715
5 372 373 398 716
5 372 398 397 717
5 373 374 399 718
5 373 399 398 719
5 375 376 401 720
5 375 401 400 721
5 376 377 402 722
5 376 402 401 723
5 377 378 403 724
5 377 403 402 725
5 378 379 404 726
5 378 404 403 727
5 379 380 405 728
5 379 405 404 729
5 380 381 406 730
5 380 406 405 731
5 381 382 407 732
5 381 407 406 733
5 382 383 408 734
5 382 408 407 735
5 383 384 409 736
5 383 409 408 737
5 384 385 410 738
5 384 410 409 739
5 385 386 411 740
5 385 411 410 741
5 386 387 412 742
5 386 412 411 743
5 387 388 413 744
5 387 413 412 745
5 388 389 414 746
5 388 414 413 747
5 389 390 415 748
5 389 415 414 749
5 390 391 416 750
5 390 416 415 751
5 391 392 417 752
5 391 417 416 753
5 392 393 418 754
5 392 418 417 755
5 393 394 419 756
5 393 419 418 757
5 394 395 420 758
5 394 420 419 759
5 395 396 421 760
5 395 421 420 761
5 396 397 422 762
5 396 422 421 763
5 397 398 423 764
5 397 423 422 765
5 398 399 424 766
5 398 424 423 767
5 400 401 426 768
5 400 426 425 769
5 401 402 427 770
5 401 427 426 771
5 402 403 428 772
5 402 428 427 773
5 403 404 429 774
5 403 429 428 775
5 404 405 430 776
5 404 430 429 777
5 405 406 431 778
5 405 431 430 779
5 406 407 432 780
5 406 432 431 781
5 407 408 433 782
5 407 433 432 783
5 408 409 434 784
5 408 434 433 785
5 409 410 435 786
5 409 435 434 787
5 410 411 436 788
5 410 436 435 789
5 411 412 437 790
5 411 437 436 791
5 412 413 438 792
5 412 438 437 793
5 413 414 439 794
5 413 439 438 795
5 414 415 440 796
5 414 440 439 797
5 415 416 441 798
5 415 441 440 799
5 416 417 442 800
5 416 442 441 801
5 417 418 443 802
5 417 443 442 803
5 418 419 444 804
5 418 444 443 805
5 419 420 445 806
5 419 445 444 807
5 420 421 446 808
5 420 446 445 809
5 421 422 447 810
5 421 447 446 811
5 422 423 448 812
5 422 448 447 813
5 423 424 449 814
5 423 449 448 815
5 425 426 451 816
5 425 451 450 817
5 426 427 452 818
5 426 452 451 819
5 427 428 453 820
5 427 453 452 821
5 428 429 454 822
5 428 454 453 823
5 429 430 455 824
5 429 455 454 825
5 430 431 456 826
5 430 456 455 827
5 431 432 457 828
5 431 457 456 829
5 432 433 458 830
5 432 458 457 831
5 433 434 459 832
5 433 459 458 833
5 434 435 460 834
5 434 460 459 835
5 435 436 461 836
5 435 461 460 837
5 436 437 462 838
5 436 462 461 839
5 437 438 463 840
5 437 463 462 841
5 438 439 464 842
5 438 464 463 843
5 439 440 465 844
5 439 465 464 845
5 440 441 466 846
5 440 466 465 847
5 441 442 467 848
5 441 467 466 849
5 442 443 468 850
5 442 468 467 851
5 443 444 469 852
5 443 469 468 853
5 444 445 470 854
5 444 470 469 855
5 445 446 471 856
5 445 471 470 857
5 446 447 472 858
5 446 472 471 859
5 447 448 473 860
5 447 473 472 861
5 448 449 474 862
5 448 474 473 863
5 450 451 476 864
5 450 476 475 865
5 451 452 477 866
5 451 477 476 867
5 452 453 478 868
5 452 478 477 869
5 453 454 479 870
5 453 479 478 871
5 454 455 480 872
5 454 480 479 873
5 455 456 481 874
5 455 481 480 875
5 456 457 482 876
5 456 482 481 877
5 457 458 483 878
5 457 483 482 879
5 458 459 484 880
5 458 484 483 881
5 459 460 485 882
5 459 485 484 883
5 460 461 486 884
5 460 486 485 885
5 461 462 487 886
5 461 487 486 887
5 462 463 488 888
5 462 488 487 889
5 463 464 489 890
5 463 489 488 891
5 464 465 490 892
5 464 490 489 893
5 465 466 491 894
5 465 491 490 895
5 466 467 492 896
5 466 492 491 897
5 467 468 493 898
5 467 493 492 899
5 468 469 494 900
5 468 494 493 901
5 469 470 495 902
5 469 495 494 903
5 470 471 496 904
5 470 496 495 905
5 471 472 497 906
5 471 497 496 907
5 472 473 498 908
5 472 498 497 909
5 473 474 499 910
5 473 499 498 911
5 475 476 501 912
5 475 501 500 913
5 476 477 502 914
5 476 502 501 915
5 477 478 503 916
5 477 503 502 917
5 478 479 504 918
5 478 504 503 919
5 479 480 505 920
5 479 505 504 921
5 480 481 506 922
5 480 506 505 923
5 481 482 507 924
5 481 507 506 925
5 482 483 508 926
5 482 508 507 927
5 483 484 509 928
5 483 509 508 929
5 484 485 510 930
5 484 510 509 931
5 485 486 511 932
5 485 511 510 933
5 486 487 512 934
5 486 512 511 935
5 487 488 513 936
5 487 513 512 937
5 488 489 514 938
5 488 514 513 939
5 489 490 515 940
5 489 515 514 941
5 490 491 516 942
5 490 516 515 943
5 491 492 517 944
5 491 517 516 945
5 492 493 518 946
5 492 518 517 947
5 493 494 519 948
5 493 519 518 949
5 494 495 520 950
5 494 520 519 951
5 495 496 521 952
5 495 521 520 953
5 496 497 522 954
5 496 522 521 955
5 497 498 523 956
5 497 523 522 957
5 498 499 524 958
5 498 524 523 959
5 500 501 526 960
5 500 526 525 961
5 501 502 527 962
5 501 527 526 963
5 502 503 528 964
5 502 528 527 965
5 503 504 529 966
5 503 529 528 967
5 504 505 530 968
5 504 530 529 969
5 505 506 531 970
5 505 531 530 971
5 506 507 532 972
5 506 532 531 973
5 507 508 533 974
5 507 533 532 975
5 508 509 534 976
5 508 534 533 977
5 509 510 535 978
5 509 535 534 979
5 510 511 536 980
5 510 536 535 981
5 511 512 537 982
5 511 537 536 983
5 512 513 538 984
5 512 538 537 985
5 513 514 539 986
5 513 539 538 987
5 514 515 540 988
5 514 540 539 989
5 515 516 541 990
5 515 541 540 991
5 516 517 542 992
5 516 542 541 993
5 517 518 543 994
5 517 543 542 995
5 518 519 544 996
5 518 544 543 997
5 519 520 545 998
5 519 545 544 999
5 520 521 546 1000
5 520 546 545 1001
5 521 522 547 1002
5 521 547 546 1003
5 522 523 548 1004
5 522 548 547 1005
5 523 524 549 1006
5 523 549 548 1007
5 525 526 551 1008
5 525 551 550 1009
5 526 527 552 1010
5 526 552 551 1011
5 527 528 553 1012
5 527 553 552 1013
5 528 529 554 1014
5 528 554 553 1015
5 529 530 555 1016
5 529 555 554 1017
5 530 531 556 1018
5 530 556 555 1019
5 531 532 557 1020
5 531 557 556 1021
5 532 533 558 1022
5 532 558 557 1023
5 533 534 559 1024
5 533 559 558 1025
5 534 535 560 1026
5 534 560 559 1027
5 535 536 561 1028
5 535 561 560 1029
5 536 537 562 1030
5 536 562 561 1031
5 537 538 563 1032
5 537 563 562 1033
5 538 539 564 1034
5 538 564 563 1035
5 539 540 565 1036
5 539 565 564 1037
5 540 541 566 1038
5 540 566 565 1039
5 541 542 567 1040
5 541 567 566 1041
5 542 543 568 1042
5 542 568 567 1043
5 543 544 569 1044
5 543 569 568 1045
5 544 545 570 1046
5 544 570 569 1047
5 545 546 571 1048
5 545 571 570 1049
5 546 547 572 1050
5 546 572 571 1051
5 547 548 573 1052
5 547 573 572 1053
5 548 549 574 1054
5 548 574 573 1055
5 550 551 576 1056
5 550 576 575 1057
5 551 552 577 1058
5 551 577 576 1059
5 552 553 578 1060
5 552 578 577 1061
5 553 554 579 1062
5 553 579 578 1063
5 554 555 580 1064
5 554 580 579 1065
5 555 556 581 1066
5 555 581 580 1067
5 556 557 582 1068
5 556 582 581 1069
5 557 558 583 1070
5 557 583 582 1071
5 558 559 584 1072
5 558 584 583 1073
5 559 560 585 1074
5 559 585 584 1075
5 560 561 586 1076
5 560 586 585 1077
5 561 562 587 1078
5 561 587 586 1079
5 562 563 588 1080
5 562 588 587 1081
5 563 564 589 1082
5 563 589 588 1083
5 564 565 590 1084
5 564 590 589 1085
5 565 566 591 1086
5 565 591 590 1087
5 566 567 592 1088
5 566 592 591 1089
5 567 568 593 1090
5 567 593 592 1091
5 568 569 594 1092
5 568 594 593 1093
5 569 570 595 1094
5 569 595 594 1095
5 570 571 596 1096
5 570 596 595 1097
5 571 572 597 1098
5 571 597 596 1099
5 572 573 598 1100
5 572 598 597 1101
5 573 574 599 1102
5 573 599 598 1103
5 575 576 601 1104
5 575 601 600 1105
5 576 577 602 1106
5 576 602 601 1107
5 577 578 603 1108
5 577 603 602 1109
5 578 579 604 1110
5 578 604 603 1111
5 579 580 605 1112
5 579 605 604 1113
5 580 581 606 1114
5 580 606 605 1115
5 581 582 607 1116
5 581 607 606 1117
5 582 583 608 1118
5 582 608 607 1119
5 583 584 609 1120
5 583 609 608 1121
5 584 585 610 1122
5 584 610 609 1123
5 585 586 611 1124
5 585 611 610 1125
5 586 587 612 1126
5 586 612 611 1127
5 587 588 613 1128
5 587 613 612 1129
5 588 589 614 1130
5 588 614 613 1131
5 589 590 615 1132
5 589 615 614 1133
5 590 591 616 1134
5 590 616 615 1135
5 591 592 617 1136
5 591 617 616 1137
5 592 593 618 1138
5 592 618 617 1139
5 593 594 619 1140
5 593 619 618 1141
5 594 595 620 1142
5 594 620 619 1143
5 595 596 621 1144
5 595 621 620 1145
5 596 597 622 1146
5 596 622 621 1147
5 597 598 623 1148
5 597 623 622 1149
5 598 599 624 1150
5 598 624 623 1151
NPOIN= 625
-5 -5 0
-4.583333333333333 -5 1
-4.166666666666667 -5 2
-3.75 -5 3
-3.333333333333333 -5 4
-2.916666666666667 -5 5
-2.5 -5 6
-2.083333333333333 -5 7
-1.666666666666667 -5 8
-1.25 -5 9
-0.833333333333333 -5 10
-0.416666666666667 -5 11
0 -5 12
0.416666666666667 -5 13
0.833333333333333 -5 14
1.25 -5 15
1.666666666666667 -5 16
2.083333333333333 -5 17
2.5 -5 18
2.916666666666667 -5 19
3.333333333333334 -5 20
3.75 -5 21
4.166666666666666 -5 22
4.583333333333334 -5 23
5 -5 24
-5 -4.583333333333333 25
-4.583333333333333 -4.583333333333333 26
-4.166666666666667 -4.583333333333333 27
-3.75 -4.583333333333333 28
-3.333333333333333 -4.583333333333333 29
-2.916666666666667 -4.583333333333333 30
-2.5 -4.583333333333333 31
-2.083333333333333 -4.583333333333333 32
-1.666666666666667 -4.583333333333333 33
-1.25 -4.583333333333333 34
-0.833333333333333 -4.583333333333333 35
-0.416666666666667 -4.583333333333333 36
0 -4.583333333333333 37
0.416666666666667 -4.583333333333333 38
0.833333333333333 -4.583333333333333 39
1.25 -4.583333333333333 40
1.666666666666667 -4.583333333333333 41
2.083333333333333 -4.583333333333333 42
2.5 -4.583333333333333 43
2.916666666666667 -4.583333333333333 44
3.333333333333334 -4.583333333333333 45
3.75 -4.583333333333333 46
4.166666666666666 -4.583333333333333 47
4.583333333333334 -4.583333333333333 48
5 -4.583333333333333 49
-5 -4.166666666666667 50
-4.583333333333333 -4.166666666666667 51
-4.166666666666667 -4.166666666666667 52
-3.75 -4.166666666666667 53
-3.333333333333333 -4.166666666666667 54
-2.916666666666667 -4.166666666666667 55
-2.5 -4.166666666666667 56
-2.083333333333333 -4.166666666666667 57
-1.666666666666667 -4.166666666666667 58
-1.25 -4.166666666666667 59
-0.833333333333333 -4.166666666666667 60
-0.416666666666667 -4.166666666666667 61
0 -4.166666666666667 62
0.416666666666667 -4.166666666666667 63
0.833333333333333 -4.166666666666667 64
1.25 -4.166666666666667 65
1.666666666666667 -4.166666666666667 66
2.083333333333333 -4.166666666666667 67
2.5 -4.166666666666667 68
2.916666666666667 -4.166666666666667 69
3.333333333333334 -4.166666666666667 70
3.75 -4.166666666666667 71
4.166666666666666 -4.166666666666667 72
4.583333333333334 -4.166666666666667 73
5 -4.166666666666667 74
-5 -3.75 75
-4.583333333333333 -3.75 76
-4.166666666666667 -3.75 77
-3.75 -3.75 78
-3.333333333333333 -3.75 79
-2.916666666666667 -3.75 80
-2.5 -3.75 81
-2.083333333333333 -3.75 82
-1.666666666666667 -3.75 83
-1.25 -3.75 84
-0.833333333333333 -3.75 85
-0.416666666666667 -3.75 86
0 -3.75 87
0.416666666666667 -3.75 88
0.833333333333333 -3.75 89
1.25 -3.75 90
1.666666666666667 -3.75 91
2.083333333333333 -3.75 92
2.5 -3.75 93
2.916666666666667 -3.75 94
3.333333333333334 -3.75 95
3.75 -3.75 96
4.166666666666666 -3.75 97
4.583333333333334 -3.75 98
5 -3.75 99
-5 -3.333333333333333 100
-4.583333333333333 -3.333333333333333 101
-4.166666666666667 -3.333333333333333 102
-3.75 -3.333333333333333 103
-3.333333333333333 -3.333333333333333 104
-2.916666666666667 -3.333333333333333 105
-2.5 -3.333333333333333 106
-2.083333333333333 -3.333333333333333 107
-1.666666666666667 -3.333333333333333 108
-1.25 -3.333333333333333 109
-0.833333333333333 -3.333333333333333 110
-0.416666666666667 -3.333333333333333 111
0 -3.333333333333333 112
0.416666666666667 -3.333333333333333 113
0.833333333333333 -3.333333333333333 114
1.25 -3.333333333333333 115
1.666666666666667 -3.333333333333333 116
2.083333333333333 -3.333333333333333 117
2.5 -3.333333333333333 118
2.916666666666667 -3.333333333333333 119
3.333333333333334 -3.333333333333333 120
3.75 -3.333333333333333 121
4.166666666666666 -3.333333333333333 122
4.583333333333334 -3.333333333333333 123
5 -3.333333333333333 124
-5 -2.916666666666667 125
-4.583333333333333 -2.916666666666667 126
-4.166666666666667 -2.916666666666667 127
-3.75 -2.916666666666667 128
-3.333333333333333 -2.916666666666667 129
-2.916666666666667 -2.916666666666667 130
-2.5 -2.916666666666667 131
-2.083333333333333 -2.916666666666667 132
-1.666666666666667 -2.916666666666667 133
-1.25 -2.916666666666667 134
-0.833333333333333 -2.916666666666667 135
-0.416666666666667 -2.916666666666667 136
0 -2.916666666666667 137
0.416666666666667 -2.916666666666667 138
0.833333333333333 -2.916666666666667 139
1.25 -2.916666666666667 140
1.666666666666667 -2.916666666666667 141
2.083333333333333 -2.916666666666667 142
2.5 -2.916666666666667 143
2.916666666666667 -2.916666666666667 144
3.333333333333334 -2.916666666666667 145
3.75 -2.916666666666667 146
4.166666666666666 -2.916666666666667 147
4.583333333333334 -2.916666666666667 148
5 -2.916666666666667 149
-5 -2.5 150
-4.583333333333333 -2.5 151
-4.166666666666667 -2.5 152
-3.75 -2.5 153
-3.333333333333333 -2.5 154
-2.916666666666667 -2.5 155
-2.5 -2.5 156
-2.083333333333333 -2.5 157
-1.666666666666667 -2.5 158
-1.25 -2.5 159
-0.833333333333333 -2.5 160
-0.416666666666667 -2.5 161
0 -2.5 162
0.416666666666667 -2.5 163
0.833333333333333 -2.5 164
1.25 -2.5 165
1.666666666666667 -2.5 166
2.083333333333333 -2.5 167
2.5 -2.5 168
2.916666666666667 -2.5 169
3.333333333333334 -2.5 170
3.75 -2.5 171
4.166666666666666 -2.5 172
4.583333333333334 -2.5 173
5 -2.5 174
-5 -2.083333333333333 175
-4.583333333333333 -2.083333333333333 176
-4.166666666666667 -2.083333333333333 177
-3.75 -2.083333333333333 178
-3.333333333333333 -2.083333333333333 179
-2.916666666666667 -2.083333333333333 180
-2.5 -2.083333333333333 181
-2.083333333333333 -2.083333333333333 182
-1.666666666666667 -2.083333333333333 183
-1.25 -2.083333333333333 184
-0.833333333333333 -2.083333333333333 185
-0.416666666666667 -2.083333333333333 186
0 -2.083333333333333 187
0.416666666666667 -2.083333333333333 188
0.833333333333333 -2.083333333333333 189
1.25 -2.083333333333333 190
1.666666666666667 -2.083333333333333 191
2.083333333333333 -2.083333333333333 192
2.5 -2.083333333333333 193
2.916666666666667 -2.083333333333333 194
3.333333333333334 -2.083333333333333 195
3.75 -2.083333333333333 196
4.166666666666666 -2.083333333333333 197
4.583333333333334 -2.083333333333333 198
5 -2.083333333333333 199
-5 -1.666666666666667 200
-4.583333333333333 -1.666666666666667 201
-4.166666666666667 -1.666666666666667 202
-3.75 -1.666666666666667 203
-3.333333333333333 -1.666666666666667 204
-2.916666666666667 -1.666666666666667 205
-2.5 -1.666666666666667 206
-2.083333333333333 -1.666666666666667 207
-1.666666666666667 -1.666666666666667 208
-1.25 -1.666666666666667 209
-0.833333333333333 -1.666666666666667 210
-0.416666666666667 -1.666666666666667 211
0 -1.666666666666667 212
0.416666666666667 -1.666666666666667 213
0.833333333333333 -1.666666666666667 214
1.25 -1.666666666666667 215
1.666666666666667 -1.666666666666667 216
2.083333333333333 -1.666666666666667 217
2.5 -1.666666666666667 218
2.916666666666667 -1.666666666666667 219
3.333333333333334 -1.666666666666667 220
3.75 -1.666666666666667 221
4.166666666666666 -1.666666666666667 222
4.583333333333334 -1.666666666666667 223
5 -1.666666666666667 224
-5 -1.25 225
-4.583333333333333 -1.25 226
-4.166666666666667 -1.25 227
-3.75 -1.25 228
-3.333333333333333 -1.25 229
-2.916666666666667 -1.25 230
-2.5 -1.25 231
-2.083333333333333 -1.25 232
-1.666666666666667 -1.25 233
-1.25 -1.25 234
-0.833333333333333 -1.25 235
-0.416666666666667 -1.25 236
0 -1.25 237
0.416666666666667 -1.25 238
0.833333333333333 -1.25 239
1.25 -1.25 240
1.666666666666667 -1.25 241
2.083333333333333 -1.25 242
2.5 -1.25 243
2.916666666666667 -1.25 244
3.333333333333334 -1.25 245
3.75 -1.25 246
4.166666666666666 -1.25 247
4.583333333333334 -1.25 248
5 -1.25 249
-5 -0.833333333333333 250
-4.583333333333333 -0.833333333333333 251
-4.166666666666667 -0.833333333333333 252
-3.75 -0.833333333333333 253
-3.333333333333333 -0.833333333333333 254
-2.916666666666667 -0.833333333333333 255
-2.5 -0.833333333333333 256
-2.083333333333333 -0.833333333333333 257
-1.666666666666667 -0.833333333333333 258
-1.25 -0.833333333333333 259
-0.833333333333333 -0.833333333333333 260
-0.416666666666667 -0.833333333333333 261
0 -0.833333333333333 262
0.416666666666667 -0.833333333333333 263
0.833333333333333 -0.833333333333333 264
1.25 -0.833333333333333 265
1.666666666666667 -0.833333333333333 266
2.083333333333333 -0.833333333333333 267
2.5 -0.833333333333333 268
2.916666666666667 -0.833333333333333 269
3.333333333333334 -0.833333333333333 270
3.75 -0.833333333333333 271
4.166666666666666 -0.833333333333333 272
4.583333333333334 -0.833333333333333 273
5 -0.833333333333333 274
-5 -0.416666666666667 275
-4.583333333333333 -0.416666666666667 276
-4.166666666666667 -0.416666666666667 277
-3.75 -0.416666666666667 278
-3.333333333333333 -0.416666666666667 279
-2.916666666666667 -0.416666666666667 280
-2.5 -0.416666666666667 281
-2.083333333333333 -0.416666666666667 282
-1.666666666666667 -0.416666666666667 283
-1.25 -0.416666666666667 284
-0.833333333333333 -0.416666666666667 285
-0.416666666666667 -0.416666666666667 286
0 -0.416666666666667 287
0.416666666666667 -0.416666666666667 288
0.833333333333333 -0.416666666666667 289
1.25 -0.416666666666667 290
1.666666666666667 -0.416666666666667 291
2.083333333333333 -0.416666666666667 292
2.5 -0.416666666666667 293
2.916666666666667 -0.416666666666667 294
3.333333333333334 -0.416666666666667 295
3.75 -0.416666666666667 296
4.166666666666666 -0.416666666666667 297
4.583333333333334 -0.416666666666667 298
5 -0.416666666666667 299
-5 0 300
-4.583333333333333 0 301
-4.166666666666667 0 302
-3.75 0 303
-3.333333333333333 0 304
-2.916666666666667 0 305
-2.5 0 306
-2.083333333333333 0 307
-1.666666666666667 0 308
-1.25 0 309
-0.833333333333333 0 310
-0.416666666666667 0 311
0 0 312
0.416666666666667 0 313
0.833333333333333 0 314
1.25 0 315
1.666666666666667 0 316
2.083333333333333 0 317
2.5 0 318
2.916666666666667 0 319
3.333333333333334 0 320
3.75 0 321
4.166666666666666 0 322
4.583333333333334 0 323
5 0 324
-5 0.416666666666667 325
-4.583333333333333 0.416666666666667 326
-4.166666666666667 0.416666666666667 327
-3.75 0.416666666666667 328
-3.333333333333333 0.416666666666667 329
-2.916666666666667 0.416666666666667 330
-2.5 0.416666666666667 331
-2.083333333333333 0.416666666666667 332
-1.666666666666667 0.416666666666667 333
-1.25 0.416666666666667 334
-0.833333333333333 0.416666666666667 335
-0.416666666666667 0.416666666666667 336
0 0.416666666666667 337
0.416666666666667 0.416666666666667 338
0.833333333333333 0.416666666666667 339
1.25 0.416666666666667 340
1.666666666666667 0.416666666666667 341
2.083333333333333 0.416666666666667 342
2.5 0.416666666666667 343
2.916666666666667 0.416666666666667 344
3.333333333333334 0.416666666666667 345
3.75 0.416666666666667 346
4.166666666666666 0.416666666666667 347
4.583333333333334 0.416666666666667 348
5 0.416666666666667 349
-5 0.833333333333333 350
-4.583333333333333 0.833333333333333 351
-4.166666666666667 0.833333333333333 352
-3.75 0.833333333333333 353
-3.333333333333333 0.833333333333333 354
-2.916666666666667 0.833333333333333 355
-2.5 0.833333333333333 356
-2.083333333333333 0.833333333333333 357
-1.666666666666667 0.833333333333333 358
-1.25 0.833333333333333 359
-0.833333333333333 0.833333333333333 360
-0.416666666666667 0.833333333333333 361
0 0.833333333333333 362
0.416666666666667 0.833333333333333 363
0.833333333333333 0.833333333333333 364
1.25 0.833333333333333 365
1.666666666666667 0.833333333333333 366
2.083333333333333 0.833333333333333 367
2.5 0.833333333333333 368
2.916666666666667 0.833333333333333 369
3.333333333333334 0.833333333333333 370
3.75 0.833333333333333 371
4.166666666666666 0.833333333333333 372
4.583333333333334 0.833333333333333 373
5 0.833333333333333 374
-5 1.25 375
-4.583333333333333 1.25 376
-4.166666666666667 1.25 377
-3.75 1.25 378
-3.333333333333333 1.25 379
-2.916666666666667 1.25 380
-2.5 1.25 381
-2.083333333333333 1.25 382
-1.666666666666667 1.25 383
-1.25 1.25 384
-0.833333333333333 1.25 385
-0.416666666666667 1.25 386
0 1.25 387
0.416666666666667 1.25 388
0.833333333333333 1.25 389
1.25 1.25 390
1.666666666666667 1.25 391
2.083333333333333 1.25 392
2.5 1.25 393
2.916666666666667 1.25 394
3.333333333333334 1.25 395
3.75 1.25 396
4.166666666666666 1.25 397
4.583333333333334 1.25 398
5 1.25 399
-5 1.666666666666667 400
-4.583333333333333 1.666666666666667 401
-4.166666666666667 1.666666666666667 402
-3.75 1.666666666666667 403
-3.333333333333333 1.666666666666667 404
-2.916666666666667 1.666666666666667 405
-2.5 1.666666666666667 406
-2.083333333333333 1.666666666666667 407
-1.666666666666667 1.666666666666667 408
-1.25 1.666666666666667 409
-0.833333333333333 1.666666666666667 410
-0.416666666666667 1.666666666666667 411
0 1.666666666666667 412
0.416666666666667 1.666666666666667 413
0.833333333333333 1.666666666666667 414
1.25 1.666666666666667 415
1.666666666666667 1.666666666666667 416
2.083333333333333 1.666666666666667 417
2.5 1.666666666666667 418
2.916666666666667 1.666666666666667 419
3.333333333333334 1.666666666666667 420
3.75 1.666666666666667 421
4.166666666666666 1.666666666666667 422
4.583333333333334 1.666666666666667 423
5 1.666666666666667 424
-5 2.083333333333333 425
-4.583333333333333 2.083333333333333 426
-4.166666666666667 2.083333333333333 427
-3.75 2.083333333333333 428
-3.333333333333333 2.083333333333333 429
-2.916666666666667 2.083333333333333 430
-2.5 2.083333333333333 431
-2.083333333333333 2.083333333333333 432
-1.666666666666667 2.083333333333333 433
-1.25 2.083333333333333 434
-0.833333333333333 2.083333333333333 435
-0.416666666666667 2.083333333333333 436
0 2.083333333333333 437
0.416666666666667 2.083333333333333 438
0.833333333333333 2.083333333333333 439
1.25 2.083333333333333 440
1.666666666666667 2.083333333333333 441
2.083333333333333 2.083333333333333 442
2.5 2.083333333333333 443
2.916666666666667 2.083333333333333 444
3.333333333333334 2.083333333333333 445
3.75 2.083333333333333 446
4.166666666666666 2.083333333333333 447
4.583333333333334 2.083333333333333 448
5 2.083333333333333 449
-5 2.5 450
-4.583333333333333 2.5 451
-4.166666666666667 2.5 452
-3.75 2.5 453
-3.333333333333333 2.5 454
-2.916666666666667 2.5 455
-2.5 2.5 456
-2.083333333333333 2.5 457
-1.666666666666667 2.5 458
-1.25 2.5 459
-0.833333333333333 2.5 460
-0.416666666666667 2.5 461
0 2.5 462
0.416666666666667 2.5 463
0.833333333333333 2.5 464
1.25 2.5 465
1.666666666666667 2.5 466
2.083333333333333 2.5 467
2.5 2.5 468
2.916666666666667 2.5 469
3.333333333333334 2.5 470
3.75 2.5 471
4.166666666666666 2.5 472
4.583333333333334 2.5 473
5 2.5 474
-5 2.916666666666667 475
-4.583333333333333 2.916666666666667 476
-4.166666666666667 2.916666666666667 477
-3.75 2.916666666666667 478
-3.333333333333333 2.916666666666667 479
-2.916666666666667 2.916666666666667 480
-2.5 2.916666666666667 481
-2.083333333333333 2.916666666666667 482
-1.666666666666667 2.916666666666667 483
-1.25 2.916666666666667 484
-0.833333333333333 2.916666666666667 485
-0.416666666666667 2.916666666666667 486
0 2.916666666666667 487
0.416666666666667 2.916666666666667 488
0.833333333333333 2.916666666666667 489
1.25 2.916666666666667 490
1.666666666666667 2.916666666666667 491
2.083333333333333 2.916666666666667 492
2.5 2.916666666666667 493
2.916666666666667 2.916666666666667 494
3.333333333333334 2.916666666666667 495
3.75 2.916666666666667 496
4.166666666666666 2.916666666666667 497
4.583333333333334 2.916666666666667 498
5 2.916666666666667 499
-5 3.333333333333334 500
-4.583333333333333 3.333333333333334 501
-4.166666666666667 3.333333333333334 502
-3.75 3.333333333333334 503
-3.333333333333333 3.333333333333334 504
-2.916666666666667 3.333333333333334 505
-2.5 3.333333333333334 506
-2.083333333333333 3.333333333333334 507
-1.666666666666667 3.333333333333334 508
-1.25 3.333333333333334 509
-0.833333333333333 3.333333333333334 510
-0.416666666666667 3.333333333333334 511
0 3.333333333333334 512
0.416666666666667 3.333333333333334 513
0.833333333333333 3.333333333333334 514
1.25 3.333333333333334 515
1.666666666666667 3.333333333333334 516
2.083333333333333 3.333333333333334 517
2.5 3.333333333333334 518
2.916666666666667 3.333333333333334 519
3.333333333333334 3.333333333333334 520
3.75 3.333333333333334 521
4.166666666666666 3.333333333333334 522
4.583333333333334 3.333333333333334 523
5 3.333333333333334 524
-5 3.75 525
-4.583333333333333 3.75 526
-4.166666666666667 3.75 527
-3.75 3.75 528
-3.333333333333333 3.75 529
-2.916666666666667 3.75 530
-2.5 3.75 531
-2.083333333333333 3.75 532
-1.666666666666667 3.75 533
-1.25 3.75 534
-0.833333333333333 3.75 535
-0.416666666666667 3.75 536
0 3.75 537
0.416666666666667 3.75 538
0.833333333333333 3.75 539
1.25 3.75 540
1.666666666666667 3.75 541
2.083333333333333 3.75 542
2.5 3.75 543
2.916666666666667 3.75 544
3.333333333333334 3.75 545
3.75 3.75 546
4.166666666666666 3.75 547
4.583333333333334 3.75 548
5 3.75 549
-5 4.166666666666666 550
-4.583333333333333 4.166666666666666 551
-4.166666666666667 4.166666666666666 552
-3.75 4.166666666666666 553
-3.333333333333333 4.166666666666666 554
-2.916666666666667 4.166666666666666 555
-2.5 4.166666666666666 556
-2.083333333333333 4.166666666666666 557
-1.666666666666667 4.166666666666666 558
-1.25 4.166666666666666 559
-0.833333333333333 4.166666666666666 560
-0.416666666666667 4.166666666666666 561
0 4.166666666666666 562
0.416666666666667 4.166666666666666 563
0.833333333333333 4.166666666666666 564
1.25 4.166666666666666 565
1.666666666666667 4.166666666666666 566
2.083333333333333 4.166666666666666 567
2.5 4.166666666666666 568
2.916666666666667 4.166666666666666 569
3.333333333333334 4.166666666666666 570
3.75 4.166666666666666 571
4.166666666666666 4.166666666666666 572
4.583333333333334 4.166666666666666 573
5 4.166666666666666 574
-5 4.583333333333334 575
-4.583333333333333 4.583333333333334 576
-4.166666666666667 4.583333333333334 577
-3.75 4.583333333333334 578
-3.333333333333333 4.583333333333334 579
-2.916666666666667 4.583333333333334 580
-2.5 4.583333333333334 581
-2.083333333333333 4.583333333333334 582
-1.666666666666667 4.583333333333334 583
-1.25 4.583333333333334 584
-0.833333333333333 4.583333333333334 585
-0.416666666666667 4.583333333333334 586
0 4.583333333333334 587
0.416666666666667 4.583333333333334 588
0.833333333333333 4.583333333333334 589
1.25 4.583333333333334 590
1.666666666666667 4.583333333333334 591
2.083333333333333 4.583333333333334 592
2.5 4.583333333333334 593
2.916666666666667 4.583333333333334 594
3.333333333333334 4.583333333333334 595
3.75 4.583333333333334 596
4.166666666666666 4.583333333333334 597
4.583333333333334 4.583333333333334 598
5 4.583333333333334 599
-5 5 600
-4.583333333333333 5 601
-4.166666666666667 5 602
-3.75 5 603
-3.333333333333333 5 604
-2.916666666666667 5 605
-2.5 5 606
-2.083333333333333 5 607
-1.666666666666667 5 608
-1.25 5 609
-0.833333333333333 5 610
-0.416666666666667 5 611
0 5 612
0.416666666666667 5 613
0.833333333333333 5 614
1.25 5 615
1.666666666666667 5 616
2.083333333333333 5 617
2.5 5 618
2.916666666666667 5 619
3.333333333333334 5 620
3.75 5 621
4.166666666666666 5 622
4.583333333333334 5 623
5 5 624
NMARK= 4
MARKER_TAG= lower
MARKER_ELEMS= 24
3 1 0
3 2 1
3 3 2
3 4 3
3 5 4
3 6 5
3 7 6
3 8 7
3 9 8
3 10 9
3 11 10
3 12 11
3 13 12
3 14 13
3 15 14
3 16 15
3 17 16
3 18 17
3 19 18
3 20 19
3 21 20
3 22 21
3 23 22
3 24 23
MARKER_TAG= right
MARKER_ELEMS= 24
3 49 24
3 74 49
3 99 74
3 124 99
3 149 124
3 174 149
3 199 174
3 224 199
3 249 224
3 274 249
3 299 274
3 324 299
3 349 324
3 374 349
3 399 374
3 424 399
3 449 424
3 474 449
3 499 474
3 524 499
3 549 524
3 574 549
3 599 574
3 624 599
MARKER_TAG= upper
MARKER_ELEMS= 24
3 600 601
3 601 602
3 602 603
3 603 604
3 604 605
3 605 606
3 606 607
3 607 608
3 608 609
3 609 610
3 610 611
3 611 612
3 612 613
3 613 614
3 614 615
3 615 616
3 616 617
3 617 618
3 618 619
3 619 620
3 620 621
3 621 622
3 622 623
3 623 624
MARKER_TAG= left
MARKER_ELEMS= 24
3 0 25
3 25 50
3 50 75
3 75 100
3 100 125
3 125 150
3 150 175
3 175 200
3 200 225
3 225 250
3 250 275
3 275 300
3 300 325
3 325 350
3 350 375
3 375 400
3 400 425
3 425 450
3 450 475
3 475 500
3 500 525
3 525 550
3 550 575
3 575 600
