NDIME= 3
NELEM= 192
12 0 5 30 25 1 6 31 26 0
12 5 10 35 30 6 11 36 31 1
12 10 15 40 35 11 16 41 36 2
12 15 20 45 40 16 21 46 41 3
12 25 30 55 50 26 31 56 51 4
12 30 35 60 55 31 36 61 56 5
12 35 40 65 60 36 41 66 61 6
12 40 45 70 65 41 46 71 66 7
12 50 55 80 75 51 56 81 76 8
12 55 60 85 80 56 61 86 81 9
12 60 65 90 85 61 66 91 86 10
12 65 70 95 90 66 71 96 91 11
12 75 80 105 100 76 81 106 101 12
12 80 85 110 105 81 86 111 106 13
12 85 90 115 110 86 91 116 111 14
12 90 95 120 115 91 96 121 116 15
12 100 105 130 125 101 106 131 126 16
12 105 110 135 130 106 111 136 131 17
12 110 115 140 135 111 116 141 136 18
12 115 120 145 140 116 121 146 141 19
12 125 130 155 150 126 131 156 151 20
12 130 135 160 155 131 136 161 156 21
12 135 140 165 160 136 141 166 161 22
12 140 145 170 165 141 146 171 166 23
12 150 155 180 175 151 156 181 176 24
12 155 160 185 180 156 161 186 181 25
12 160 165 190 185 161 166 191 186 26
12 165 170 195 190 166 171 196 191 27
12 175 180 205 200 176 181 206 201 28
12 180 185 210 205 181 186 211 206 29
12 185 190 215 210 186 191 216 211 30
12 190 195 220 215 191 196 221 216 31
12 200 205 230 225 201 206 231 226 32
12 205 210 235 230 206 211 236 231 33
12 210 215 240 235 211 216 241 236 34
12 215 220 245 240 216 221 246 241 35
12 225 230 255 250 226 231 256 251 36
12 230 235 260 255 231 236 261 256 37
12 235 240 265 260 236 241 266 261 38
12 240 245 270 265 241 246 271 266 39
12 250 255 280 275 251 256 281 276 40
12 255 260 285 280 256 261 286 281 41
12 260 265 290 285 261 266 291 286 42
12 265 270 295 290 266 271 296 291 43
12 275 280 5 0 276 281 6 1 44
12 280 285 10 5 281 286 11 6 45
12 285 290 15 10 286 291 16 11 46
12 290 295 20 15 291 296 21 16 47
12 1 6 31 26 2 7 32 27 48
12 6 11 36 31 7 12 37 32 49
12 11 16 41 36 12 17 42 37 50
12 16 21 46 41 17 22 47 42 51
12 26 31 56 51 27 32 57 52 52
12 31 36 61 56 32 37 62 57 53
12 36 41 66 61 37 42 67 62 54
12 41 46 71 66 42 47 72 67 55
12 51 56 81 76 52 57 82 77 56
12 56 61 86 81 57 62 87 82 57
12 61 66 91 86 62 67 92 87 58
12 66 71 96 91 67 72 97 92 59
12 76 81 106 101 77 82 107 102 60
12 81 86 111 106 82 87 112 107 61
12 86 91 116 111 87 92 117 112 62
12 91 96 121 116 92 97 122 117 63
12 101 106 131 126 102 107 132 127 64
12 106 111 136 131 107 112 137 132 65
12 111 116 141 136 112 117 142 137 66
12 116 121 146 141 117 122 147 142 67
12 126 131 156 151 127 132 157 152 68
12 131 136 161 156 132 137 162 157 69
12 136 141 166 161 137 142 167 162 70
12 141 146 171 166 142 147 172 167 71
12 151 156 181 176 152 157 182 177 72
12 156 161 186 181 157 162 187 182 73
12 161 166 191 186 162 167 192 187 74
12 166 171 196 191 167 172 197 192 75
12 176 181 206 201 177 182 207 202 76
12 181 186 211 206 182 187 212 207 77
12 186 191 216 211 187 192 217 212 78
12 191 196 221 216 192 197 222 217 79
12 201 206 231 226 202 207 232 227 80
12 206 211 236 231 207 212 237 232 81
12 211 216 241 236 212 217 242 237 82
12 216 221 246 241 217 222 247 242 83
12 226 231 256 251 227 232 257 252 84
12 231 236 261 256 232 237 262 257 85
12 236 241 266 261 237 242 267 262 86
12 241 246 271 266 242 247 272 267 87
12 251 256 281 276 252 257 282 277 88
12 256 261 286 281 257 262 287 282 89
12 261 266 291 286 262 267 292 287 90
12 266 271 296 291 267 272 297 292 91
12 276 281 6 1 277 282 7 2 92
12 281 286 11 6 282 287 12 7 93
12 286 291 16 11 287 292 17 12 94
12 291 296 21 16 292 297 22 17 95
12 2 7 32 27 3 8 33 28 96
12 7 12 37 32 8 13 38 33 97
12 12 17 42 37 13 18 43 38 98
12 17 22 47 42 18 23 48 43 99
12 27 32 57 52 28 33 58 53 100
12 32 37 62 57 33 38 63 58 101
12 37 42 67 62 38 43 68 63 102
12 42 47 72 67 43 48 73 68 103
12 52 57 82 77 53 58 83 78 104
12 57 62 87 82 58 63 88 83 105
12 62 67 92 87 63 68 93 88 106
12 67 72 97 92 68 73 98 93 107
12 77 82 107 102 78 83 108 103 108
12 82 87 112 107 83 88 113 108 109
12 87 92 117 112 88 93 118 113 110
12 92 97 122 117 93 98 123 118 111
12 102 107 132 127 103 108 133 128 112
12 107 112 137 132 108 113 138 133 113
12 112 117 142 137 113 118 143 138 114
12 117 122 147 142 118 123 148 143 115
12 127 132 157 152 128 133 158 153 116
12 132 137 162 157 133 138 163 158 117
12 137 142 167 162 138 143 168 163 118
12 142 147 172 167 143 148 173 168 119
12 152 157 182 177 153 158 183 178 120
12 157 162 187 182 158 163 188 183 121
12 162 167 192 187 163 168 193 188 122
12 167 172 197 192 168 173 198 193 123
12 177 182 207 202 178 183 208 203 124
12 182 187 212 207 183 188 213 208 125
12 187 192 217 212 188 193 218 213 126
12 192 197 222 217 193 198 223 218 127
12 202 207 232 227 203 208 233 228 128
12 207 212 237 232 208 213 238 233 129
12 212 217 242 237 213 218 243 238 130
12 217 222 247 242 218 223 248 243 131
12 227 232 257 252 228 233 258 253 132
12 232 237 262 257 233 238 263 258 133
12 237 242 267 262 238 243 268 263 134
12 242 247 272 267 243 248 273 268 135
12 252 257 282 277 253 258 283 278 136
12 257 262 287 282 258 263 288 283 137
12 262 267 292 287 263 268 293 288 138
12 267 272 297 292 268 273 298 293 139
12 277 282 7 2 278 283 8 3 140
12 282 287 12 7 283 288 13 8 141
12 287 292 17 12 288 293 18 13 142
12 292 297 22 17 293 298 23 18 143
12 3 8 33 28 4 9 34 29 144
12 8 13 38 33 9 14 39 34 145
12 13 18 43 38 14 19 44 39 146
12 18 23 48 43 19 24 49 44 147
12 28 33 58 53 29 34 59 54 148
12 33 38 63 58 34 39 64 59 149
12 38 43 68 63 39 44 69 64 150
12 43 48 73 68 44 49 74 69 151
12 53 58 83 78 54 59 84 79 152
12 58 63 88 83 59 64 89 84 153
12 63 68 93 88 64 69 94 89 154
12 68 73 98 93 69 74 99 94 155
12 78 83 108 103 79 84 109 104 156
12 83 88 113 108 84 89 114 109 157
12 88 93 118 113 89 94 119 114 158
12 93 98 123 118 94 99 124 119 159
12 103 108 133 128 104 109 134 129 160
12 108 113 138 133 109 114 139 134 161
12 113 118 143 138 114 119 144 139 162
12 118 123 148 143 119 124 149 144 163
12 128 133 158 153 129 134 159 154 164
12 133 138 163 158 134 139 164 159 165
12 138 143 168 163 139 144 169 164 166
12 143 148 173 168 144 149 174 169 167
12 153 158 183 178 154 159 184 179 168
12 158 163 188 183 159 164 189 184 169
12 163 168 193 188 164 169 194 189 170
12 168 173 198 193 169 174 199 194 171
12 178 183 208 203 179 184 209 204 172
12 183 188 213 208 184 189 214 209 173
12 188 193 218 213 189 194 219 214 174
12 193 198 223 218 194 199 224 219 175
12 203 208 233 228 204 209 234 229 176
12 208 213 238 233 209 214 239 234 177
12 213 218 243 238 214 219 244 239 178
12 218 223 248 243 219 224 249 244 179
12 228 233 258 253 229 234 259 254 180
12 233 238 263 258 234 239 264 259 181
12 238 243 268 263 239 244 269 264 182
12 243 248 273 268 244 249 274 269 183
12 253 258 283 278 254 259 284 279 184
12 258 263 288 283 259 264 289 284 185
12 263 268 293 288 264 269 294 289 186
12 268 273 298 293 269 274 299 294 187
12 278 283 8 3 279 284 9 4 188
12 283 288 13 8 284 289 14 9 189
12 288 293 18 13 289 294 19 14 190
12 293 298 23 18 294 299 24 19 191
NPOIN= 300
0.29999999999999999 0 0 0
0.29999999999999999 0 0.5 1
0.29999999999999999 0 1 2
0.29999999999999999 0 1.5 3
0.29999999999999999 0 2 4
0.47499999999999998 0 0 5
0.47499999999999998 0 0.5 6
0.47499999999999998 0 1 7
0.47499999999999998 0 1.5 8
0.47499999999999998 0 2 9
0.64999999999999991 0 0 10
0.64999999999999991 0 0.5 11
0.64999999999999991 0 1 12
0.64999999999999991 0 1.5 13
0.64999999999999991 0 2 14
0.82499999999999996 0 0 15
0.82499999999999996 0 0.5 16
0.82499999999999996 0 1 17
0.82499999999999996 0 1.5 18
0.82499999999999996 0 2 19
1 0 0 20
1 0 0.5 21
1 0 1 22
1 0 1.5 23
1 0 2 24
0.25980762113533162 0.14999999999999997 0 25
0.25980762113533162 0.14999999999999997 0.5 26
0.25980762113533162 0.14999999999999997 1 27
0.25980762113533162 0.14999999999999997 1.5 28
0.25980762113533162 0.14999999999999997 2 29
0.41136206679760839 0.23749999999999996 0 30
0.41136206679760839 0.23749999999999996 0.5 31
0.41136206679760839 0.23749999999999996 1 32
0.41136206679760839 0.23749999999999996 1.5 33
0.41136206679760839 0.23749999999999996 2 34
0.56291651245988505 0.3249999999999999 0 35
0.56291651245988505 0.3249999999999999 0.5 36
0.56291651245988505 0.3249999999999999 1 37
0.56291651245988505 0.3249999999999999 1.5 38
0.56291651245988505 0.3249999999999999 2 39
0.71447095812216188 0.41249999999999992 0 40
0.71447095812216188 0.41249999999999992 0.5 41
0.71447095812216188 0.41249999999999992 1 42
0.71447095812216188 0.41249999999999992 1.5 43
0.71447095812216188 0.41249999999999992 2 44
0.86602540378443871 0.49999999999999994 0 45
0.86602540378443871 0.49999999999999994 0.5 46
0.86602540378443871 0.49999999999999994 1 47
0.86602540378443871 0.49999999999999994 1.5 48
0.86602540378443871 0.49999999999999994 2 49
0.15000000000000002 0.25980762113533157 0 50
0.15000000000000002 0.25980762113533157 0.5 51
0.15000000000000002 0.25980762113533157 1 52
0.15000000000000002 0.25980762113533157 1.5 53
0.15000000000000002 0.25980762113533157 2 54
0.23750000000000004 0.41136206679760834 0 55
0.23750000000000004 0.41136206679760834 0.5 56
0.23750000000000004 0.41136206679760834 1 57
0.23750000000000004 0.41136206679760834 1.5 58
0.23750000000000004 0.41136206679760834 2 59
0.32500000000000001 0.56291651245988505 0 60
0.32500000000000001 0.56291651245988505 0.5 61
0.32500000000000001 0.56291651245988505 1 62
0.32500000000000001 0.56291651245988505 1.5 63
0.32500000000000001 0.56291651245988505 2 64
0.41250000000000009 0.71447095812216177 0 65
0.41250000000000009 0.71447095812216177 0.5 66
0.41250000000000009 0.71447095812216177 1 67
0.41250000000000009 0.71447095812216177 1.5 68
0.41250000000000009 0.71447095812216177 2 69
0.50000000000000011 0.8660254037844386 0 70
0.50000000000000011 0.8660254037844386 0.5 71
0.50000000000000011 0.8660254037844386 1 72
0.50000000000000011 0.8660254037844386 1.5 73
0.50000000000000011 0.8660254037844386 2 74
1.8369701987210297e-17 0.29999999999999999 0 75
1.8369701987210297e-17 0.29999999999999999 0.5 76
1.8369701987210297e-17 0.29999999999999999 1 77
1.8369701987210297e-17 0.29999999999999999 1.5 78
1.8369701987210297e-17 0.29999999999999999 2 79
2.9085361479749636e-17 0.47499999999999998 0 80
2.9085361479749636e-17 0.47499999999999998 0.5 81
2.9085361479749636e-17 0.47499999999999998 1 82
2.9085361479749636e-17 0.47499999999999998 1.5 83
2.9085361479749636e-17 0.47499999999999998 2 84
3.9801020972288971e-17 0.64999999999999991 0 85
3.9801020972288971e-17 0.64999999999999991 0.5 86
3.9801020972288971e-17 0.64999999999999991 1 87
3.9801020972288971e-17 0.64999999999999991 1.5 88
3.9801020972288971e-17 0.64999999999999991 2 89
5.0516680464828319e-17 0.82499999999999996 0 90
5.0516680464828319e-17 0.82499999999999996 0.5 91
5.0516680464828319e-17 0.82499999999999996 1 92
5.0516680464828319e-17 0.82499999999999996 1.5 93
5.0516680464828319e-17 0.82499999999999996 2 94
6.123233995736766e-17 1 0 95
6.123233995736766e-17 1 0.5 96
6.123233995736766e-17 1 1 97
6.123233995736766e-17 1 1.5 98
6.123233995736766e-17 1 2 99
-0.14999999999999994 0.25980762113533162 0 100
-0.14999999999999994 0.25980762113533162 0.5 101
-0.14999999999999994 0.25980762113533162 1 102
-0.14999999999999994 0.25980762113533162 1.5 103
-0.14999999999999994 0.25980762113533162 2 104
-0.23749999999999988 0.41136206679760839 0 105
-0.23749999999999988 0.41136206679760839 0.5 106
-0.23749999999999988 0.41136206679760839 1 107
-0.23749999999999988 0.41136206679760839 1.5 108
-0.23749999999999988 0.41136206679760839 2 109
-0.32499999999999979 0.56291651245988505 0 110
-0.32499999999999979 0.56291651245988505 0.5 111
-0.32499999999999979 0.56291651245988505 1 112
-0.32499999999999979 0.56291651245988505 1.5 113
-0.32499999999999979 0.56291651245988505 2 114
-0.41249999999999981 0.71447095812216188 0 115
-0.41249999999999981 0.71447095812216188 0.5 116
-0.41249999999999981 0.71447095812216188 1 117
-0.41249999999999981 0.71447095812216188 1.5 118
-0.41249999999999981 0.71447095812216188 2 119
-0.49999999999999978 0.86602540378443871 0 120
-0.49999999999999978 0.86602540378443871 0.5 121
-0.49999999999999978 0.86602540378443871 1 122
-0.49999999999999978 0.86602540378443871 1.5 123
-0.49999999999999978 0.86602540378443871 2 124
-0.25980762113533151 0.15000000000000011 0 125
-0.25980762113533151 0.15000000000000011 0.5 126
-0.25980762113533151 0.15000000000000011 1 127
-0.25980762113533151 0.15000000000000011 1.5 128
-0.25980762113533151 0.15000000000000011 2 129
-0.41136206679760828 0.23750000000000016 0 130
-0.41136206679760828 0.23750000000000016 0.5 131
-0.41136206679760828 0.23750000000000016 1 132
-0.41136206679760828 0.23750000000000016 1.5 133
-0.41136206679760828 0.23750000000000016 2 134
-0.56291651245988494 0.32500000000000018 0 135
-0.56291651245988494 0.32500000000000018 0.5 136
-0.56291651245988494 0.32500000000000018 1 137
-0.56291651245988494 0.32500000000000018 1.5 138
-0.56291651245988494 0.32500000000000018 2 139
-0.71447095812216166 0.41250000000000026 0 140
-0.71447095812216166 0.41250000000000026 0.5 141
-0.71447095812216166 0.41250000000000026 1 142
-0.71447095812216166 0.41250000000000026 1.5 143
-0.71447095812216166 0.41250000000000026 2 144
-0.86602540378443849 0.50000000000000033 0 145
-0.86602540378443849 0.50000000000000033 0.5 146
-0.86602540378443849 0.50000000000000033 1 147
-0.86602540378443849 0.50000000000000033 1.5 148
-0.86602540378443849 0.50000000000000033 2 149
-0.29999999999999999 3.6739403974420595e-17 0 150
-0.29999999999999999 3.6739403974420595e-17 0.5 151
-0.29999999999999999 3.6739403974420595e-17 1 152
-0.29999999999999999 3.6739403974420595e-17 1.5 153
-0.29999999999999999 3.6739403974420595e-17 2 154
-0.47499999999999998 5.8170722959499272e-17 0 155
-0.47499999999999998 5.8170722959499272e-17 0.5 156
-0.47499999999999998 5.8170722959499272e-17 1 157
-0.47499999999999998 5.8170722959499272e-17 1.5 158
-0.47499999999999998 5.8170722959499272e-17 2 159
-0.64999999999999991 7.9602041944577942e-17 0 160
-0.64999999999999991 7.9602041944577942e-17 0.5 161
-0.64999999999999991 7.9602041944577942e-17 1 162
-0.64999999999999991 7.9602041944577942e-17 1.5 163
-0.64999999999999991 7.9602041944577942e-17 2 164
-0.82499999999999996 1.0103336092965664e-16 0 165
-0.82499999999999996 1.0103336092965664e-16 0.5 166
-0.82499999999999996 1.0103336092965664e-16 1 167
-0.82499999999999996 1.0103336092965664e-16 1.5 168
-0.82499999999999996 1.0103336092965664e-16 2 169
-1 1.2246467991473532e-16 0 170
-1 1.2246467991473532e-16 0.5 171
-1 1.2246467991473532e-16 1 172
-1 1.2246467991473532e-16 1.5 173
-1 1.2246467991473532e-16 2 174
-0.25980762113533162 -0.14999999999999991 0 175
-0.25980762113533162 -0.14999999999999991 0.5 176
-0.25980762113533162 -0.14999999999999991 1 177
-0.25980762113533162 -0.14999999999999991 1.5 178
-0.25980762113533162 -0.14999999999999991 2 179
-0.41136206679760839 -0.23749999999999985 0 180
-0.41136206679760839 -0.23749999999999985 0.5 181
-0.41136206679760839 -0.23749999999999985 1 182
-0.41136206679760839 -0.23749999999999985 1.5 183
-0.41136206679760839 -0.23749999999999985 2 184
-0.56291651245988517 -0.32499999999999979 0 185
-0.56291651245988517 -0.32499999999999979 0.5 186
-0.56291651245988517 -0.32499999999999979 1 187
-0.56291651245988517 -0.32499999999999979 1.5 188
-0.56291651245988517 -0.32499999999999979 2 189
-0.71447095812216199 -0.41249999999999976 0 190
-0.71447095812216199 -0.41249999999999976 0.5 191
-0.71447095812216199 -0.41249999999999976 1 192
-0.71447095812216199 -0.41249999999999976 1.5 193
-0.71447095812216199 -0.41249999999999976 2 194
-0.86602540378443882 -0.49999999999999972 0 195
-0.86602540378443882 -0.49999999999999972 0.5 196
-0.86602540378443882 -0.49999999999999972 1 197
-0.86602540378443882 -0.49999999999999972 1.5 198
-0.86602540378443882 -0.49999999999999972 2 199
-0.15000000000000013 -0.25980762113533151 0 200
-0.15000000000000013 -0.25980762113533151 0.5 201
-0.15000000000000013 -0.25980762113533151 1 202
-0.15000000000000013 -0.25980762113533151 1.5 203
-0.15000000000000013 -0.25980762113533151 2 204
-0.23750000000000021 -0.41136206679760823 0 205
-0.23750000000000021 -0.41136206679760823 0.5 206
-0.23750000000000021 -0.41136206679760823 1 207
-0.23750000000000021 -0.41136206679760823 1.5 208
-0.23750000000000021 -0.41136206679760823 2 209
-0.32500000000000023 -0.56291651245988483 0 210
-0.32500000000000023 -0.56291651245988483 0.5 211
-0.32500000000000023 -0.56291651245988483 1 212
-0.32500000000000023 -0.56291651245988483 1.5 213
-0.32500000000000023 -0.56291651245988483 2 214
-0.41250000000000037 -0.71447095812216166 0 215
-0.41250000000000037 -0.71447095812216166 0.5 216
-0.41250000000000037 -0.71447095812216166 1 217
-0.41250000000000037 -0.71447095812216166 1.5 218
-0.41250000000000037 -0.71447095812216166 2 219
-0.50000000000000044 -0.86602540378443837 0 220
-0.50000000000000044 -0.86602540378443837 0.5 221
-0.50000000000000044 -0.86602540378443837 1 222
-0.50000000000000044 -0.86602540378443837 1.5 223
-0.50000000000000044 -0.86602540378443837 2 224
-5.5109105961630889e-17 -0.29999999999999999 0 225
-5.5109105961630889e-17 -0.29999999999999999 0.5 226
-5.5109105961630889e-17 -0.29999999999999999 1 227
-5.5109105961630889e-17 -0.29999999999999999 1.5 228
-5.5109105961630889e-17 -0.29999999999999999 2 229
-8.7256084439248902e-17 -0.47499999999999998 0 230
-8.7256084439248902e-17 -0.47499999999999998 0.5 231
-8.7256084439248902e-17 -0.47499999999999998 1 232
-8.7256084439248902e-17 -0.47499999999999998 1.5 233
-8.7256084439248902e-17 -0.47499999999999998 2 234
-1.1940306291686691e-16 -0.64999999999999991 0 235
-1.1940306291686691e-16 -0.64999999999999991 0.5 236
-1.1940306291686691e-16 -0.64999999999999991 1 237
-1.1940306291686691e-16 -0.64999999999999991 1.5 238
-1.1940306291686691e-16 -0.64999999999999991 2 239
-1.5155004139448494e-16 -0.82499999999999996 0 240
-1.5155004139448494e-16 -0.82499999999999996 0.5 241
-1.5155004139448494e-16 -0.82499999999999996 1 242
-1.5155004139448494e-16 -0.82499999999999996 1.5 243
-1.5155004139448494e-16 -0.82499999999999996 2 244
-1.8369701987210297e-16 -1 0 245
-1.8369701987210297e-16 -1 0.5 246
-1.8369701987210297e-16 -1 1 247
-1.8369701987210297e-16 -1 1.5 248
-1.8369701987210297e-16 -1 2 249
0.1499999999999998 -0.25980762113533168 0 250
0.1499999999999998 -0.25980762113533168 0.5 251
0.1499999999999998 -0.25980762113533168 1 252
0.1499999999999998 -0.25980762113533168 1.5 253
0.1499999999999998 -0.25980762113533168 2 254
0.23749999999999968 -0.41136206679760851 0 255
0.23749999999999968 -0.41136206679760851 0.5 256
0.23749999999999968 -0.41136206679760851 1 257
0.23749999999999968 -0.41136206679760851 1.5 258
0.23749999999999968 -0.41136206679760851 2 259
0.32499999999999951 -0.56291651245988528 0 260
0.32499999999999951 -0.56291651245988528 0.5 261
0.32499999999999951 -0.56291651245988528 1 262
0.32499999999999951 -0.56291651245988528 1.5 263
0.32499999999999951 -0.56291651245988528 2 264
0.41249999999999942 -0.71447095812216221 0 265
0.41249999999999942 -0.71447095812216221 0.5 266
0.41249999999999942 -0.71447095812216221 1 267
0.41249999999999942 -0.71447095812216221 1.5 268
0.41249999999999942 -0.71447095812216221 2 269
0.49999999999999933 -0.86602540378443904 0 270
0.49999999999999933 -0.86602540378443904 0.5 271
0.49999999999999933 -0.86602540378443904 1 272
0.49999999999999933 -0.86602540378443904 1.5 273
0.49999999999999933 -0.86602540378443904 2 274
0.25980762113533151 -0.15000000000000013 0 275
0.25980762113533151 -0.15000000000000013 0.5 276
0.25980762113533151 -0.15000000000000013 1 277
0.25980762113533151 -0.15000000000000013 1.5 278
0.25980762113533151 -0.15000000000000013 2 279
0.41136206679760823 -0.23750000000000021 0 280
0.41136206679760823 -0.23750000000000021 0.5 281
0.41136206679760823 -0.23750000000000021 1 282
0.41136206679760823 -0.23750000000000021 1.5 283
0.41136206679760823 -0.23750000000000021 2 284
0.56291651245988483 -0.32500000000000023 0 285
0.56291651245988483 -0.32500000000000023 0.5 286
0.56291651245988483 -0.32500000000000023 1 287
0.56291651245988483 -0.32500000000000023 1.5 288
0.56291651245988483 -0.32500000000000023 2 289
0.71447095812216166 -0.41250000000000037 0 290
0.71447095812216166 -0.41250000000000037 0.5 291
0.71447095812216166 -0.41250000000000037 1 292
0.71447095812216166 -0.41250000000000037 1.5 293
0.71447095812216166 -0.41250000000000037 2 294
0.86602540378443837 -0.50000000000000044 0 295
0.86602540378443837 -0.50000000000000044 0.5 296
0.86602540378443837 -0.50000000000000044 1 297
0.86602540378443837 -0.50000000000000044 1.5 298
0.86602540378443837 -0.50000000000000044 2 299
NMARK= 4
MARKER_TAG= inlet
MARKER_ELEMS= 48
9 0 5 30 25
9 5 10 35 30
9 10 15 40 35
9 15 20 45 40
9 25 30 55 50
9 30 35 60 55
9 35 40 65 60
9 40 45 70 65
9 50 55 80 75
9 55 60 85 80
9 60 65 90 85
9 65 70 95 90
9 75 80 105 100
9 80 85 110 105
9 85 90 115 110
9 90 95 120 115
9 100 105 130 125
9 105 110 135 130
9 110 115 140 135
9 115 120 145 140
9 125 130 155 150
9 130 135 160 155
9 135 140 165 160
9 140 145 170 165
9 150 155 180 175
9 155 160 185 180
9 160 165 190 185
9 165 170 195 190
9 175 180 205 200
9 180 185 210 205
9 185 190 215 210
9 190 195 220 215
9 200 205 230 225
9 205 210 235 230
9 210 215 240 235
9 215 220 245 240
9 225 230 255 250
9 230 235 260 255
9 235 240 265 260
9 240 245 270 265
9 250 255 280 275
9 255 260 285 280
9 260 265 290 285
9 265 270 295 290
9 275 280 5 0
9 280 285 10 5
9 285 290 15 10
9 290 295 20 15
MARKER_TAG= outlet
MARKER_ELEMS= 48
9 4 9 34 29
9 9 14 39 34
9 14 19 44 39
9 19 24 49 44
9 29 34 59 54
9 34 39 64 59
9 39 44 69 64
9 44 49 74 69
9 54 59 84 79
9 59 64 89 84
9 64 69 94 89
9 69 74 99 94
9 79 84 109 104
9 84 89 114 109
9 89 94 119 114
9 94 99 124 119
9 104 109 134 129
9 109 114 139 134
9 114 119 144 139
9 119 124 149 144
9 129 134 159 154
9 134 139 164 159
9 139 144 169 164
9 144 149 174 169
9 154 159 184 179
9 159 164 189 184
9 164 169 194 189
9 169 174 199 194
9 179 184 209 204
9 184 189 214 209
9 189 194 219 214
9 194 199 224 219
9 204 209 234 229
9 209 214 239 234
9 214 219 244 239
9 219 224 249 244
9 229 234 259 254
9 234 239 264 259
9 239 244 269 264
9 244 249 274 269
9 254 259 284 279
9 259 264 289 284
9 264 269 294 289
9 269 274 299 294
9 279 284 9 4
9 284 289 14 9
9 289 294 19 14
9 294 299 24 19
MARKER_TAG= wall
MARKER_ELEMS= 48
9 20 45 46 21
9 45 70 71 46
9 70 95 96 71
9 95 120 121 96
9 120 145 146 121
9 145 170 171 146
9 170 195 196 171
9 195 220 221 196
9 220 245 246 221
9 245 270 271 246
9 270 295 296 271
9 295 20 21 296
9 21 46 47 22
9 46 71 72 47
9 71 96 97 72
9 96 121 122 97
9 121 146 147 122
9 146 171 172 147
9 171 196 197 172
9 196 221 222 197
9 221 246 247 222
9 246 271 272 247
9 271 296 297 272
9 296 21 22 297
9 22 47 48 23
9 47 72 73 48
9 72 97 98 73
9 97 122 123 98
9 122 147 148 123
9 147 172 173 148
9 172 197 198 173
9 197 222 223 198
9 222 247 248 223
9 247 272 273 248
9 272 297 298 273
9 297 22 23 298
9 23 48 49 24
9 48 73 74 49
9 73 98 99 74
9 98 123 124 99
9 123 148 149 124
9 148 173 174 149
9 173 198 199 174
9 198 223 224 199
9 223 248 249 224
9 248 273 274 249
9 273 298 299 274
9 298 23 24 299
MARKER_TAG= hub
MARKER_ELEMS= 48
9 0 25 26 1
9 25 50 51 26
9 50 75 76 51
9 75 100 101 76
9 100 125 126 101
9 125 150 151 126
9 150 175 176 151
9 175 200 201 176
9 200 225 226 201
9 225 250 251 226
9 250 275 276 251
9 275 0 1 276
9 1 26 27 2
9 26 51 52 27
9 51 76 77 52
9 76 101 102 77
9 101 126 127 102
9 126 151 152 127
9 151 176 177 152
9 176 201 202 177
9 201 226 227 202
9 226 251 252 227
9 251 276 277 252
9 276 1 2 277
9 2 27 28 3
9 27 52 53 28
9 52 77 78 53
9 77 102 103 78
9 102 127 128 103
9 127 152 153 128
9 152 177 178 153
9 177 202 203 178
9 202 227 228 203
9 227 252 253 228
9 252 277 278 253
9 277 2 3 278
9 3 28 29 4
9 28 53 54 29
9 53 78 79 54
9 78 103 104 79
9 103 128 129 104
9 128 153 154 129
9 153 178 179 154
9 178 203 204 179
9 203 228 229 204
9 228 253 254 229
9 253 278 279 254
9 278 3 4 279
