NDIME= 3
NELEM= 24
10 0 4 5 7 0
10 0 5 1 7 1
10 0 1 3 7 2
10 0 3 2 7 3
10 0 2 6 7 4
10 0 6 4 7 5
10 4 8 9 11 6
10 4 9 5 11 7
10 4 5 7 11 8
10 4 7 6 11 9
10 4 6 10 11 10
10 4 10 8 11 11
10 8 12 13 15 12
10 8 13 9 15 13
10 8 9 11 15 14
10 8 11 10 15 15
10 8 10 14 15 16
10 8 14 12 15 17
10 12 16 17 19 18
10 12 17 13 19 19
10 12 13 15 19 20
10 12 15 14 19 21
10 12 14 18 19 22
10 12 18 16 19 23
NPOIN= 20
0 0 0 0
0 1 0 1
0 0 1 2
0 1 1 3
0.29999999999999999 0 0 4
0.29999999999999999 1 0 5
0.29999999999999999 0 1 6
0.29999999999999999 1 1 7
0.3000005 0 0 8
0.3000005 1 0 9
0.3000005 0 1 10
0.3000005 1 1 11
0.30000100000000002 0 0 12
0.30000100000000002 1 0 13
0.30000100000000002 0 1 14
0.30000100000000002 1 1 15
1 0 0 16
1 1 0 17
1 0 1 18
1 1 1 19
NMARK= 1
MARKER_TAG= private_interface
MARKER_ELEMS= 36
5 0 3 1
5 0 1 5
5 0 2 3
5 0 6 2
5 0 5 4
5 0 4 6
5 1 3 7
5 1 7 5
5 2 7 3
5 2 6 7
5 4 5 9
5 4 10 6
5 4 9 8
5 4 8 10
5 5 7 11
5 5 11 9
5 6 11 7
5 6 10 11
5 8 9 13
5 8 14 10
5 8 13 12
5 8 12 14
5 9 11 15
5 9 15 13
5 10 15 11
5 10 14 15
5 12 13 17
5 12 18 14
5 12 17 16
5 12 16 18
5 13 15 19
5 13 19 17
5 14 19 15
5 14 18 19
5 16 17 19
5 16 19 18
