NDIME= 3
NELEM= 16
12 0 5 30 25 1 6 31 26 0
12 5 10 35 30 6 11 36 31 1
12 10 15 40 35 11 16 41 36 2
12 15 20 45 40 16 21 46 41 3
12 1 6 31 26 2 7 32 27 4
12 6 11 36 31 7 12 37 32 5
12 11 16 41 36 12 17 42 37 6
12 16 21 46 41 17 22 47 42 7
12 2 7 32 27 3 8 33 28 8
12 7 12 37 32 8 13 38 33 9
12 12 17 42 37 13 18 43 38 10
12 17 22 47 42 18 23 48 43 11
12 3 8 33 28 4 9 34 29 12
12 8 13 38 33 9 14 39 34 13
12 13 18 43 38 14 19 44 39 14
12 18 23 48 43 19 24 49 44 15
NPOIN= 50
0.29999999999999999 0 0 0
0.29999999999999999 0 0.5 1
0.29999999999999999 0 1 2
0.29999999999999999 0 1.5 3
0.29999999999999999 0 2 4
0.47499999999999998 0 0 5
0.47499999999999998 0 0.5 6
0.47499999999999998 0 1 7
0.47499999999999998 0 1.5 8
0.47499999999999998 0 2 9
0.64999999999999991 0 0 10
0.64999999999999991 0 0.5 11
0.64999999999999991 0 1 12
0.64999999999999991 0 1.5 13
0.64999999999999991 0 2 14
0.82499999999999996 0 0 15
0.82499999999999996 0 0.5 16
0.82499999999999996 0 1 17
0.82499999999999996 0 1.5 18
0.82499999999999996 0 2 19
1 0 0 20
1 0 0.5 21
1 0 1 22
1 0 1.5 23
1 0 2 24
0.25980762113533162 0.14999999999999997 0 25
0.25980762113533162 0.14999999999999997 0.5 26
0.25980762113533162 0.14999999999999997 1 27
0.25980762113533162 0.14999999999999997 1.5 28
0.25980762113533162 0.14999999999999997 2 29
0.41136206679760839 0.23749999999999996 0 30
0.41136206679760839 0.23749999999999996 0.5 31
0.41136206679760839 0.23749999999999996 1 32
0.41136206679760839 0.23749999999999996 1.5 33
0.41136206679760839 0.23749999999999996 2 34
0.56291651245988505 0.3249999999999999 0 35
0.56291651245988505 0.3249999999999999 0.5 36
0.56291651245988505 0.3249999999999999 1 37
0.56291651245988505 0.3249999999999999 1.5 38
0.56291651245988505 0.3249999999999999 2 39
0.71447095812216188 0.41249999999999992 0 40
0.71447095812216188 0.41249999999999992 0.5 41
0.71447095812216188 0.41249999999999992 1 42
0.71447095812216188 0.41249999999999992 1.5 43
0.71447095812216188 0.41249999999999992 2 44
0.86602540378443871 0.49999999999999994 0 45
0.86602540378443871 0.49999999999999994 0.5 46
0.86602540378443871 0.49999999999999994 1 47
0.86602540378443871 0.49999999999999994 1.5 48
0.86602540378443871 0.49999999999999994 2 49
NMARK= 6
MARKER_TAG= per1
MARKER_ELEMS= 16
9 0 5 6 1
9 5 10 11 6
9 10 15 16 11
9 15 20 21 16
9 1 6 7 2
9 6 11 12 7
9 11 16 17 12
9 16 21 22 17
9 2 7 8 3
9 7 12 13 8
9 12 17 18 13
9 17 22 23 18
9 3 8 9 4
9 8 13 14 9
9 13 18 19 14
9 18 23 24 19
MARKER_TAG= per2
MARKER_ELEMS= 16
9 25 30 31 26
9 30 35 36 31
9 35 40 41 36
9 40 45 46 41
9 26 31 32 27
9 31 36 37 32
9 36 41 42 37
9 41 46 47 42
9 27 32 33 28
9 32 37 38 33
9 37 42 43 38
9 42 47 48 43
9 28 33 34 29
9 33 38 39 34
9 38 43 44 39
9 43 48 49 44
MARKER_TAG= inlet
MARKER_ELEMS= 4
9 0 5 30 25
9 5 10 35 30
9 10 15 40 35
9 15 20 45 40
MARKER_TAG= outlet
MARKER_ELEMS= 4
9 4 9 34 29
9 9 14 39 34
9 14 19 44 39
9 19 24 49 44
MARKER_TAG= wall
MARKER_ELEMS= 4
9 20 45 46 21
9 21 46 47 22
9 22 47 48 23
9 23 48 49 24
MARKER_TAG= hub
MARKER_ELEMS= 4
9 0 25 26 1
9 1 26 27 2
9 2 27 28 3
9 3 28 29 4
